<svg width="157" height="158" viewBox="0 0 157 158" fill="none" xmlns="http://www.w3.org/2000/svg">
<circle cx="78.289" cy="79.0949" r="78.2104" fill="white"/>
<path fill-rule="evenodd" clip-rule="evenodd" d="M37.7841 98.0514C41.6931 95.9873 45.6019 93.9232 49.5108 91.8592C53.2173 100.123 62.5229 105.425 71.4672 103.47C73.6472 102.993 75.8083 101.916 76.855 99.8365C77.6424 98.2726 77.6719 96.4362 77.3156 94.751C77.0152 93.3312 76.4562 91.8327 75.5414 90.6899C74.3919 89.254 72.625 88.1512 71.195 87.0246C68.9794 85.2785 66.7438 83.5579 64.5021 81.8457C64.2081 81.6214 63.3898 81.2181 63.2253 80.873C63.0873 80.584 63.2253 79.8824 63.2253 79.566V78.0766C66.4777 79.2632 70.1051 79.9162 73.562 79.7382C79.3167 79.4418 83.9374 75.275 88.0415 71.5746C88.7733 70.9148 89.4928 70.2409 90.1951 69.5495C90.3295 69.417 90.6701 68.9272 90.8578 68.8902C91.109 68.8405 91.769 69.2566 91.9999 69.3495C92.7989 69.6704 93.5977 69.9916 94.3967 70.3129C96.3417 71.0947 98.2968 71.7334 100.053 72.8818C107.506 77.7557 115.434 83.7148 118.822 92.2529C120.747 97.1058 121.896 102.288 122.597 107.456C122.692 108.16 122.937 109.038 122.815 109.742C122.591 111.033 121.858 112.4 121.416 113.629C120.854 115.19 120.292 116.751 119.73 118.312C119.668 118.485 119.592 118.92 119.448 119.028C119.148 119.253 118.146 119.177 117.786 119.216C115.717 119.444 113.642 119.674 111.563 119.788C109.695 119.891 107.952 119.413 106.17 118.88C105.178 118.584 104.194 118.264 103.214 117.929C102.994 117.853 101.916 117.651 101.791 117.429C101.736 117.332 101.921 116.876 101.947 116.769C102.109 116.089 102.259 115.406 102.4 114.721C103.4 109.887 104.136 104.822 103.714 99.8792C103.275 94.7301 100.416 90.6622 96.8155 87.1401C95.4907 85.8443 94.0813 84.6326 92.606 83.5129C92.3475 83.3165 91.8755 82.805 91.5485 82.7394C91.2859 82.6867 91.0886 82.906 90.8268 83.0772C90.0682 83.5727 89.3098 84.0683 88.5514 84.5637C88.3475 84.6966 87.5524 85.0478 87.4788 85.2822C87.4168 85.4799 87.7408 86.1332 87.7949 86.3234C88.0251 87.1279 88.2304 87.9398 88.4159 88.7558C89.6322 94.1016 90.2003 99.9532 88.706 105.3C87.2952 110.349 84.036 114.893 79.6639 117.768C75.1411 120.742 69.881 121.478 64.631 120.454C55.2943 118.632 45.7218 113.154 40.6368 104.898C39.3349 102.785 38.3513 100.473 37.7841 98.0514Z" fill="#F0DD33"/>
<path fill-rule="evenodd" clip-rule="evenodd" d="M121.764 109.444C121.402 112.318 120.117 115.05 118.526 117.44C118.317 117.025 118.57 116.681 117.99 116.602C117.6 116.549 117.084 116.825 116.7 116.89C115.274 117.133 113.776 116.946 112.351 116.793C112.72 116.393 113.208 116.069 113.025 115.417C112.886 114.925 112.282 114.734 112.047 114.279C112.368 114.139 113.251 114.842 113.56 114.961C113.407 114.575 112.885 113.884 112.997 113.46C113.079 113.148 113.484 113.208 113.147 112.809C112.994 112.946 112.502 113.608 112.234 113.444C112.493 113.21 112.304 113.082 112.418 112.847C112.506 112.665 112.584 112.577 112.707 112.418C113.023 112.008 113.23 111.483 112.828 111.002C112.693 110.841 112.463 110.875 112.337 110.693C112.215 110.517 112.241 110.312 112.208 110.114C112.171 109.893 112.189 109.644 112.127 109.427C112.001 108.98 111.953 108.987 112.168 108.526C111.947 108.716 111.725 108.906 111.503 109.096C111.393 108.629 111.311 108.134 111.084 107.707C111.007 107.562 110.595 107.181 110.613 107.03C110.56 107.469 110.208 106.952 110.065 106.916C109.613 106.802 108.815 107.248 108.47 107.523C107.518 108.284 106.95 109.733 106.349 110.77C105.689 111.91 105.026 113.175 104.852 114.486C104.809 114.812 104.799 115.498 104.43 115.662C104.232 115.751 103.405 115.513 103.2 115.395C102.7 115.105 102.875 114.671 103.069 114.212C103.32 113.617 103.546 113.108 103.662 112.463C103.8 111.692 103.9 110.912 104.02 110.137C104.271 108.513 104.524 106.881 104.653 105.242C104.694 104.717 104.628 104.195 104.648 103.683C104.666 103.236 105.009 102.719 104.818 102.186C104.753 102.003 104.618 101.961 104.627 101.806C104.632 101.71 104.877 101.8 104.91 101.674C104.974 101.427 104.739 101.176 104.679 100.947C104.583 100.587 104.656 100.254 104.711 99.8933C104.934 98.4257 104.521 96.8814 104.128 95.4698C103.702 93.9447 103.124 92.4773 102.531 91.0117C102.009 89.7217 101.789 88.3213 101.175 87.0686C100.644 85.9865 100.063 84.9123 99.106 84.2118C98.6675 83.8908 98.3506 83.4055 97.9332 83.0511C97.6844 82.8397 97.4176 82.6129 97.1185 82.4771C96.8295 82.3461 96.4837 82.4224 96.2203 82.2985C95.8543 82.1266 95.4479 81.6945 95.0567 81.5256C94.719 81.3798 94.3314 81.2803 94.0152 80.9747C93.5865 80.5601 93.5068 80.2842 92.9049 80.2045C92.5566 80.1587 92.2113 80.1789 91.9644 79.8328C90.987 78.4624 93.6233 76.4838 92.4027 75.0543C91.9168 75.5445 91.7094 76.2415 91.4747 76.8719C91.1675 77.6976 90.7349 78.3931 90.2484 79.1249C89.3971 80.4057 88.1272 81.7044 87.7614 83.2323C87.1652 82.3983 86.8294 81.9013 85.9296 82.726C85.7604 82.3525 85.9834 81.6411 85.6469 81.4011C85.0552 80.979 83.9265 82.03 83.6038 82.4113C82.3403 83.9046 81.6344 85.7226 80.9409 87.5389C80.6346 88.3413 80.3054 89.3571 80.6957 90.1872C81.0411 90.9215 81.8628 91.3243 82.563 91.6394C83.5541 92.0852 84.3745 92.062 85.4277 92.1733C85.9111 92.2243 86.3467 92.4355 86.8074 92.1896C87.2063 91.9769 87.491 91.5522 87.8377 91.2702C87.9192 91.5352 88.1304 91.7682 88.3995 91.5336C88.7934 93.1886 89.1857 94.808 89.0906 96.5229C89.0032 98.0966 88.8661 99.6767 88.5854 101.228C88.2959 102.828 87.9572 104.455 87.3269 105.96C86.7034 107.449 85.7472 108.76 84.8764 110.109C84.6113 109.568 84.2955 109.835 83.9122 110.088C83.76 109.765 83.9555 109.518 83.7441 109.231C83.6077 109.151 83.486 109.052 83.3788 108.934C83.3418 108.704 83.2896 108.477 83.223 108.253C82.8829 108.392 82.7385 108.556 82.5832 108.882C82.071 107.98 81.7084 108.095 80.7548 108.153C79.4778 108.23 79.0696 109.336 78.647 110.374C78.5466 110.621 78.3603 110.933 78.3385 111.206C78.3228 111.4 78.4944 111.724 78.4711 111.824C78.4231 112.029 78.2372 111.858 78.187 111.96C78.0026 112.332 77.9556 112.86 77.8575 113.264C77.5957 114.344 77.516 116.09 76.4523 116.705C75.5618 117.219 74.284 117.341 73.2856 117.535C71.7148 117.84 70.0517 117.895 68.4555 117.903C67.0289 117.911 65.3233 118.083 63.9691 117.545C63.7707 117.466 62.8318 117.025 63.0506 116.8C63.1456 116.702 63.6599 116.863 63.7652 116.92C63.6939 116.882 63.6406 116.444 63.6047 116.345C63.4707 115.976 63.3678 115.963 63.1133 115.683C62.5486 115.064 63.3109 115.35 63.2595 114.905C63.2495 114.82 62.6456 115.041 62.6622 115.035C62.6819 114.9 62.8063 114.62 62.7423 114.485C62.7891 114.584 62.3938 113.751 62.4408 113.94C62.3493 113.572 62.6061 113.209 62.553 112.853C62.4778 112.348 62.1088 112.449 61.8198 112.15C61.7206 112.048 61.6813 111.84 61.5839 111.722C61.5416 111.671 61.3868 111.662 61.3711 111.635C61.2655 111.451 61.2721 111.421 61.383 111.035C61.1689 111.128 60.605 111.517 60.3869 111.305C60.1242 111.05 60.6754 110.751 60.2195 110.576C60.0358 110.505 59.9305 110.703 59.7666 110.709C59.6566 110.713 59.6351 110.442 59.4977 110.513C59.2525 110.641 59.1889 111.176 59.0808 111.408C58.4683 109.845 56.494 112.414 56.1294 113.017C55.7919 113.575 55.7726 114.678 54.9391 114.593C54.5014 114.548 53.9987 114.069 53.6497 113.835C53.1377 113.491 52.5905 113.205 52.0614 112.888C49.7126 111.48 47.4981 109.929 45.4183 108.145C44.6532 107.489 43.6291 106.675 43.5272 105.659C43.4865 105.251 43.4372 104.88 43.3242 104.468C43.0971 103.639 42.7968 103.785 42.134 103.333C42.3996 102.809 42.7786 102.782 42.7556 102.147C42.7366 101.632 42.5393 101.117 42.3662 100.642C42.1451 100.035 42.0382 99.3531 41.3904 99.1847C40.7003 99.0053 40.5902 99.3409 40.1334 99.8256C40.1806 99.5645 40.3915 98.9025 40.0987 98.734C39.6911 98.4997 39.4713 99.365 39.1512 99.4585C38.8758 98.8434 37.9435 97.8857 38.596 97.2745C38.9252 96.9661 39.5648 96.8478 39.9727 96.661C40.5795 96.3835 41.1683 96.0657 41.7573 95.7532C44.3755 94.3645 46.9182 92.8485 49.5151 91.4217C49.9732 92.4823 50.3819 93.5676 50.9096 94.597C51.3496 95.4556 52.1366 96.2684 52.1048 97.2849C52.0721 98.3426 51.5933 99.3834 51.4788 100.442C51.403 101.142 51.5079 101.419 52.2788 101.175C52.3455 101.658 53.1234 102.357 53.5384 102.603C54.2062 102.998 54.8712 102.274 55.3369 101.825C55.666 102.138 55.7356 102.601 56.0074 102.95C56.1441 102.803 56.1235 102.387 56.2104 102.319C56.2937 102.253 56.5849 102.397 56.645 102.395C56.736 102.392 56.6589 102.134 56.7324 102.131C56.9676 102.71 57.5105 101.741 58.0325 102.138C57.9697 101.834 58.0555 101.729 58.3164 101.584C58.4515 102.214 59.0048 101.917 59.4825 101.987C60.3312 102.11 61.1598 102.586 61.994 102.802C63.7127 103.247 65.3353 103.493 67.1052 103.464C67.8133 103.452 68.1112 103.56 68.5286 104.113C68.6875 104.324 68.7645 104.587 69.0401 104.687C69.444 104.832 69.4668 104.561 69.7944 104.484C70.1277 104.406 69.9526 104.322 70.2664 104.487C70.4592 104.588 70.5732 104.91 70.731 105.061C71.1772 105.488 71.6513 105.649 72.0243 105.065C72.0951 105.278 72.1755 105.344 72.3429 105.485C72.3192 105.148 72.269 104.474 72.8253 104.633C73.2409 104.752 73.0476 105.35 73.6377 105.246C73.9685 105.188 74.2435 104.71 74.4415 104.469C74.7128 104.139 74.7244 104.592 74.7778 104.028C74.8093 103.694 74.5911 103.279 74.4586 102.987C74.9542 103.089 75.0427 103.614 75.5352 103.66C76.087 103.712 76.369 102.979 76.9037 103.119C76.8521 102.996 76.6523 102.585 76.74 102.463C76.8751 102.276 77.0688 102.72 77.2797 102.678C77.5093 102.632 77.7642 102.008 77.7159 101.798C77.62 101.378 77.133 101.484 76.9477 101.152C76.7784 100.848 76.928 100.291 76.92 99.9621C76.9091 99.5135 76.8051 99.0587 76.8828 98.6107C76.9646 98.1396 77.202 97.7501 77.5261 97.4023C77.7515 97.1607 78.3784 96.7865 77.829 96.5086C78.8028 96.1488 78.2277 95.1429 78.3037 94.3066C78.3509 93.7867 78.5601 93.4082 78.4443 92.8492C78.3062 92.1805 77.9495 91.5581 77.5805 90.9928C77.2132 90.4295 76.8347 89.9066 76.2884 89.5083C76.1403 89.4082 75.9918 89.3081 75.8434 89.2082C75.7414 89.0647 75.6127 89.0231 75.4574 89.0833C75.2064 88.8923 75.1604 88.7366 74.9747 88.463C74.5081 87.775 73.6809 87.4353 72.9947 87.0266C72.3354 86.634 71.7621 86.0941 71.0711 85.7569C71.0747 85.7585 70.3455 85.444 70.4068 85.5258C70.1556 85.1898 70.4115 84.774 70.3986 84.4118C70.3852 84.0399 70.1622 83.876 70.0582 83.5552C69.9342 83.1737 70.157 82.6999 69.9325 82.3586C69.8448 82.2256 69.6734 82.1885 69.5669 82.0712C69.3855 81.8718 69.3049 81.6032 69.1126 81.4068C68.9239 81.6295 68.7354 81.8521 68.5469 82.0748C68.3242 81.5333 68.28 81.3925 67.8236 81.907C67.1269 82.6922 66.7321 82.3534 66.1643 81.6238C65.9767 81.3827 65.7583 81.335 65.6179 81.1579C65.3943 80.876 65.6347 80.3825 65.3155 80.1366C65.1294 79.993 64.8694 80.1382 64.7127 79.8914C64.5201 79.5881 64.8344 79.1374 64.6571 78.7975C67.325 79.6423 70.0475 80.3156 72.8669 80.1103C75.6058 79.911 78.4027 79.2393 80.9162 78.1266C85.2774 76.1959 89.5308 73.0203 91.2449 68.4147C91.6743 68.9188 91.5848 69.8384 92.0587 70.3011C92.763 70.9887 92.6996 69.6141 92.6996 69.1765C93.2641 69.3277 94.0697 69.5671 94.1155 70.2552C94.1619 70.9503 93.5368 71.6746 93.317 72.3069C93.0961 72.9424 92.986 73.6776 93.0398 74.3488C93.0665 74.6842 93.1287 75.0318 93.2963 75.3283C93.5013 75.6907 93.7289 75.6726 94.0038 75.8381C93.9586 75.8111 94.3478 76.0742 94.3364 76.0713C95.1555 76.2681 95.8132 76.8837 96.6935 76.6609C97.2604 76.5174 97.8083 76.1024 98.0175 76.9322C98.4116 76.6671 98.4604 76.4622 98.4495 76.0713C98.4446 75.9021 98.2045 75.7575 98.4452 75.7039C98.5251 75.6862 98.8239 76.049 98.9407 76.0826C99.2638 76.175 99.3882 76.0451 99.544 75.8022C99.6338 75.6619 99.6398 74.7153 99.7474 74.6955C99.9756 74.6531 100.452 75.6276 100.579 75.8022C100.579 73.0078 103.494 76.2465 104.401 76.8637C105.138 77.3659 105.94 77.8109 106.559 78.4664C107.347 79.3013 107.119 79.7865 106.587 80.6889C105.998 81.6879 105.572 82.8518 105.036 83.8935C104.767 84.4162 104.445 85.0437 104.453 85.6513C104.455 85.8561 104.573 86.0676 104.562 86.2665C104.546 86.5543 104.407 86.6763 104.291 86.9283C103.958 87.6535 104.257 88.5197 104.96 88.8789C105.412 89.1091 105.875 89.2545 106.311 89.5206C106.772 89.8015 107.227 90.1048 107.788 90.1241C108.15 90.1364 108.35 90.0394 108.7 90.1481C108.937 90.2217 109.136 90.4354 109.411 90.4084C109.96 90.3543 110.364 89.7474 110.928 89.6225C111.346 89.5301 111.889 89.5837 112.156 89.1736C112.486 88.6646 111.857 88.1576 112.359 87.6891C112.497 87.9475 112.589 88.2421 112.622 88.5333C112.77 88.1423 112.83 87.8281 113.049 87.4776C113.277 87.1115 113.407 86.8731 113.403 86.4109C113.396 85.5819 112.995 84.809 112.794 84.0202C113.496 84.059 114.075 85.269 114.381 85.7764C114.946 86.7126 115.53 87.6365 116.092 88.5745C116.797 89.7519 117.693 91.0464 118.146 92.3467C118.555 93.5201 117.565 94.2747 117.02 95.2287C116.375 96.3574 116.18 97.438 115.827 98.6484C115.546 99.6166 115.514 100.692 116.304 101.427C116.657 101.755 117.105 101.945 117.545 102.123C118.069 102.336 118.207 102.725 118.769 102.837C119.217 102.927 119.714 102.971 120.173 102.957C120.959 102.932 120.674 102.673 121.109 102.177C120.973 102.643 121.433 103.085 121.561 103.512C121.74 104.11 121.781 104.77 121.854 105.388C122.016 106.743 121.935 108.094 121.764 109.444ZM111.247 121.853C110.541 121.693 109.489 121.789 108.855 121.438C108.415 121.195 108.614 120.96 108.796 120.501C109.291 119.254 110.668 119.116 111.888 119.455C111.674 120.255 111.461 121.054 111.247 121.853ZM112.518 131.212C114.756 132.425 117.199 133.725 119 135.547C119.423 135.975 120.567 136.927 120.415 137.627C120.255 138.359 118.817 138.217 118.286 138.198C115.712 138.103 113.302 137.458 110.997 136.327C108.792 135.246 106.667 134.139 105.063 132.23C104.414 131.457 103.224 130.264 103.359 129.16C103.493 128.064 104.618 127.233 105.215 126.373C105.799 125.53 106.525 123.686 107.618 123.407C108.094 123.285 108.572 123.554 109.016 123.689C109.44 123.818 110.082 123.817 110.445 124.101C111.101 124.615 110.838 125.801 110.149 126.133C109.69 126.354 109.155 126.449 108.674 126.609C108.132 126.789 105.399 127.612 106.417 128.545C107.126 129.194 108.387 128.402 109.146 128.221C109.536 128.128 110.162 128.008 110.394 128.453C110.62 128.886 110.211 129.336 109.855 129.538C109.326 129.837 108.65 129.791 108.192 130.23C107.818 130.59 107.721 131.016 108.234 131.233C109.599 131.809 111.093 130.44 112.518 131.212ZM84.4314 110.462C84.3526 110.156 84.554 109.983 84.8721 110.117C84.802 110.316 84.6553 110.431 84.4314 110.462ZM62.2335 117.088C61.9454 117.048 62.0618 116.685 62.1801 116.505C62.3711 116.654 62.3888 116.848 62.2335 117.088ZM42.19 104.483C41.8238 104.075 42.3767 103.368 42.9266 103.699C42.7473 103.968 42.3869 104.17 42.19 104.483ZM40.8624 87.3945C40.2699 86.3396 40.2281 84.0483 38.6886 83.9087C38.1226 83.8574 37.1154 84.5669 36.6295 84.2316C36.189 83.9278 36.573 82.3974 35.9317 82.4204C35.0278 82.4528 35.4919 84.2241 35.084 84.6632C34.8505 84.9141 34.3237 85.0149 33.9979 84.9713C33.5027 84.9053 33.46 84.6812 33.4475 84.2168C33.438 83.8729 33.6871 82.4964 32.9142 82.7249C32.3513 82.8913 32.4871 84.1003 32.4315 84.5293C32.2246 86.1259 29.9023 86.0512 28.6853 86.1867C27.9469 86.2685 24.486 86.8204 25.255 85.294C25.5803 84.6485 26.3776 84.1117 26.9204 83.6623C27.8441 82.8972 28.8994 82.2943 30.0006 81.8257C32.0485 80.9545 34.356 80.4909 36.5766 80.7949C39.0769 81.1368 41.1356 82.3706 42.8047 84.2316C43.1496 84.6164 44.1236 85.5056 43.7506 86.0535C43.5433 86.3584 42.8256 86.434 42.5045 86.5473C41.9228 86.753 41.3558 87.0187 40.8624 87.3945ZM44.5426 88.1651C45.3922 87.8436 45.585 88.9034 45.9122 89.4761C46.1923 89.9667 46.8133 90.7113 46.4873 91.2873C46.1912 91.8115 45.2852 92.1237 44.7753 92.3447C44.1078 92.6342 43.41 92.8494 42.7439 93.1412C42.3949 92.3099 42.0924 91.4574 41.7243 90.6348C41.5164 90.1709 41.0906 89.5326 41.456 89.0688C42.0611 88.3015 43.699 88.4845 44.5426 88.1651ZM68.1067 56.7909C68.1723 55.8384 68.7962 56.1504 69.0369 56.8057C69.2985 57.5175 69.3282 58.3635 69.3491 59.1141C69.3646 59.6864 69.2472 60.5814 68.7007 59.7472C68.1757 58.9459 68.0425 57.7196 68.1067 56.7909ZM71.4646 60.6309C71.3704 61.7841 70.713 60.9865 70.4722 60.3716C70.1211 59.4743 69.8527 58.3145 69.981 57.3479C70.1291 56.2324 70.6735 56.9328 70.9163 57.6151C71.2596 58.5803 71.2744 59.6319 71.4646 60.6309ZM72.8921 59.6902C72.1517 59.8909 70.9973 55.5235 71.9973 55.3743C72.8285 55.2506 73.6219 59.4925 72.8921 59.6902ZM75.8565 60.1455C75.8497 61.1147 75.0507 60.3505 74.7712 59.9593C74.259 59.2429 73.8555 58.1733 73.8264 57.2934C73.7992 56.4674 74.1607 55.7964 74.7392 56.686C75.3817 57.6742 75.6485 59.0052 75.8565 60.1455ZM69.3882 48.9571C70.1093 46.9329 71.0093 45.072 72.2116 43.2905C72.4273 42.9708 72.6437 42.6066 72.9375 42.3521C73.1752 42.146 73.5181 42.0944 73.7419 41.8935C74.1924 41.4897 73.848 41.0845 73.4096 40.8729C72.673 40.5171 71.3624 40.5688 71.8765 39.3866C72.5872 37.7534 74.4292 38.6638 75.1542 39.7739C75.4476 39.0807 75.9632 39.2497 76.5919 39.2024C77.5317 39.1313 78.4156 38.6807 79.3647 38.6966C80.2448 38.7115 81.0551 39.1397 81.9372 39.1552C82.9193 39.1729 83.7398 39.2136 84.6951 39.4889C84.1974 40.4977 83.5795 41.495 82.6321 42.1378C82.8026 41.8228 83.3933 40.9764 82.8636 40.7427C82.5053 40.5847 81.74 41.2466 81.4355 41.3994C81.4234 41.111 81.3178 40.82 81.1453 40.5891C80.2148 41.2402 80.5282 42.3578 81.3222 42.9701C80.628 43.3323 79.902 43.6502 79.1227 43.7678C78.3537 43.8841 77.5806 43.7029 76.8158 43.833C75.4735 44.0612 74.4708 45.2646 74.2571 46.5853C74.1411 47.3019 74.5321 49.1049 75.1143 47.707C75.2307 47.4279 75.2903 47.0987 75.4748 46.8534C75.7787 46.4488 76.0121 46.5914 76.4577 46.6882C76.8272 46.7686 77.4747 46.8494 77.6148 47.2587C77.7404 47.6259 77.4125 48.1195 77.2268 48.399C76.5903 49.3583 75.6388 50.1875 74.489 50.4048C73.838 50.5277 68.8751 50.3985 69.3882 48.9571ZM70.9371 35.8207C70.5198 35.5409 70.833 34.8114 70.8825 34.4384C70.9565 34.575 71.0305 34.7113 71.1045 34.848C71.0527 33.9738 71.1721 33.2675 71.3583 32.419C71.429 32.0968 71.4035 31.8229 71.418 31.5001C71.4264 31.3154 71.3919 31.1844 71.4682 31.0734C71.5659 30.9308 71.683 31.3456 71.6776 31.3091C72.1228 30.7721 71.7614 30.6582 71.8915 30.1178C71.8931 30.111 72.3011 29.6746 72.3462 29.5924C72.5611 29.1998 72.6044 29.0485 72.9759 28.8206C73.3526 28.5895 73.2257 28.8181 73.4304 28.324C73.6273 27.8481 73.6146 27.5194 73.7286 27.0212C73.9047 27.1497 74.0823 27.1535 74.2619 27.0326C74.0955 26.9865 74.0065 26.8774 73.9953 26.7048C74.4544 26.6579 74.8609 26.2124 75.2785 26.366C75.1731 26.1855 75.1007 25.1517 75.4439 25.1537C75.4551 25.3157 75.4551 25.4776 75.444 25.6395C75.7337 25.2021 76.1882 24.5552 76.5454 24.2248C76.8151 23.9752 76.7389 24.0481 77.0687 24.013C77.3523 23.9828 77.3562 24.0895 77.5996 23.8347C77.5038 23.5719 77.5756 23.4052 77.8151 23.335C77.8889 23.3028 77.9629 23.2707 78.0365 23.2383C78.3762 23.0319 78.5019 22.7983 78.7692 22.5248C78.9771 22.3119 79.417 22.2211 79.5734 22.0084C79.7417 21.7799 79.6172 21.2703 79.8411 21.0967C80.0863 20.9064 80.1024 21.1544 80.3413 21.1317C80.3756 21.1286 80.7211 20.9441 80.7915 20.9205C81.302 20.7479 81.7744 20.6785 82.2059 20.2852C82.3507 20.1532 82.4531 19.9003 82.5928 19.7983C82.8244 19.6292 83.1012 19.6624 83.3375 19.5136C83.4126 19.4664 83.526 19.2557 83.6147 19.1782C83.8758 18.9493 84.2337 18.8357 84.5572 18.735C85.227 18.5265 85.8578 18.3196 86.5056 18.0391C87.8968 17.4364 89.431 16.9256 90.9072 16.5776C91.0771 16.5376 91.514 16.5609 91.6404 16.4786C91.7338 16.4176 91.815 16.2103 91.838 16.1971C92.1141 16.0364 92.5586 15.8561 92.9373 15.7482C94.0485 15.4312 94.0874 16.0365 93.379 16.6778C92.7503 17.247 91.991 17.6443 91.3452 18.1884C90.2926 19.0756 89.6088 20.3843 88.9142 21.548C89.8469 22.0006 91.1838 21.5421 92.1309 21.3456C92.6124 21.2459 93.1233 21.2353 93.5976 21.2355L93.7498 21.1483C93.8714 21.0662 93.9502 21.0998 93.9866 21.249C94.0041 21.4406 94.0974 21.4712 94.2667 21.3409C94.3564 21.279 94.4498 21.2241 94.5474 21.176C94.7211 21.0769 94.9876 20.7594 95.2104 20.7986C95.5387 20.8564 95.3416 21.0171 95.5535 21.0986C96.0409 21.2854 96.2773 20.8407 96.7319 20.7695C96.8881 20.745 97.1099 20.866 97.2814 20.8474C97.423 20.7956 97.5543 20.7252 97.6749 20.6364C97.7965 20.6336 97.8814 20.6919 97.9303 20.8109C98.301 20.8134 98.9845 20.7249 99.0174 20.2559C99.2783 20.7497 99.4284 20.5816 99.8364 20.3521C99.8364 20.9434 101.114 20.4394 101.464 20.4382C102.365 20.4354 103.143 20.0793 103.997 20.5382C102.487 21.2142 100.776 21.514 99.3135 22.2812C98.6525 22.6282 97.8009 23.6095 98.2917 24.4064C98.583 24.8794 99.1241 24.8526 99.6023 24.796C100.21 24.7241 100.715 24.9521 101.337 24.9268C102.598 24.8757 104.148 25.8347 105.236 24.81C105.712 25.458 106.273 25.4555 106.987 25.4952C107.318 25.5136 109.385 25.8734 109.3 26.274C109.252 26.4994 108.264 26.8534 108.115 26.9197C107.555 27.1681 106.975 27.3633 106.381 27.5135C105.31 27.785 104.256 27.7684 103.176 27.936C102.39 28.0581 101.418 28.5061 101.633 29.5027C101.822 30.3804 102.862 30.1825 103.535 30.1212C104.272 30.0542 104.981 29.9695 105.722 30.0022C106.317 30.0285 107.547 29.9913 107.922 30.5771C106.271 31.7666 104.201 32.075 102.233 32.3222C99.9579 32.6076 97.7003 32.9684 95.474 33.5267C95.6416 33.1905 96.3799 31.9671 96.0886 31.602C95.7319 31.1545 94.6611 32.9589 94.386 33.2014C92.0437 35.2678 88.8367 36.6698 85.9663 37.8158C86.9115 36.646 88.3356 35.8475 89.4902 34.8991C90.2849 34.2463 91.7305 33.1803 91.2045 31.9685C88.2503 33.8122 85.7652 37.1335 82.0383 37.351C83.3698 36.3804 84.904 35.6342 85.9992 34.3675C86.2554 34.0715 87.1002 32.9402 86.5762 32.5334C86.1637 32.2134 85.4344 33.341 85.1469 33.5853C83.1241 35.3028 80.3452 36.7571 77.8257 37.5622C76.9201 37.8515 75.676 38.3433 74.8443 37.7118C73.7286 36.8644 72.8594 36.837 71.6009 37.5133C71.4757 36.9619 71.4592 36.1715 70.9371 35.8207ZM97.5581 74.8045V75.5041C97.1796 75.4668 97.3492 75.0672 97.1218 74.8837C97.2673 74.8574 97.4126 74.8308 97.5581 74.8045ZM97.082 73.9942C97.1973 74.402 97.1973 74.402 96.714 74.3559C96.8822 74.1906 96.9719 74.1024 97.082 73.9942ZM98.907 74.5654C99.1831 74.4137 98.9477 75.3233 98.5093 74.8526C98.6419 74.7568 98.7745 74.6612 98.907 74.5654ZM99.8836 73.2514C99.8319 73.5518 99.7806 73.852 99.7292 74.152C99.568 74.0187 99.4068 73.8852 99.2456 73.7517C99.4584 73.585 99.6709 73.4183 99.8836 73.2514ZM120.858 101.146C121.204 100.937 121.274 101.738 121.311 101.89C121.084 101.764 120.313 101.475 120.858 101.146ZM52.1464 40.2414C51.546 41.0704 50.9469 41.906 50.4532 42.8044C50.1789 43.3035 49.9785 44.033 49.4801 44.3668C49.0364 44.6638 48.3055 44.7092 47.8076 44.8336C46.8086 45.0825 45.8179 45.3663 44.8464 45.7078C41.5307 46.8743 38.3826 48.8586 36.0521 51.5138C34.9293 52.793 33.9918 54.2666 33.4643 55.8939C32.8595 57.7593 33.0634 59.7149 32.8416 61.6349C32.7886 62.0961 32.6917 63.7409 32.1475 63.949C31.4776 64.205 31.288 62.584 31.2072 62.1597C31.1059 61.6272 30.8248 57.9832 29.7745 58.3202C29.1342 58.5256 29.1303 60.6507 29.0911 61.1576C29.002 62.3084 28.8708 63.4504 28.652 64.585C28.4812 65.469 28.2546 66.346 28.0428 67.2211C27.8566 67.9902 27.6545 68.9132 27.073 69.4926C26.6457 67.1494 26.5762 64.5167 27.3772 62.2453C27.5962 61.6238 28.973 58.436 27.7555 58.1274C27.0283 57.9428 26.4518 59.6797 26.2549 60.1384C25.5954 61.6746 25.072 63.2676 24.5027 64.8384C24.1288 65.8697 23.7499 67.7297 22.8339 68.4465C22.5001 65.8572 23.2063 63.2759 24.0655 60.8579C24.2192 60.4261 26.1278 56.122 24.475 56.5884C23.5727 56.843 22.9413 58.7693 22.5703 59.5135C21.6614 61.3363 20.5447 63.2315 19.0242 64.6096C18.9527 63.1668 19.8751 61.6392 20.218 60.2531C20.6122 58.6601 21.1324 57.1785 21.975 55.7622C23.5351 53.1402 25.5724 50.6602 27.5843 48.3743C29.6616 46.0145 32.0296 43.9133 34.6105 42.1198C37.2015 40.3193 39.9259 39.177 42.992 38.4754C46.4248 37.6902 50.1499 37.2259 53.5871 38.2381C53.107 38.9059 52.6289 39.5753 52.1464 40.2414ZM108.927 43.6686C108.872 43.6797 108.817 43.6908 108.761 43.7019C108.716 43.4329 108.671 43.164 108.625 42.895C108.968 43.0962 108.677 43.4404 108.927 43.6686ZM94.5574 41.3453C98.6166 39.556 102.895 38.235 107.224 37.2841C110.166 36.6376 113.503 36.3195 116.37 37.4528C119.681 38.7612 121.053 42.2699 121.198 45.624C121.368 49.5334 120.04 53.241 118.125 56.5925C117.666 57.3972 115.209 62.2609 114.177 61.7194C114.525 60.7664 116.967 55.3928 115.35 54.9173C114.419 54.6437 113.698 57.2882 113.378 57.8833C113.161 58.2866 111.677 61.1109 111.182 60.8691C111.65 59.3633 112.22 57.81 112.175 56.2085C112.141 54.9988 111.51 54.4294 110.843 55.6825C109.388 58.4182 107.858 61.2244 105.74 63.5117C105.54 61.8156 106.448 59.9429 107 58.3778C107.433 57.1492 108.013 55.925 108.151 54.6156C108.226 53.9064 108.204 52.5048 107.146 52.7508C106.224 52.9649 105.481 54.02 104.752 54.5661C105.303 53.5257 105.834 52.4717 106.467 51.4772C107.008 50.6248 107.658 49.8474 108.195 48.9928C108.435 48.6122 108.568 48.2424 108.72 47.8407C108.869 47.4442 109.095 47.2238 109.35 46.863C109.539 46.5946 109.643 46.3671 109.701 46.0715C109.722 45.9612 109.646 45.7967 109.658 45.6719C109.678 45.4526 109.908 45.3944 109.832 45.1428C110.235 45.7021 110.123 44.6025 110.116 44.3986C110.089 43.6813 110.379 42.9046 110.021 42.2375C109.266 40.8313 107.053 41.1042 105.745 41.2053C103.871 41.3503 101.525 41.777 99.9204 42.7919C99.5099 43.0512 99.2522 42.903 98.8069 43.1023C98.3998 43.2846 97.9855 43.4737 97.5677 43.6513C96.4819 44.1124 95.4452 44.6842 94.3744 45.1783C94.4313 44.3758 94.6132 43.593 94.4866 42.7912C94.4327 42.4475 94.0912 41.5508 94.5574 41.3453ZM123.107 103.599C122.751 101.223 122.35 98.8723 121.716 96.5527C121.413 95.4446 121.174 94.3141 120.856 93.2109C120.604 92.3344 119.833 91.8899 119.452 91.0734C118.555 89.1528 117.733 87.2505 116.653 85.4123C115.524 83.4918 114.176 81.7994 112.574 80.255C109.323 77.1225 105.568 74.7293 101.933 72.0932C100.067 70.7398 98.1328 69.5611 96.0502 68.5694C95.211 68.1697 94.4044 67.8505 93.5164 67.5903C92.5963 67.321 92.1368 67.0061 91.7962 66.0816C91.0969 64.1832 89.7852 63.5617 87.9937 62.8403C87.1834 62.5139 86.4463 62.0618 85.6478 61.7148C84.8174 61.3541 83.939 61.0777 83.1665 60.5955C79.6522 58.403 84.3442 53.839 86.21 52.1958C86.9374 51.5555 87.76 50.8984 88.686 50.5805C89.6455 50.2509 90.9534 50.0572 91.9692 49.9668C92.6587 49.9057 93.6349 50.2271 94.2077 49.6792C94.6695 49.2378 94.4909 48.5309 94.4343 47.9724C94.2752 46.406 95.5614 46.2835 96.8565 46.0066C98.8798 45.5742 100.771 44.6646 102.798 44.2097C104.091 43.9193 107.681 43.0505 107.703 45.233C107.718 46.8877 106.481 48.552 105.703 49.9042C105.095 50.9616 104.446 51.9837 103.803 53.0185C103.321 53.7925 102.886 54.6417 102.893 55.5769C102.899 56.3159 103.196 57.0455 104.062 56.9363C105.037 56.8136 105.767 55.8487 106.576 55.3818C106.609 56.3924 105.845 57.5229 105.551 58.4745C105.205 59.5967 104.9 60.7635 104.705 61.9222C104.58 62.6617 104.237 65.5094 105.734 65.1441C106.742 64.8979 107.612 63.5973 108.199 62.8292C108.818 62.02 109.373 61.1685 109.934 60.3185C110.284 61.3586 108.107 63.3705 109.212 64.3076C110.39 65.308 112.432 61.7664 113.006 61.1124C113.106 61.9069 111.985 63.6668 113.253 64.0312C114.151 64.2892 115.375 63.0656 115.94 62.4896C116.973 61.4372 117.099 59.9513 117.744 58.6773C118.482 57.2189 119.428 55.8896 120.112 54.3974C122.266 49.6955 123.362 42.7295 119.964 38.2942C117.671 35.2996 113.693 34.7812 110.175 35.0582C106.171 35.3734 102.255 36.5922 98.5099 37.9893C95.9951 38.9275 93.5211 39.978 91.0612 41.0513C89.2461 41.8433 87.4395 42.6557 85.6387 43.4803C84.7673 43.879 83.9185 44.3105 83.0709 44.7568C82.3716 45.1251 81.5404 45.5533 80.7261 45.3433C81.312 44.453 82.4774 44.1579 83.3195 43.5878C84.3157 42.9132 84.8674 41.7606 85.2321 40.6453C85.6251 39.444 85.9731 39.1572 87.1799 38.8434C88.386 38.5299 89.5149 38.0244 90.5926 37.3992C93.1201 35.9331 95.9131 35.095 98.7856 34.6404C101.327 34.2383 104.015 34.0571 106.388 32.9813C108.154 32.1805 110.378 30.4084 108.227 28.6281C109.749 27.5207 112.448 25.6711 110.085 23.8598C108.253 22.4558 105.486 22.5646 103.302 22.5646C103.616 21.93 104.622 21.7118 105.187 21.3668C105.885 20.9412 106.746 20.4806 106.988 19.6416C107.385 18.2698 105.887 17.8698 104.843 17.7323C100.874 17.2095 96.4131 17.6024 92.6531 18.9841C92.8493 18.2923 93.8269 17.7825 94.3742 17.4114C95.1035 16.9169 95.825 16.376 96.3574 15.6617C96.6381 15.2849 96.8475 14.8775 96.9033 14.4067C96.9633 13.8991 96.9092 14.1136 96.7564 13.9791C96.1929 13.4821 95.3998 13.1693 94.6344 13.1359C92.4287 13.0396 90.4686 14.0776 88.3758 14.5871C87.4504 14.8124 86.5869 14.9049 85.7009 15.3045C84.6324 15.7864 83.5316 16.2075 82.4747 16.7113C81.9836 16.9456 81.5215 17.2254 81.0257 17.4479C80.5761 17.6497 80.4719 17.9029 80.1092 18.2097C79.7764 18.4912 79.4072 18.3519 79.03 18.5625C78.5081 18.8536 78.011 19.3613 77.5261 19.7234C75.6385 21.1334 73.8555 22.7524 72.3587 24.5776C69.7747 27.7285 67.2076 32.6101 68.9707 36.7396C69.3827 37.7038 70.3543 38.0138 70.5957 39.066C70.8071 39.988 70.8407 40.9035 71.1125 41.8136C71.3881 42.736 70.2837 43.6009 69.8123 44.3516C69.0747 45.5263 68.7534 46.8553 68.3381 48.1631C68.2089 47.8112 68.1648 47.2179 67.8025 47.0106C67.3638 46.7599 67.3581 47.2833 67.0427 47.0474C66.6719 46.7701 66.3711 45.6873 66.1556 45.2561C65.8682 44.6808 65.5726 44.1091 65.2417 43.5575C63.891 41.3049 61.8098 39.5644 59.5511 38.2651C54.9387 35.6116 49.3849 35.3275 44.2462 36.2914C39.0853 37.2595 34.6039 39.8295 30.6128 43.1793C28.4026 45.0343 26.4529 47.0896 24.6985 49.3819C22.9753 51.6336 21.1948 53.8267 19.9272 56.3793C19.2154 57.8127 18.5709 59.2983 18.1727 60.8527C17.8637 62.059 17.5633 63.5236 17.9565 64.7471C18.293 65.7941 19.2655 66.3565 20.2471 65.676C21.1081 65.0787 21.4925 64.0001 22.0806 63.1735C22.1986 64.543 20.533 69.5841 22.9599 69.8214C24.752 69.9969 25.4091 65.8701 25.7888 64.6749C26.0431 66.2832 25.5627 68.0206 26.1668 69.5739C26.4597 70.3277 27.3745 71.6921 28.149 70.6094C28.4957 70.1245 28.5212 69.4333 28.6453 68.8691C28.8014 68.1582 28.9971 67.4563 29.1517 66.7448C29.5416 64.9519 29.759 63.1312 30.0601 61.3223C30.5667 62.4973 30.4711 64.6373 31.727 65.3652C33.0007 66.1033 33.5733 63.9927 33.7186 63.1385C33.9628 61.7023 33.846 60.231 34.0565 58.7893C34.2699 57.3288 34.7895 56.0119 35.5759 54.7665C38.3739 50.3362 43.621 46.9892 48.9009 46.7681C48.6162 47.8636 46.9909 50.6864 49.1132 50.7329C49.5916 50.7434 50.0302 50.6577 50.5152 50.7098C51.1117 50.7738 51.8214 51.0796 52.4175 51.0365C52.7792 51.0102 52.7653 50.8592 53.1361 51.0756C53.5246 51.3024 53.5757 51.6384 54.0007 51.1092C54.3207 51.7042 55.0672 51.8627 55.6319 52.1223C55.6385 51.9686 55.6453 51.815 55.6519 51.6611C56.002 52.1597 56.3816 52.2492 56.9181 52.4931C57.2615 52.6492 57.5035 52.6011 57.813 52.6817C58.1876 52.7791 58.3751 52.9862 58.7125 53.178C59.0784 53.386 59.72 53.3604 60.0009 53.6866C60.4979 54.2632 59.7297 55.237 59.4527 55.7299C58.674 57.1156 58.1606 58.7213 57.8232 60.2678C57.7371 60.6622 57.6547 60.941 57.7181 61.3323C57.7733 61.6728 57.875 61.4269 57.8123 61.7623C57.7901 61.881 57.5694 62.1306 57.5301 62.216C57.1965 62.9405 57.246 63.9011 57.2285 64.6825C57.1863 66.5506 57.4233 68.3171 57.9319 70.1133C58.1551 70.901 58.3518 71.7223 58.6333 72.491C58.8949 73.2051 59.2909 73.6413 59.1515 74.4133C58.8527 76.069 60.584 76.5179 61.529 77.5551C61.9571 78.0251 62.0334 78.6252 62.1299 79.2305C62.2682 80.1031 62.5557 80.905 62.9106 81.7138C63.5322 83.1308 64.3842 84.9809 65.5528 86.0273C66.0784 86.4978 66.5611 87.0185 67.1587 87.3697C67.4382 87.5339 67.7875 87.9357 68.099 88.013C68.3939 88.0861 68.2884 87.7723 68.6087 88.0318C68.8539 88.2304 68.8406 88.5261 69.1813 88.7513C69.5079 88.9673 69.8598 89.1478 70.2036 89.3344C70.9024 89.7134 71.6572 90.0721 72.2933 90.551C72.9091 91.0151 73.5224 91.5039 74.1413 91.9721C74.7108 92.4033 75.1107 92.9396 75.2948 93.6382C76.1035 96.7068 73.2685 99.3 70.8504 100.583C67.7209 102.244 64.1737 101.893 60.9547 100.685C57.6177 99.4317 54.3227 97.1328 52.3348 94.1348C51.8408 93.3898 51.3399 92.5917 50.9652 91.7784C50.7187 91.2435 50.648 90.5857 50.3165 90.0946C49.5729 88.9934 47.9759 90.5721 47.2027 90.9855C46.0643 86.1738 43.8784 80.7413 38.7961 79.0191C33.9788 77.3866 27.9428 79.3261 24.8127 83.2991C24.075 84.2355 23.0192 85.7529 23.516 87.0067C23.9483 88.0974 25.3713 88.344 26.3973 88.4534C27.8602 88.6096 29.3996 88.4219 30.8114 88.0248C31.174 87.9228 31.7951 87.632 32.1797 87.7443C32.7773 87.9189 32.7548 88.7888 33.0564 89.2418C33.3617 89.7004 33.8045 89.6521 33.9078 89.0638C34.0061 88.502 33.4896 87.9739 33.9266 87.475C34.1698 87.1973 34.9906 86.9678 35.3323 87.184C35.6182 87.3651 35.6438 87.9332 35.8709 88.1944C36.4971 88.915 36.5652 87.7471 36.6935 87.2544C36.8861 86.5137 37.728 85.9375 38.5452 86.2691C39.0565 86.4765 39.1845 87.2625 39.3169 87.7375C39.5875 88.7077 39.7738 89.6445 40.1402 90.5898C40.4199 91.3111 41.6049 93.3199 41.0366 94.0235C40.6856 94.4581 39.7994 94.7015 39.2899 94.8691C38.5799 95.1029 37.7282 95.2426 37.0766 95.6102C36.7701 95.7832 36.0943 96.2548 35.9997 96.6122C35.8394 97.2179 36.5755 97.245 36.9179 96.9378C37.9895 100.119 39.2547 103.248 41.2226 105.99C43.1973 108.742 45.7612 111.023 48.4635 113.037C53.7482 116.977 59.9645 119.601 66.548 120.226C69.9154 120.546 73.3971 120.265 76.5844 119.096C76.9439 118.964 77.3087 118.811 77.6888 118.749C78.0331 118.693 78.3864 118.812 78.7197 118.756C79.1522 118.685 79.0362 118.518 79.3109 118.286C79.5647 118.073 79.9607 117.999 80.2416 117.815C81.6412 116.896 82.9108 115.604 84.005 114.346C86.0606 111.982 88.0979 109.036 89.0661 106.032C90.0392 103.014 90.0855 99.8077 90.3782 96.6785C90.5594 94.7431 89.9768 92.945 89.6591 91.0534C89.3338 89.1162 88.9535 87.2114 88.5062 85.3015C88.3291 84.5463 88.3277 83.9998 88.9198 83.45C89.381 83.0221 89.9573 82.6853 90.5706 82.9769C91.2127 83.2825 91.7946 83.9491 92.3811 84.3633C92.9857 84.7904 93.2689 85.3601 93.871 84.6489C93.871 85.2663 94.1684 85.452 94.6879 85.655C95.3848 85.9274 96.0355 86.2188 96.666 86.6331C98.0295 87.5293 99.0597 88.8853 99.8293 90.3092C100.65 91.8275 101.594 93.3814 102.164 95.0142C102.785 96.794 102.863 98.8005 102.926 100.67C102.991 102.624 103.011 104.592 102.899 106.545C102.794 108.391 102.691 110.466 102.147 112.24C101.547 114.197 99.6043 116.414 102.232 117.72C104.075 118.635 106.308 118.414 108.122 119.356C107.888 119.731 107.731 120.155 107.476 120.517C107.155 120.974 106.869 120.97 106.374 121.153C105.466 121.488 105.905 122.034 105.812 122.752C105.729 123.39 104.876 124.117 104.469 124.586C103.857 125.292 103.223 125.991 102.729 126.789C101.657 128.517 101.658 130.401 102.639 132.168C103.502 133.721 104.735 135.487 106.251 136.451C107.905 137.503 109.856 138.411 111.672 139.142C113.305 139.799 115.032 140.219 116.779 140.431C118.088 140.589 119.889 140.743 120.937 139.757C121.898 138.853 122.125 137.415 121.675 136.214C120.62 133.397 117.395 131.702 115.051 130.107C115.794 129.847 116.773 129.76 117.35 129.168C118.071 128.428 117.405 127.794 116.576 127.802C115.858 127.81 115.125 128.044 114.442 128.252C113.834 128.436 112.719 128.952 112.104 128.58C111.291 128.089 112.181 127.593 112.619 127.371C113.443 126.954 113.398 126.424 112.6 125.99C111.312 125.288 113.158 125.257 113.351 124.625C113.594 123.825 112.58 123.056 112.651 122.184C112.718 121.351 112.975 119.888 113.625 119.292C114.073 118.881 114.841 118.918 115.404 118.827C116.314 118.679 117.205 118.408 118.083 118.128C118.35 119.698 119.599 118.287 120.091 117.66C121.019 116.479 121.403 115.05 121.893 113.655C122.444 112.084 122.913 110.542 123.205 108.899C123.523 107.109 123.374 105.386 123.107 103.599Z" fill="#1C1C1C"/>
<path fill-rule="evenodd" clip-rule="evenodd" d="M61.5139 122.417C61.2587 122.705 60.0367 122.307 59.7013 122.265C58.7055 122.141 57.7721 122.173 56.7868 121.924C56.0321 121.733 54.9261 121.313 54.1907 121.425C54.129 121.434 54.201 121.64 54.096 121.638C53.9593 121.637 53.8862 121.536 53.7495 121.484C53.4255 121.359 53.1697 121.078 52.8293 121.323C52.6683 120.562 52.3904 121.229 52.0081 121.223C51.6052 121.217 51.7526 120.737 51.3301 120.675C50.9947 120.626 50.8546 120.834 50.4836 120.691C49.9696 120.493 49.6052 120.204 49.0409 120.066C48.4027 119.91 47.981 119.687 47.3938 119.426C46.8803 119.199 46.3111 119.126 45.7904 118.912C44.4433 118.357 43.1239 117.671 41.8444 116.976C39.41 115.656 37.0066 114.413 34.8187 112.691C34.0179 112.061 33.4532 111.362 32.8186 110.578C32.3878 110.045 31.6465 109.022 30.8412 109.191C31.0296 108.669 30.5272 108.216 30.1965 107.894C29.6855 107.396 29.2499 106.871 28.8272 106.293C28.4294 105.749 28.1501 105.2 27.9035 104.578C27.7164 104.107 27.5956 103.636 27.0825 104.108C26.0603 105.047 27.3725 106.9 27.9396 107.725C28.8772 109.09 29.8106 110.478 30.9267 111.704C33.0081 113.991 35.38 116.073 38.0492 117.638C39.4284 118.447 40.8815 119.162 42.3778 119.726C43.7145 120.229 45.0346 120.494 46.4064 120.853C47.2236 121.068 48.0012 121.352 48.8352 121.501C49.1595 121.56 49.4785 121.638 49.8083 121.655C49.8937 121.659 50.0347 121.547 50.089 121.552C50.2202 121.564 50.3204 121.684 50.5122 121.726C50.7409 121.776 50.9675 121.755 51.1457 121.831C51.2183 121.862 51.3971 122.088 51.5867 122.158C51.8954 122.272 52.1339 122.325 52.4503 122.229C52.7181 122.147 52.9358 121.867 53.2362 121.895C53.1944 122.075 53.1522 122.255 53.1102 122.435C53.416 122.317 53.5586 122.424 53.8393 122.369C53.785 122.38 54.4268 122.232 54.3622 122.215C54.4067 122.227 54.5722 122.53 54.7314 122.606C55.3891 122.918 56.1917 122.685 56.8866 122.738C57.5999 122.792 58.3 122.896 59.0188 122.948C59.5478 122.986 62.0338 123.307 62.0883 122.401C61.8953 122.356 61.7039 122.361 61.5139 122.417Z" fill="#1C1C1C"/>
<path fill-rule="evenodd" clip-rule="evenodd" d="M128.525 39.1196C128.73 37.362 128.146 35.8949 127.691 34.2432C127.319 32.8899 126.857 31.5417 125.913 30.4563C125.056 29.4703 123.759 28.2101 122.369 28.1433C121.289 28.0913 120.551 28.9371 121.494 29.7198C122.434 30.5008 123.288 31.0056 124.032 32.0242C124.888 33.1976 125.534 34.5222 126.013 35.8898C126.886 38.3814 127.381 41.3195 126.556 43.8789C126.474 44.1327 126.151 44.8584 126.474 45.0623C126.845 45.2955 127.131 44.7373 127.232 44.4983C127.327 44.2755 127.751 42.1669 128.128 42.4484C128.104 42.1582 127.979 42.0223 127.997 41.7357C128.007 41.5699 128.15 41.3343 128.163 41.1197C128.206 40.4161 128.444 39.8098 128.525 39.1196Z" fill="#1C1C1C"/>
<path fill-rule="evenodd" clip-rule="evenodd" d="M63.5605 29.9278C64.6942 29.9525 64.7334 27.4084 65.0865 26.7182C65.2523 26.3942 65.4246 26.0043 65.6082 25.7022C65.7508 25.4677 65.9252 25.4324 66.0297 25.2461C66.3782 24.6276 66.1359 24.1361 65.9797 23.5381C66.3914 23.4719 66.5312 23.4736 66.6791 23.0619C66.7229 22.9403 66.6184 22.7197 66.7051 22.6281C66.8243 22.5022 67.0258 22.5704 67.1472 22.4647C67.1788 22.437 67.1668 22.1717 67.2053 22.0722C67.2919 21.8472 67.3611 21.761 67.528 21.5891C67.7525 21.3575 68.3634 21.2316 68.161 20.8264C68.312 20.82 68.4558 20.7848 68.5927 20.7208C68.6367 20.5186 68.2251 20.5954 68.2586 20.4792C68.3297 20.2326 68.7166 19.9081 68.9616 19.8577C68.7525 19.7488 68.5436 19.6398 68.3347 19.5307C68.8597 19.4202 68.8451 19.1083 69.3796 19.4623C69.321 18.9683 69.9947 18.5149 70.2867 18.1967C70.8357 17.5987 71.4501 17.0915 72.0571 16.5532C72.5849 16.0853 73.0729 15.5864 73.5656 15.0829C73.8174 14.8253 74.0737 14.5715 74.3632 14.3561C74.6589 14.136 74.89 14.1792 75.162 14.0287C75.5962 13.7886 75.8591 13.3015 76.2957 13.0567C76.4923 12.9463 76.5764 13.0712 76.7196 12.933C76.8533 12.8038 76.9744 12.3777 76.8965 12.2128C76.5691 11.5188 74.202 13.3597 73.8304 13.599C69.317 16.5068 65.6834 20.5149 63.7064 25.5439C63.4378 26.2273 61.9064 29.8917 63.5605 29.9278Z" fill="#1C1C1C"/>
<path fill-rule="evenodd" clip-rule="evenodd" d="M62.2668 122.855C62.5746 122.788 62.8839 122.721 63.3391 122.622C62.5256 122.176 62.459 122.198 62.2668 122.855Z" fill="#1C1C1C"/>
<path fill-rule="evenodd" clip-rule="evenodd" d="M78.2125 42.4343C78.8178 42.3769 80.1384 41.7521 79.9387 40.9003C79.7544 40.1139 79.041 40.9612 78.553 40.8726C78.0315 40.778 77.7895 39.6641 77.3513 40.8002C77.116 41.4103 77.463 42.5052 78.2125 42.4343Z" fill="#1C1C1C"/>
</svg>
