<svg width="158" height="158" viewBox="0 0 158 158" fill="none" xmlns="http://www.w3.org/2000/svg">
<circle cx="78.971" cy="79.0949" r="78.2104" fill="white"/>
<path fill-rule="evenodd" clip-rule="evenodd" d="M54.5193 68.514C54.9932 73.3182 55.4672 78.1226 55.941 82.9266C58.5212 81.4485 61.1015 79.9702 63.6816 78.492V89.4367V92.3134C63.6816 92.568 63.5311 93.4424 63.6816 93.6629C63.8093 93.8498 64.7547 93.8552 64.9783 93.8867C66.4371 94.0918 67.8995 94.2742 69.3639 94.4365C73.2235 94.8645 77.3543 95.4776 81.2287 94.9859C84.5964 94.5584 87.8613 93.3557 90.9381 91.9564C92.0183 91.4651 93.0835 90.9392 94.1289 90.3773C94.3505 90.2582 95.1551 89.9769 95.2756 89.7345C95.374 89.5363 95.143 88.8402 95.1122 88.632C94.9823 87.7541 94.8522 86.8762 94.7222 85.9985L92.9063 73.7406L96.3366 77.1798C96.6053 77.4492 97.1156 78.2142 97.4875 78.3336C97.7601 78.4212 98.4352 78.1501 98.7048 78.0982C100.647 77.7223 102.589 77.3464 104.532 76.9707C104.984 76.8831 106.004 76.8864 106.386 76.612C106.591 76.4641 106.601 76.1633 106.673 75.8782C107.147 74.0147 107.621 72.1513 108.094 70.2881C108.18 69.9524 108.656 68.8942 108.535 68.5561C108.491 68.4351 108.281 68.3522 108.153 68.2732C105.221 66.4755 102.29 64.6777 99.3581 62.88C97.7521 61.8952 96.1461 60.9104 94.5402 59.9256C93.8676 59.513 93.0412 58.7697 92.279 58.5389C91.8058 58.3957 91.1174 58.503 90.6278 58.4889C89.6326 58.4604 88.6378 58.4319 87.6427 58.4034C87.4869 58.399 86.9413 58.2875 86.8101 58.3796C86.701 58.4563 86.7463 58.5631 86.7105 58.7459C86.623 59.1923 86.6224 59.6736 86.5792 60.1267C86.5446 60.4903 86.6133 61.1571 86.4502 61.4862C86.3459 61.6966 86.4781 61.6128 86.3371 61.7145C86.1691 61.8355 85.633 61.7966 85.4332 61.8198C84.4581 61.9336 83.4831 62.0472 82.508 62.1609C81.3488 62.2961 80.1766 62.5498 79.012 62.4329C77.2464 62.2559 75.3426 62.2647 73.6088 61.8913C73.1583 61.7942 72.996 61.5393 72.6484 61.1909C71.9701 60.5108 71.2986 59.8228 70.6127 59.1499C70.2766 58.8201 70.4206 58.8761 70.074 59.0011C69.6398 59.1578 69.1993 59.536 68.8063 59.7764C67.3004 60.6973 65.7945 61.6184 64.2885 62.5393L55.0947 68.1621C54.9028 68.2794 54.7111 68.3967 54.5193 68.514Z" fill="#F0DD33"/>
<path fill-rule="evenodd" clip-rule="evenodd" d="M142.457 69.1113C140.562 76.3354 136.75 84.2124 129.071 86.5151C127.204 87.0749 125.387 87.4976 123.448 87.2844C123.264 87.2641 123.109 87.2901 122.934 87.2934C122.619 87.2995 122.891 87.4129 122.538 87.3036C122.263 87.2183 122.005 87.0051 121.719 86.9108C120.957 86.6605 120.144 86.6121 119.37 86.4098C117.467 85.9128 115.506 85.2992 113.662 84.6137C112.794 84.2911 111.996 83.8416 111.179 83.4093C110.349 82.97 109.469 82.697 108.63 82.2941C107.966 81.9755 106.83 81.5605 106.364 80.9629C105.866 80.3257 106.554 78.9692 106.751 78.2918C107.42 75.9869 108.216 73.7157 108.719 71.3648C110.455 73.3846 112.864 74.6354 115.358 75.4421C116.711 75.8799 118.103 76.1963 119.511 76.3944C120.789 76.5741 122.168 76.7917 123.449 76.5365C124.416 76.3438 125.629 75.8975 126.32 75.1564C126.567 74.8918 126.862 74.4069 126.724 74.0226C126.549 73.5348 126.038 73.7644 125.762 73.4004C125.521 73.0832 125.559 72.3415 125.482 71.9554C125.346 71.2719 125.16 70.6073 124.932 69.9494C124.49 68.6721 123.94 67.3919 123.808 66.0327C123.693 64.8535 123.96 63.7383 124.546 62.7151C124.823 62.2314 125.519 60.9154 126.197 60.9701C126.942 61.0301 125.937 64.1834 125.904 64.8267C125.774 67.3765 126.115 70.0936 127.418 72.3285C127.917 73.1843 128.639 74.1806 129.704 74.2867C130.833 74.3989 131.743 73.5075 132.28 72.6055C133.591 70.405 132.93 67.3853 132.266 65.079C131.452 62.2493 129.327 60.2989 127.983 57.7576C129.989 57.96 131.064 59.2396 132.093 60.8631C133.227 62.6504 134.109 64.7962 134.544 66.8759C134.764 67.9266 134.612 68.9817 134.614 70.0428C134.614 70.3953 134.614 71.6957 135.187 71.6444C135.798 71.5897 136.008 70.1231 136.098 69.6756C136.304 68.6494 136.528 67.623 136.707 66.5917C137.023 64.767 137.164 62.8982 137.544 61.086C137.608 60.7798 137.736 59.9299 138.192 60.1593C138.545 60.336 138.488 61.6505 138.501 61.956C138.533 62.7089 138.577 63.4618 138.583 64.2154C138.592 65.3324 138.37 66.4887 138.479 67.5989C138.55 68.3243 138.938 69.1258 139.419 68.1476C139.895 67.1773 139.993 65.9674 140.258 64.924C140.538 63.8285 140.826 62.7169 141.418 61.7439C141.583 61.474 141.76 61.0454 142.125 61.1724C142.39 61.2649 142.586 61.8965 142.668 62.1194C143.039 63.127 142.976 64.2472 142.952 65.3019C142.924 66.5944 142.786 67.8582 142.457 69.1113ZM105.5 70.986C105.399 70.9531 104.969 70.9122 104.862 70.9028C104.737 70.8919 104.879 70.6605 104.576 70.7262C104.635 70.8717 104.739 70.9687 104.888 71.0174C104.433 71.1719 104.097 70.7902 103.786 70.7411C103.488 70.6941 103.476 70.7411 103.182 71.0568C102.863 70.667 102.923 70.9101 102.661 70.9102C102.566 70.9104 102.562 71.0548 102.407 71.0375C102.271 71.0224 102.257 70.8163 102.177 70.792C101.743 70.66 101.296 71.3241 100.803 70.7481C100.684 71.3474 99.3166 70.5967 98.7904 70.702C98.2389 70.8122 98.4768 71.0107 98.0311 70.6714C97.6063 70.3481 97.7248 70.5629 97.2308 70.8275C97.2423 70.8213 96.9519 71.0181 96.9789 71.0213C96.6369 70.9811 96.6564 70.6262 96.2233 70.645C95.7649 70.665 95.5692 71.0258 95.1496 70.5818C95.0584 70.9143 95.0395 70.7711 94.8246 70.8549C94.7063 70.8831 94.6029 70.8519 94.5141 70.7614C94.4873 70.8528 94.4282 70.9088 94.3368 70.9295C94.1027 70.9505 93.6631 70.9833 93.4505 70.8701C93.1314 70.7002 93.3878 70.6349 93.1666 70.4438C93.0674 70.9707 92.85 70.8587 92.3915 70.9079C92.0418 70.9455 91.9647 70.8378 91.6306 70.7853C91.3016 70.7338 90.8764 70.862 90.5554 70.9166C90.4228 70.9393 90.2455 71.0321 90.1105 70.9995C89.989 70.9701 89.937 70.8754 89.8644 70.8505C89.7762 70.8208 89.7949 70.7434 89.6427 70.7058C89.5376 70.6802 89.3495 70.779 89.2446 70.7961C88.4963 70.9181 87.7777 70.9193 87.0639 70.6238C87.4154 71.2441 86.2422 70.9092 86.033 70.6523C85.7716 71.0636 85.4552 70.7732 84.9283 70.8053C84.4209 70.8363 83.6576 70.9924 83.4519 70.3578C83.4116 70.4867 83.1236 70.8611 83.009 70.9182C82.6763 71.0837 82.6366 70.8388 82.3274 70.7391C81.9064 70.6033 81.9943 70.8611 81.7331 70.9134C81.2926 71.002 81.0544 70.6905 80.665 70.5248C80.6485 70.7823 80.6401 70.9407 80.4183 71.101C80.222 70.3832 79.5212 71.1598 79.6415 70.2004C79.3748 70.3747 78.9997 70.5086 78.9238 70.8611C79.3696 70.7379 78.9713 71.0305 78.9526 71.0402C78.8937 71.0712 78.6946 70.7906 78.6485 70.7511C78.6358 70.8834 78.6233 71.0158 78.6107 71.1481C78.4331 71.059 78.2663 70.8993 78.1221 70.8193C77.9922 70.7473 78.1783 70.5973 77.9588 70.587C77.8432 70.5814 77.7225 70.8329 77.6011 70.8544C77.4155 70.887 77.5047 70.6197 77.4269 70.6286C77.3086 70.6423 77.1157 70.8161 77.0262 70.8128C76.7328 70.8019 76.9314 70.6647 76.7074 70.6018C76.3073 70.4894 76.3329 70.7522 76.0453 70.8469C75.387 71.0639 75.4531 70.0655 74.7836 70.7314C74.6233 70.8907 74.5202 71.1368 74.3007 71.123C73.8463 71.0943 74.0058 70.5535 74.0982 70.2886C74.1937 70.3359 72.4377 71.2415 72.4516 71.206C72.4626 70.9889 72.7389 70.8214 72.4921 70.6285C72.2903 71.0633 72.0779 71.0708 71.6124 71.1518C71.3862 71.1912 71.3416 71.2438 71.0995 71.1493C70.9453 71.0893 70.8417 70.8423 70.6884 70.8287C70.7091 70.8307 70.4276 71.0457 70.3847 71.0649C70.1307 71.18 69.9699 71.0496 69.7232 71.0969C69.5126 71.1372 69.4297 71.317 69.2204 71.2677C68.941 71.2021 69.1051 70.867 68.7206 70.9605C68.5892 70.9925 68.5102 71.2468 68.3031 71.2992C67.9803 71.3814 67.5847 71.2283 67.2436 71.3082C66.9728 71.3717 66.7719 71.3985 66.5351 71.4117C66.3438 71.4224 66.4225 71.273 66.0703 71.4494L65.9211 71.0715C65.7448 71.2307 65.5685 71.3897 65.3922 71.549C65.3588 71.4062 65.3375 71.2618 65.3286 71.1154C65.0657 71.3798 64.7347 71.425 64.3812 71.4488C63.9986 71.4746 63.7135 71.5582 63.3411 71.6285C63.2234 71.6507 62.9202 71.6861 62.8234 71.6447C62.8376 71.6508 62.6423 71.5693 62.7011 71.5847C62.6758 71.5329 62.6522 71.4802 62.6305 71.4265C62.5976 71.2774 62.4907 71.2709 62.3102 71.4068C62.2168 71.3924 62.0357 71.2694 61.9425 71.2997C61.7024 71.3779 61.735 71.5649 61.4958 71.5374C61.3405 71.5196 61.2612 71.2892 61.0996 71.2736C60.8522 71.2498 60.6377 71.5278 60.4148 71.5884C61.0926 71.4036 59.5357 71.547 60.0198 71.5597C59.7023 71.5514 59.3729 71.5356 59.0796 71.6784C58.9175 71.5672 59.1143 71.3435 58.9505 71.2515C58.802 71.168 58.7905 71.3885 58.7732 71.3933C58.8669 71.3667 58.8201 71.5543 58.7264 71.5876C58.4343 71.6916 58.2005 71.4273 58.1854 71.1651C57.9373 71.5402 57.8676 71.3894 57.5026 71.4126C57.1426 71.4355 56.8321 71.6249 56.472 71.6214C55.7597 71.6146 55.2764 71.3661 55.0387 70.7276C55.7976 70.8205 56.5615 70.3304 57.3037 70.4459C57.5476 70.4838 57.6999 70.6677 57.9136 70.635C58.1768 70.5949 58.3607 70.3065 58.6983 70.2754C59.4429 70.2071 60.1769 70.2736 60.9266 70.159C61.8221 70.022 62.7565 69.941 63.6606 70.0076C64.3593 70.0593 64.925 69.7911 65.6335 69.7394C66.5496 69.6724 67.4731 69.6606 68.3908 69.6123C69.3336 69.5625 70.3482 69.4115 71.2884 69.46C71.5819 69.475 71.8346 69.5039 72.1259 69.4863C72.2491 69.4789 72.3657 69.3948 72.4949 69.4074C72.6634 69.4237 72.7357 69.5968 72.9103 69.5907C73.2071 69.5806 73.5243 69.3351 73.8771 69.3284C74.4571 69.3174 75.0346 69.3187 75.6162 69.2855C76.1281 69.2563 76.6766 69.1363 77.1863 69.1428C77.5459 69.1473 77.6346 69.4548 77.8441 69.4866C78.2209 69.5436 80.1266 68.4548 80.2913 69.4321C81.2834 68.7503 82.6139 69.3275 83.7183 69.1995C85.1369 69.0349 86.5817 69.1816 88.01 69.1229C89.4633 69.0634 90.9585 69.1185 92.4062 69.2561C93.0058 69.3131 93.5851 69.3666 94.1864 69.3321C94.4545 69.3166 94.7644 69.2479 95.0324 69.3099C95.0973 69.3251 95.5945 69.6735 95.5328 69.6835C95.8043 69.4387 95.6206 69.4028 96.0983 69.3902C96.4666 69.3805 96.8148 69.4604 97.181 69.4822C97.8383 69.5212 98.5005 69.4298 99.1563 69.45C99.7039 69.4668 100.239 69.5479 100.79 69.5518C101.383 69.5562 102.084 69.573 102.513 70.0532C102.468 69.9025 102.423 69.7517 102.377 69.6009C103.039 69.6529 103.694 69.8902 104.363 69.7793C104.194 69.9422 104.022 70.0752 103.957 70.3142C104.318 70.2681 104.563 70.0151 104.943 70.0131C105.262 70.0111 105.329 70.1719 105.666 69.9641C105.707 70.2187 105.749 70.4733 105.79 70.7278C106.257 70.6174 105.951 70.268 105.985 69.9529C106.364 70.0673 106.686 69.936 106.536 70.4839C106.421 70.9064 105.895 71.1146 105.5 70.986ZM104.844 75.6923C104.681 76.1515 103.273 75.8891 102.94 75.8405C102.51 75.7781 102.018 75.6788 101.622 75.6295C101.574 75.5659 101.517 75.5119 101.451 75.4675C101.401 75.5373 101.338 75.5868 101.262 75.6158C101.08 75.6558 101.079 75.8443 100.84 75.8026C100.829 76.0816 101.022 75.9231 101.17 76.0243C100.798 76.2751 100.968 75.9864 100.759 75.991C100.707 75.9172 100.635 75.8882 100.543 75.9041C100.425 75.9348 100.316 75.9854 100.217 76.056C100.124 76.1548 100.044 76.1598 99.9774 76.0714C99.9137 76.0072 99.8361 75.9675 99.7444 75.9525C99.3773 76.0123 99.2746 76.1759 98.8612 76.1492C98.2706 76.111 97.6317 76.2672 97.0503 76.1849C96.69 76.134 96.0879 75.5656 95.9243 76.1196C95.6753 75.709 95.2785 75.4295 95.04 75.0099C96.151 74.9453 97.2616 74.8685 98.3736 74.8282C99.3471 74.793 100.412 74.9031 101.322 74.857C102.174 74.8138 103.077 74.7192 103.947 74.6412C104.869 74.5584 105.174 74.7617 104.844 75.6923ZM75.8607 75.76C76.2641 75.8722 76.6483 75.618 77.0395 75.6983C77.1688 75.7249 77.4366 75.9613 77.4955 75.966C77.6032 75.9746 77.9199 75.7424 78.0557 75.7114C78.915 75.515 79.956 75.5359 80.8151 75.6565C81.2704 75.7203 81.3403 75.5112 81.7377 75.4097C82.1506 75.3039 82.7378 75.3853 83.1726 75.3562C84.1958 75.2874 85.2186 75.3363 86.2348 75.2611C87.2781 75.184 88.3162 75.1423 89.3599 75.0884C90.071 75.0517 91.7796 74.6445 92.3689 75.1745C92.8549 75.6114 92.2288 76.37 91.7428 76.5432C91.3792 76.6723 91.2051 76.4 90.9353 76.4261C90.628 76.4556 90.7351 76.8201 90.4609 76.482C90.2909 76.8182 89.2226 76.6749 88.9165 76.6972C88.2494 76.7455 87.685 76.8799 87.2308 76.2551C87.2616 76.4351 87.2924 76.6155 87.3232 76.7957C86.7211 76.4726 86.0748 76.5759 85.5521 76.6887C85.2933 76.7444 84.4987 77.1298 84.2183 76.9636C84.0254 76.8493 84.3655 76.6538 84.0399 76.5562C83.8693 76.505 83.5749 76.7894 83.3664 76.7752C82.7895 76.7353 82.9532 76.3459 82.3866 76.8416C82.1946 76.6749 82.1307 76.3915 82.1561 76.1486C81.7445 76.5011 81.7789 77.0886 81.0429 76.981C80.7687 76.941 80.7183 76.6602 80.5753 76.6084C80.2707 76.4979 80.2362 76.6964 79.9723 76.8535C79.8727 76.9128 79.7512 77.0081 79.6339 77.0201C79.393 77.0442 79.3548 76.9331 79.3218 76.9367C79.1615 76.9545 78.9595 77.0363 78.7694 76.9778C78.5986 76.9254 78.5487 76.6229 78.248 76.6937C77.9602 76.7614 77.9578 76.9577 78.01 77.2515C77.7261 77.222 77.5545 77.0633 77.3421 76.8913C77.1278 77.3933 76.6765 76.9775 76.4268 77.4011C76.1017 77.0113 75.8931 77.1186 75.4897 76.7379C75.5096 76.8967 75.5294 77.0556 75.549 77.2145C75.2343 77.1536 75.0942 76.9307 74.8255 77.2256C74.5649 76.7381 73.7746 77.4327 73.3686 76.9619C73.1876 77.5582 71.9904 77.4156 71.4847 77.4259C71.0366 77.4352 70.7048 77.3983 70.267 77.5028C69.8801 77.595 69.3438 77.6908 68.9799 77.6485C68.7422 77.621 68.4823 77.5772 68.186 77.6096C67.759 77.656 67.3901 77.878 66.9477 77.773C66.2817 77.6149 65.8734 76.7364 66.6152 76.3506C67.123 76.0866 68.0376 76.1843 68.5964 76.1355C69.5224 76.0548 70.5602 75.8855 71.4874 75.9625C72.2107 76.0225 72.87 75.8493 73.6079 75.7761C74.1635 75.7211 75.0741 75.6218 75.4365 76.1746C75.5756 76.0132 75.5612 75.6768 75.8607 75.76ZM65.7235 83.3274C65.624 82.8302 69.8576 82.5564 70.2778 82.524C71.1601 82.4556 72.0447 82.407 72.929 82.3844C73.6559 82.3659 74.3344 82.5052 75.0615 82.3932C75.7405 82.2886 76.5601 82.0742 77.1512 82.5569C77.2381 81.8967 79.7865 82.2183 80.2713 82.2201C82.3819 82.2277 84.4014 82.2327 86.4428 82.1015C87.6095 82.0265 88.8484 81.9255 90.0153 81.9842C90.5416 82.0107 90.9655 82.1515 91.4888 82.0292C91.8302 81.9496 92.198 81.7837 92.5246 82.0181C92.9066 82.2927 93.07 83.2247 92.8067 83.6137C92.615 83.8971 92.4452 83.8657 92.139 83.8166C91.6682 83.7415 91.3183 83.632 90.8382 83.8242C90.916 83.793 90.5166 83.8825 90.5496 83.88C90.0058 83.9207 89.2599 84.3022 88.7912 83.8625C88.979 83.8956 89.2519 83.559 89.0152 83.5313C88.8374 83.5107 88.7247 83.7019 88.586 83.766C88.1114 83.9851 87.8686 83.9166 87.5852 83.4569C87.0138 83.9535 86.9522 83.816 86.7014 83.2045C86.5082 83.3538 86.4667 83.7072 86.3147 83.823C86.292 83.8403 86.3856 84.0548 86.2759 84.0461C86.174 84.0377 86.1406 83.8701 86.0623 83.8569C86.0123 83.8484 85.9862 83.7014 85.9384 83.6925C85.8865 83.6828 85.8332 83.7766 85.7743 83.7739C85.6173 83.7665 85.1683 84.102 85.3293 83.6311C85.0913 83.935 84.989 83.7413 84.9031 83.4647C84.6284 83.6745 84.3538 83.8841 84.079 84.0936C83.9513 83.7371 83.7314 83.8342 83.4549 83.9588C83.5382 83.7111 83.486 83.4769 83.2769 83.649C83.1557 83.7487 83.0745 84.0651 82.9506 84.1996C82.449 83.6896 82.2667 83.8295 81.5738 83.8959C81.3093 83.921 80.9806 83.9701 80.7444 83.8097C80.5365 83.6687 80.4191 83.1513 80.0638 83.5693C80.143 83.4764 80.019 84.1905 79.9971 84.3038C79.8404 84.1979 79.7073 84.0674 79.5977 83.9128C79.3933 84.3191 78.8566 83.9545 78.4169 84.0376C77.7246 84.1684 77.0105 84.3885 76.3989 83.8712C76.3557 84.0382 75.8548 84.2509 75.854 84.2575C75.8838 83.9616 76.0696 84.0656 75.6901 84.0095C75.6202 83.9992 75.541 84.1253 75.475 84.1391C75.2488 84.1861 74.9845 84.1415 74.7564 84.135C73.8078 84.1076 72.9394 84.3187 72.0027 84.3952C71.687 84.4208 71.3124 84.4714 71.0159 84.352C70.7106 84.2287 70.7189 84.0888 70.4099 84.1682C70.5077 84.1432 70.2169 84.4499 70.2326 84.4384C70.1911 84.4687 70.0178 84.319 69.9562 84.3302C69.9382 84.3957 69.9203 84.461 69.9023 84.5264C69.8277 84.5172 69.7533 84.508 69.6789 84.4989C69.4752 84.5263 69.2915 84.3193 69.1001 84.3123C69.1353 84.3135 68.5836 84.5198 68.6088 84.5324C68.2236 84.3394 68.3342 84.3954 67.8456 84.5128C67.3838 84.6237 66.924 84.5978 66.4502 84.6671C65.072 84.868 65.8931 84.1746 65.7235 83.3274ZM64.5063 90.2455C64.2472 89.8765 64.9367 89.7489 65.157 89.7163C65.5191 89.6627 65.9997 89.7693 66.2411 89.7116C66.6086 89.6239 66.9634 89.4143 67.3771 89.3575C67.8994 89.2858 68.4257 89.2741 68.9501 89.2293C69.1247 89.2141 69.341 89.1538 69.5109 89.1639C69.7641 89.1792 69.8691 89.3137 70.0735 89.3146C70.4215 89.3164 70.8509 89.0957 71.2076 89.0553C71.6643 89.0033 72.1258 88.9789 72.5847 88.956C73.5518 88.9078 74.5089 88.9278 75.4755 88.9268C75.9164 88.9262 77.0903 88.4669 77.3101 88.9818C77.6158 88.5916 78.3997 88.6448 78.8367 88.6334C79.6064 88.6135 80.3682 88.539 81.1374 88.5031C81.7959 88.4723 82.5317 88.6138 83.1785 88.5147C83.5349 88.4602 83.6531 88.3455 84.0571 88.3973C84.3575 88.4355 84.8153 88.2762 85.0731 88.3467C85.0596 88.343 85.3947 88.5514 85.2901 88.5581C85.4053 88.5507 85.3985 88.6314 85.5254 88.5954C85.692 88.5482 85.6155 88.3377 85.961 88.263C86.4999 88.1463 87.2185 88.2814 87.7783 88.2514C88.3214 88.2224 88.8637 88.2098 89.4073 88.2124C89.6576 88.2135 89.9672 88.1535 90.2106 88.2026C90.3299 88.2265 90.5834 88.3829 90.6846 88.3671C90.971 88.3221 91.117 88.1224 91.5043 88.1348C91.9434 88.1488 92.3385 88.1427 92.7752 88.1091C93.1978 88.0766 93.2657 88.016 93.4752 88.3691C93.6829 88.7195 93.7401 89.1756 93.3579 89.4137C93.6062 89.3973 93.9116 89.7312 93.6191 89.9159C93.4382 90.0302 93.0757 89.7724 92.8593 89.7909C92.5925 89.8139 92.3832 89.9555 92.0931 89.9642C91.7879 89.9736 91.478 90.0508 91.1772 90.0567C90.8637 90.0627 90.6268 89.9221 90.3294 89.982C90.0678 90.0349 90.0402 90.25 89.7252 90.0611C89.5687 89.967 89.5423 89.6187 89.3287 89.6155C89.0425 89.6111 89.1566 89.9823 88.9921 90.1543C88.9479 89.6234 88.5398 90.5018 88.3775 89.8574C88.2279 90.0714 87.6741 90.3707 87.4058 90.1988C87.1613 90.0421 87.2425 89.6877 87.1406 89.4322C86.9709 89.8912 86.516 90.3675 86.5572 89.5317C86.3361 89.805 85.7388 89.7618 85.8886 90.2397C85.7085 90.2363 85.6659 89.9782 85.5144 89.9586C85.3835 89.9418 85.2797 90.0427 85.2596 90.0412C85.3313 90.0473 85.0454 90.1428 85.0409 90.1438C85.2346 90.1043 84.4826 90.037 84.6106 90.038C84.4361 90.0367 84.2225 90.18 84.0185 90.1796C83.8327 90.1791 83.6478 90.1056 83.4642 90.0847C82.9886 90.0302 83.0876 90.135 82.7889 90.2851C82.6783 90.3405 82.6505 90.4346 82.4934 90.423C82.3775 90.4142 82.3342 90.2623 82.321 90.2611C82.158 90.2446 82.2785 90.1896 82.0254 90.215C81.9962 90.2652 81.9674 90.3152 81.9383 90.3654C81.8469 90.4828 81.7283 90.5121 81.5828 90.4536C81.2082 90.5342 79.966 90.8838 80.0876 90.2364C79.8973 90.3298 79.707 90.4233 79.5166 90.5168C79.435 89.9947 78.4008 90.6868 78.1698 90.7218C77.8734 90.7663 77.8461 90.6522 77.5659 90.5915C77.5154 90.5806 77.4141 90.7479 77.2958 90.7238C76.9883 90.6618 76.9335 90.631 76.8808 90.2958C76.6617 90.7072 76.4795 90.5233 76.0819 90.5909C75.9939 90.6059 75.9378 90.7797 75.8115 90.7497C75.7204 90.7282 75.718 90.5612 75.6552 90.5396C75.5988 90.5201 75.6072 90.3883 75.5241 90.3696C75.4287 90.3479 75.1034 90.6157 75.0101 90.6571C74.7997 90.7501 74.4541 90.9043 74.2487 90.8582C73.9946 90.8012 74.1077 90.6121 73.7488 90.6334C73.1826 90.6666 72.9464 91.1505 72.5941 90.3881C72.4352 90.6935 72.4554 90.7764 72.2 90.8771C72.0113 90.9515 71.5335 90.8738 71.285 90.8645C70.2241 90.8253 69.181 91.1882 68.1288 91.0932C67.6663 91.0514 67.2763 90.9585 66.8096 91.0344C66.3192 91.1144 65.8396 91.2319 65.3421 91.2792C65.0891 91.3031 64.5605 91.3762 64.4363 91.0514C64.3272 90.7656 64.7346 90.5707 64.5063 90.2455ZM66.5871 101.965C65.2109 102.89 64.0712 104.152 62.8076 105.221C61.5407 106.292 60.5354 107.484 59.3961 108.67C58.3427 109.767 57.3749 110.805 56.1015 111.634C55.2956 112.159 54.5767 112.804 53.749 113.299C53.1289 113.669 52.1896 114.157 52.4921 113.024C52.8021 111.862 53.3745 110.689 53.8715 109.604C54.5782 108.062 55.2902 106.535 56.0547 105.023C56.3421 104.455 56.5028 103.889 56.9585 103.436C57.4543 102.944 57.8015 102.301 58.3444 101.835C60.6283 99.8774 64.0703 101.39 66.5871 101.965ZM70.9041 102.629C70.2798 102.958 69.5811 103.039 68.9196 103.256C68.3558 103.441 67.8316 103.771 67.2253 103.795C67.7773 103.379 68.2514 102.814 68.8737 102.498C69.5736 102.142 70.2089 102.401 70.9041 102.629ZM98.3038 105.367C96.0076 104.589 93.8698 103.443 91.6334 102.521C91.2473 102.361 88.2279 101.363 88.2892 100.888C90.405 100.499 92.5841 99.8308 94.7051 100.559C96.6345 101.221 98.2038 102.81 99.6974 104.14C100.087 104.487 102.497 106.067 102.282 106.571C102.132 106.919 100.971 106.824 100.697 106.753C100.342 106.66 100.138 106.444 99.8606 106.207C99.396 105.811 98.8821 105.563 98.3038 105.367ZM94.0649 92.3712C94.4137 92.049 94.6225 91.5601 94.9556 91.2626C95.3837 90.8805 96.0743 91.0667 96.5422 91.2652C97.9463 91.8609 99.1464 92.8623 100.542 93.4838C102.088 94.1727 103.427 95.0932 104.822 96.0418C106.097 96.909 107.475 97.6268 108.777 98.4542C110.103 99.2977 111.587 99.8459 112.931 100.659C114.299 101.487 115.662 102.319 116.977 103.231C119.321 104.858 121.762 106.529 123.497 108.842C124.388 110.031 125.223 111.379 125.877 112.714C126.471 113.928 127.116 115.613 126.346 116.875C125.606 118.088 124.344 119.043 123.277 119.947C122.872 120.29 122.488 120.706 121.964 120.855C121.326 121.035 120.582 120.985 119.927 121.039C116.422 121.324 113.156 121.055 109.702 120.425C106.371 119.818 103.027 119.478 99.6706 119.057C97.7772 118.819 95.8842 118.542 94.0165 118.145C93.218 117.976 92.4057 117.781 91.6245 117.55C90.9422 117.348 90.3685 116.905 89.667 116.729C86.6897 115.982 83.2834 115.697 80.3359 114.441C82.9443 113.353 85.716 112.696 88.3893 111.791C91.2029 110.839 93.9508 110.041 96.9164 109.77C98.4424 109.631 99.8081 109.24 101.276 108.83C102.675 108.44 104.135 108.321 105.572 108.146C106.211 108.068 108.035 108.184 108.247 107.346C108.562 106.097 106.77 105.953 106.006 106.065C104.923 106.224 104.029 106.495 103.2 105.602C102.353 104.691 101.531 103.758 100.668 102.858C99.07 101.19 97.4224 99.2597 95.1628 98.5111C92.4063 97.5979 89.2098 98.4647 86.4593 98.984C83.5542 99.5326 80.6538 100.058 77.8031 100.855C76.6226 101.185 75.1001 101.913 73.875 101.796C72.6675 101.68 71.2998 101.482 70.1329 101.132C69.605 100.974 69.171 100.681 68.6986 100.408C68.0843 100.052 67.4111 99.8246 66.7592 99.5482C65.4409 98.9896 64.1557 98.475 62.7334 98.2554C61.5356 98.0705 60.2637 97.9608 59.103 98.3824C57.9642 98.796 56.9552 99.6381 56.1606 100.538C55.2976 101.515 54.5842 102.61 53.877 103.702C53.5374 104.226 53.1229 104.684 52.7711 105.196C52.4758 105.626 52.3035 106.104 51.991 106.523C51.2917 107.458 50.8169 108.655 50.3932 109.744C49.9223 110.952 49.3993 112.39 49.5117 113.705C49.5542 114.202 49.5985 114.861 49.7901 115.322C50.0337 115.908 50.381 115.893 50.8816 116.114C51.7418 116.494 51.983 117.544 53.0947 117.339C54.1373 117.147 55.0416 116.285 55.8023 115.597C56.7938 114.701 57.7427 113.756 58.6915 112.815C59.6651 111.849 60.6244 110.777 61.3989 109.641C61.7038 109.193 61.9415 108.688 62.3018 108.281C62.7606 107.762 63.2758 107.699 63.899 107.493C69.3475 105.685 74.8224 103.942 80.4411 102.748C81.7872 102.462 83.1442 102.094 84.4666 101.713C85.8691 101.309 86.5954 101.736 87.7529 102.504C90.1711 104.109 93.0294 105.24 95.7221 106.288C96.57 106.617 97.9198 106.638 98.5826 107.289C94.6539 107.89 90.9099 109.047 87.1205 110.199C85.2522 110.767 83.3625 111.259 81.4871 111.803C79.611 112.346 77.8064 113.05 75.9561 113.663C74.1146 114.272 72.1685 114.521 70.3092 115.083C68.4112 115.657 66.5212 116.052 64.5729 116.401C62.6058 116.754 60.6523 117.16 58.6784 117.476C57.7746 117.62 56.8709 117.77 55.9772 117.969C55.1027 118.163 54.2578 118.629 53.3789 118.737C49.4538 119.219 45.6057 120.293 41.6958 120.901C38.7766 121.354 33.6977 121.986 31.8047 119.046C29.9011 116.089 32.2365 112.639 34.3203 110.524C35.6153 109.21 37.0705 108.054 38.5972 107.025C40.2313 105.924 41.8034 104.735 43.4378 103.635C47.1363 101.147 51.1468 99.1172 55.1204 97.1178C57.0276 96.1581 58.8704 95.1288 60.7257 94.0756C61.6466 93.5528 62.1561 94.3962 62.8841 94.9695C63.4566 95.4207 64.5079 96.5322 65.3089 96.0184C65.3397 96.2034 65.3706 96.3884 65.4014 96.5738C65.6359 96.4663 65.8708 96.359 66.1054 96.2516C66.2629 96.6665 66.2445 96.9243 66.6848 97.1422C66.9551 97.2762 67.5322 97.4372 67.79 97.2014C67.8425 97.3654 67.895 97.5291 67.9477 97.6929C68.173 97.6756 68.2165 97.0284 68.2591 96.8768C68.6452 97.4432 69.1793 97.9164 69.8581 98.0765C69.8614 98.0395 69.7477 97.5742 69.7526 97.5714C69.9674 97.4394 70.2383 98.0046 70.3521 98.1257C70.7296 98.5268 70.9548 98.4645 71.3718 98.1409C71.4022 98.1739 71.5433 98.5437 71.5638 98.537C71.6541 98.5082 71.8254 98.1806 71.8443 98.1507C71.8181 98.5817 72.6469 98.6685 72.9396 98.5761C72.8739 98.4497 72.8083 98.3235 72.7428 98.1972C73.7622 98.0605 74.1625 99.148 75.141 99.0928C75.8644 99.0518 75.2842 98.8931 75.6937 98.582C76.0513 98.3101 76.115 98.9048 76.1502 98.8858C76.2184 98.8142 76.2712 98.7317 76.3088 98.6385C76.4412 99.1477 77.495 99.6044 77.386 98.7673C77.8006 98.9337 78.095 99.2101 78.5538 99.2685C79.1115 99.3394 79.7071 99.2206 80.2635 99.1742C81.4622 99.0741 82.5923 98.8286 83.6728 98.2771C84.3135 97.9502 84.9955 97.6536 85.5977 97.2592C86.1017 96.9291 87.0579 95.927 87.7289 96.3584C87.557 95.8495 88.366 96.3211 88.3918 95.6656C88.5218 95.7639 88.6518 95.8621 88.7817 95.9606C88.8596 95.7891 88.8379 95.5187 88.9423 95.3691C89.0855 95.1638 89.1556 95.2847 89.2777 95.1693C89.4144 95.04 89.5338 94.6939 89.6977 94.5954C89.8666 94.494 90.0654 94.6149 90.2472 94.5263C90.524 94.3912 91.7144 93.0733 91.5129 94.2026C92.0249 94.028 91.6302 93.8683 91.694 93.5258C91.8225 92.8395 92.1351 93.3335 92.4464 93.3932C92.9563 93.4914 92.946 93.0681 93.2303 92.7607C93.4899 92.4797 93.978 92.3541 93.8099 91.8661C94.0018 91.97 94.0426 92.1736 94.0649 92.3712ZM63.3318 77.7126C62.9301 78.1618 62.6293 77.9698 62.1828 77.9039C62.135 77.7431 62.0533 77.721 61.938 77.8371C61.8056 77.9134 61.6635 77.9638 61.511 77.9877C61.1448 78.0783 60.7645 78.0398 60.4063 78.1771C60.4166 78.0566 60.5426 77.8425 60.4619 77.7202C60.0851 77.9818 59.8516 78.1482 59.389 78.1532C59.0142 78.1571 58.3563 77.8696 58.0451 78.2133C58.0354 78.0795 58.0257 77.9459 58.0164 77.8121C57.8639 77.8883 57.7313 77.9903 57.6185 78.1182C57.5971 77.92 57.5853 77.7701 57.4548 77.6099C57.2071 78.1212 56.9358 78.1333 56.4548 77.938C56.5223 77.9653 55.9733 77.6422 55.9943 77.7317C55.8207 76.9975 58.5604 77.0581 58.848 77.0292C59.5663 76.9563 60.2845 76.914 61.0039 76.8475C61.6861 76.7846 62.1954 76.6778 62.6675 77.2492C62.4571 76.4238 64.4478 76.4647 63.3318 77.7126ZM31.9198 64.9111C31.9953 66.1591 32.272 67.4855 31.7887 68.6866C31.4002 69.6521 30.6251 70.7425 29.7901 71.3726C28.0805 72.6626 26.6315 71.084 26.3934 69.3492C26.1455 67.5396 26.6371 65.3286 28.189 64.213C29.1163 63.5463 30.0143 63.5925 31.0818 63.8117C31.3325 63.8632 31.7396 63.8433 31.883 64.0935C31.9167 64.152 31.8865 64.9099 31.9198 64.9111ZM54.6262 81.5383C54.3308 81.6881 54.0219 81.7756 53.7615 81.9792C53.6711 82.0499 53.6403 82.2112 53.5443 82.2706C53.3697 82.3791 53.12 82.3071 52.938 82.3967C52.6367 82.5444 52.4207 82.756 52.0627 82.8922C51.531 83.0945 51.0647 83.372 50.5621 83.6351C49.7247 84.0735 48.8259 84.4498 47.9505 84.8066C47.5085 84.9868 46.2864 85.338 46.3286 85.9875C46.2298 86.0143 46.1288 85.7973 45.9223 85.8146C45.639 85.8382 45.2647 86.1672 44.9705 86.2481C44.4202 86.3994 43.9943 86.4127 43.9943 87.1171C43.8192 86.9976 43.7747 86.7052 43.5416 86.6665C43.2793 86.6229 43.1689 86.907 42.9591 86.9954C42.7121 87.0995 42.4048 86.9996 42.1601 87.1104C42.0531 87.2241 41.9341 87.3233 41.8033 87.4079C41.6702 87.4232 41.5376 87.4192 41.4059 87.3954C40.8863 87.5061 40.4083 87.7023 39.8876 87.8042C39.3801 87.9037 39.0325 87.9398 39.246 88.5423C38.703 88.649 38.5705 88.0706 37.958 88.2823C37.2073 88.5413 36.5056 88.7283 35.7219 88.8863C35.3222 88.9669 34.9046 89.1468 34.502 89.1891C34.2148 89.2193 33.9467 89.1161 33.6639 89.1482C33.3231 89.1865 33.0491 89.345 32.6964 89.3509C32.3618 89.3569 32.0105 89.2965 31.6819 89.2373C31.7284 89.3702 31.7865 89.4976 31.8563 89.6196C31.6291 89.5719 31.5242 89.2976 31.3316 89.257C31.1295 89.2146 30.9484 89.4238 30.7801 89.3775C30.7084 89.3576 30.7561 89.1358 30.628 89.0933C30.511 89.055 30.4618 89.1003 30.3459 89.0821C30.3072 89.076 29.8226 89.0497 29.7453 89.0907C29.6103 89.1626 29.7469 89.2971 29.7201 89.3171C29.2643 89.6558 29.2587 89.4731 29.0555 89.1192C28.7571 88.5999 28.3973 88.9277 27.855 88.8368C27.2505 88.7355 26.7743 89.0033 26.1794 88.9651C25.5378 88.924 24.7837 88.442 24.2163 88.1604C22.9913 87.5526 21.7967 86.9773 20.7679 86.0566C18.7567 84.2567 17.1205 82.0433 16.1558 79.5093C15.1193 76.787 14.9229 73.9479 15.0061 71.0598C15.0561 69.3228 15.1946 67.5869 15.4673 65.8704C15.655 64.6896 15.6943 62.5911 17.0203 62.0535C17.2482 64.8182 16.5289 67.6355 16.9826 70.3824C17.1192 71.2098 17.4523 72.3121 18.0827 72.925C19.0161 73.8319 19.2345 72.5208 19.3189 71.7966C19.476 70.4513 19.768 69.1137 19.9747 67.7748C20.1812 66.4367 20.3272 65.0834 20.6143 63.7592C20.719 63.2764 21.5633 59.7408 22.1831 59.9082C22.0577 62.4804 21.7247 65.0082 21.7116 67.5898C21.7064 68.6253 21.6141 69.7189 21.7629 70.7476C21.8396 71.2769 22.3197 72.8303 23.1455 72.7007C23.9096 72.5808 23.0695 71.4867 22.9981 71.0648C22.8092 69.9479 23.0501 68.5584 23.2262 67.4499C23.5598 65.3519 24.3037 63.2034 25.5197 61.4502C26.6088 59.8804 28.2857 58.3858 30.306 58.6627C31.1691 58.7811 31.8425 58.9963 32.2762 59.7876C32.6165 60.4086 33.957 61.1144 33.1801 61.8919C32.473 62.5998 31.3292 62.0332 30.5431 61.8643C29.5806 61.6578 28.5491 61.9063 27.7442 62.4726C26.3631 63.4439 25.5761 65.1805 25.3192 66.8093C24.973 69.0053 25.8985 74.7536 29.3074 73.4654C31.5721 72.6095 33.2778 69.5307 33.0876 67.1736C33.0114 66.2301 32.644 64.4389 33.9442 64.1842C35.6099 63.8579 35.8452 65.7014 35.6765 66.8995C35.4314 68.6421 34.514 70.2625 33.4645 71.6403C32.5498 72.8412 31.486 73.5921 30.3854 74.5839C30.0595 74.8774 29.2283 75.5376 29.3679 76.0837C29.521 76.6822 30.8272 76.8523 31.3502 76.9507C33.9377 77.437 36.8556 76.9896 39.4387 76.6502C44.7477 75.952 49.9869 74.2329 54.3402 71.0722C54.516 73.0279 54.7378 74.977 54.8194 76.9398C54.859 77.8925 54.8691 78.8591 54.9776 79.8067C55.0445 80.3895 55.2858 81.2037 54.6262 81.5383ZM39.9053 88.3529C39.6968 88.4622 39.9222 87.8002 39.8642 88.0192C40.1756 88.1313 40.1893 88.2426 39.9053 88.3529ZM61.9285 64.6853C62.2594 64.3192 63.1633 63.4483 63.4502 64.2748C63.557 63.9224 63.5708 63.4005 63.9829 63.8764C64.147 63.2919 65.9568 63.3466 66.4051 63.3208C67.8405 63.2384 69.2817 63.1943 70.7119 63.0511C73.6511 62.7569 76.6415 62.9088 79.5914 62.8991C80.2301 62.897 80.8672 62.8623 81.5013 62.9553C82.1132 63.045 82.7563 63.2969 83.38 63.2049C83.9345 63.1231 84.2981 62.9695 84.8688 63.0352C85.5518 63.1138 86.2149 63.1697 86.9039 63.1672C89.9516 63.1559 92.9978 63.2799 96.0461 63.2848C96.6402 63.2857 97.352 63.1691 97.9094 63.4225C98.1159 63.5165 98.3416 63.8289 98.4993 63.8632C98.68 63.9024 98.5726 63.6194 98.8146 63.7473C99.1386 63.9184 98.8878 64.4447 98.6736 64.528C98.8019 64.4782 98.4422 64.4289 98.4782 64.4269C98.3076 64.4362 98.1619 64.5676 97.9787 64.5594C97.6995 64.5471 97.4658 64.3762 97.2409 64.2257C97.237 64.2872 97.3606 64.6968 97.2195 64.7174C97.0981 64.7353 96.9843 64.3315 96.9721 64.2375C96.2902 64.8414 95.5676 64.5048 94.7215 64.5812C94.1212 64.6356 92.8697 65.0375 92.451 64.4084C92.4336 64.5423 92.38 64.6594 92.2907 64.7599C92.171 64.9428 92.0676 64.9273 91.9802 64.7127C91.9506 64.7141 91.659 64.7778 91.6533 64.7773C91.4482 64.7609 91.182 64.687 90.9733 64.6691C90.6503 64.6414 90.7098 64.8775 90.4524 64.8813C90.3119 64.8832 89.9536 64.6796 89.7085 64.6668C89.284 64.6445 88.8505 64.8253 88.4318 64.7706C88.1436 64.733 87.883 64.4974 87.6002 64.4883C87.2477 64.4765 87.1335 64.7464 86.8543 64.3674C86.7971 64.3518 86.7616 64.5747 86.7389 64.5786C86.7444 64.5776 86.4731 64.6179 86.4411 64.6305C86.3854 64.6518 86.1686 64.7515 86.1026 64.7526C85.9601 64.7553 85.8827 64.6529 85.7316 64.6505C85.4816 64.6462 84.6836 64.8672 84.706 64.4028C83.8139 64.7347 83.0528 64.6054 82.1372 64.6838C81.7171 64.72 81.4533 64.6635 81.0536 64.5861C80.5531 64.4891 80.2208 64.6109 79.7216 64.6356C79.2419 64.6592 79.0907 64.4554 78.6857 64.2714C78.526 64.1989 78.4205 64.1032 78.2246 64.1435C78.1129 64.1666 78.1925 64.3554 78.1594 64.3683C77.9874 64.435 77.8672 64.3643 77.6313 64.3806C77.1957 64.4103 77.0223 64.7758 76.5746 64.4327C76.7233 64.4147 76.8721 64.3962 77.0211 64.3781C76.5929 64.1958 76.0278 64.1029 76.1314 64.7665C75.7663 64.715 76.0824 64.4654 75.9029 64.376C75.7233 64.2869 75.5224 64.4362 75.2963 64.51C74.6992 64.7044 74.2014 64.6079 73.579 64.573C72.8715 64.5333 71.2168 65.1128 70.7103 64.3606C70.695 64.5191 70.5255 64.9607 70.2999 64.9399C70.2264 64.9331 70.4313 64.4642 70.4546 64.4147C70.3384 64.663 69.8083 64.7102 69.5469 64.839C69.5763 64.7055 69.6054 64.5721 69.6347 64.4388C69.3921 64.698 69.2743 64.5398 68.9888 64.6265C68.864 64.6644 68.6833 64.9228 68.5766 64.9384C68.4524 64.7937 68.296 64.7314 68.108 64.7515C67.9827 64.7202 67.8576 64.714 67.7324 64.7332C67.2315 64.7697 66.7748 65.0492 66.2764 64.8588C65.845 64.6938 65.6782 64.2695 65.421 64.9446C65.3532 64.8246 65.2856 64.7046 65.218 64.5845C65.1345 64.7149 65.0511 64.845 64.9674 64.9752C64.6411 64.7606 64.6211 64.6364 64.2455 64.7152C64.1574 64.7505 64.067 64.7455 63.9744 64.7003C63.9523 64.7665 63.9302 64.8325 63.908 64.8985C63.8993 65.0646 63.8501 65.1196 63.7607 65.0631C63.6856 65.036 63.6178 64.9949 63.5573 64.9396C63.3088 64.9587 62.9914 65.0243 62.7247 64.9881C62.6218 64.9743 61.9765 64.6323 61.9285 64.6853ZM69.5324 60.2174C69.5616 60.2625 69.5909 60.3076 69.6202 60.3527C69.2168 60.5665 69.1218 60.4438 69.0802 60.0143C69.2773 60.0181 69.3109 60.3662 69.5324 60.2174ZM69.7823 59.9654C69.9766 60.0514 70.1993 60.2204 70.3823 59.994C70.5054 60.3535 69.5906 60.844 69.7823 59.9654ZM71.0369 60.1242C71.4447 60.4009 70.4665 60.1784 70.468 60.1789C70.6439 60.0158 70.8334 59.9977 71.0369 60.1242ZM74.5447 58.5809C74.6846 59.2895 75.0704 59.2693 75.693 58.9399C76.601 58.4595 76.7544 57.6728 76.8176 56.7334C76.8784 55.8327 76.9882 55.484 77.9132 55.672C78.559 55.8033 79.1052 55.6929 79.7562 55.6749C80.4508 55.6557 80.6956 55.7622 80.7515 56.4799C80.8074 57.1985 80.9348 57.7442 81.4542 58.2911C81.9823 58.8471 82.6866 59.1792 83.3728 59.4903C83.7257 59.65 84.057 59.822 84.4474 59.8567C84.5987 59.8702 85.3861 59.7702 85.4026 60.0204C85.4149 60.2084 84.3244 60.7388 84.2088 60.802C83.703 61.0781 83.1987 61.3259 82.6463 61.4932C81.3754 61.8781 80.0279 61.9009 78.7115 61.8775C76.5891 61.8401 73.6558 60.9387 72.3867 59.0482C73.1061 58.8925 73.8254 58.7367 74.5447 58.5809ZM74.3543 52.4449C74.0185 52.162 73.801 51.7345 73.5221 51.3994C73.3814 51.2305 73.2783 51.1767 73.1444 51.0921C73.0034 51.003 72.9241 51.1291 72.8063 50.9197C72.5025 50.3787 73.4403 49.6173 72.4456 49.4091C72.1091 49.3385 71.2992 49.6062 71.201 49.1221C71.062 48.4375 72.3633 48.3928 72.6694 48.0454C73.2783 47.3546 72.865 46.1837 73.2359 45.3869C73.5868 44.632 74.4929 44.4979 75.208 44.271C76.2045 43.9552 77.2129 43.772 78.2246 43.5192C78.9321 43.3425 80.1074 42.6327 80.7635 43.26C79.751 43.4856 80.3396 43.8399 81.0144 44.0398C81.7787 44.2665 82.5888 44.3548 83.3808 44.418C84.1961 44.4829 85.0269 44.4953 85.8324 44.3321C86.5774 44.1812 87.4094 43.5311 88.1905 43.6976C87.7571 44.4543 86.466 44.8675 85.6815 45.0657C85.2818 45.1667 85.0258 45.1351 85.0796 45.6355C85.1315 46.1205 85.5514 46.6068 85.6463 47.112C85.7717 47.7806 85.6622 48.3951 85.425 49.0239C85.1918 49.6426 85.1375 49.7234 85.3413 50.3146C85.6588 51.235 84.9763 52.2525 84.3455 52.9209C81.7944 55.6238 76.9124 54.6 74.3543 52.4449ZM80.8366 36.2908C80.8468 36.3184 80.8381 36.3079 80.8366 36.2908V36.2908ZM81.6311 43.112C81.5253 43.1913 80.9161 43.3577 80.9416 43.1187C80.9756 42.7984 81.5247 42.9141 81.6311 43.112ZM83.0196 36.6421C82.8766 36.5351 82.4762 36.5791 82.769 36.1735C82.8643 36.3519 82.942 36.4969 83.0196 36.6421ZM73.4114 34.0786C73.5936 33.6034 73.7954 33.1612 73.8775 32.6552C73.9282 32.3435 73.8274 31.9875 74.2615 31.9385C73.7083 31.6964 73.7027 30.7404 73.67 30.2449C73.6252 29.5625 73.4104 28.6488 73.7092 28.0136C74.0158 27.3611 74.4295 27.3719 74.5543 28.149C74.6032 28.4532 74.4162 28.5516 74.381 28.7635C74.3115 29.1827 74.4499 29.0908 74.7191 28.7715C74.8304 29.096 74.8729 29.5837 75.3254 29.5631C75.2953 29.4753 75.122 29.2817 75.1799 29.1727C75.2688 29.0052 75.7034 29.2611 75.7585 29.2998C76.1554 29.5785 76.2415 29.8329 75.9585 30.1844C76.3503 30.2269 76.0214 30.5713 76.2744 30.661C76.6603 30.798 76.4015 30.1491 76.3597 30.035C76.5945 30.127 76.6733 30.2322 76.8221 30.4184C76.9094 30.5469 76.9889 30.6804 77.0606 30.8185C77.1406 31.0706 77.3051 31.1337 77.5545 31.0081C78.0544 31.1655 78.7445 31.1408 79.1924 31.4162C79.3971 31.5418 79.4709 31.8168 79.6419 31.9213C79.8342 32.0389 80.092 31.9855 80.2986 32.0593C80.223 32.2318 80.2843 32.3251 80.4819 32.3397C80.6355 32.3538 80.7844 32.3885 80.9282 32.4438C81.0357 32.3624 81.1528 32.298 81.2791 32.2513C81.3641 32.4015 81.4841 32.4386 81.6394 32.363C82.1004 32.4497 82.3218 32.6247 82.6148 32.8864C82.8777 33.1213 82.6637 33.1404 82.9518 33.1195C83.0676 33.1112 83.2704 32.914 83.5352 32.9525C83.6876 32.9822 83.8345 33.0295 83.9761 33.0939C84.1289 33.2253 84.2915 33.2418 84.4633 33.1436C84.7424 33.2804 84.7698 33.5232 85.1102 33.5564C85.4865 33.5932 85.3654 33.1221 85.6238 33.7864C85.9719 33.0821 86.0994 34.2042 86.4588 34.2949C86.831 34.3888 86.8712 34.0857 87.1898 34.4169C87.2853 34.5161 87.28 34.6801 87.3872 34.7853C87.5629 34.9574 87.8005 34.923 87.9532 35.1579C87.8681 35.0268 87.9733 35.6225 87.9715 35.6028C87.9952 35.8656 87.7626 36.16 88.2393 36.1376C88.234 36.1652 88.005 36.5003 87.9603 36.4624C87.9494 36.4242 87.9401 36.3854 87.9328 36.3461C87.8817 36.3683 87.859 36.6874 87.8684 36.7438C87.9088 36.7501 87.9254 36.72 87.9181 36.6533C87.8397 36.8994 87.9578 37.0558 87.8073 37.2895C87.711 37.4388 87.4474 37.5511 87.3074 37.6432C86.9694 37.8657 86.6387 38.0889 86.3089 38.3257C85.5402 38.878 84.6794 39.544 83.7113 39.6592C84.1975 39.1798 86.9949 37.3659 85.5918 36.8452C85.3316 36.7486 84.8578 36.6573 84.5857 36.6369C84.2471 36.6118 83.8971 36.8064 83.5238 36.6848C83.0732 36.5386 83.243 36.1134 82.9678 35.9608C82.3834 35.6372 82.5213 36.3983 82.3375 36.5975C82.1441 36.394 82.1855 36.2949 81.8805 36.2766C81.5707 36.2578 81.4971 36.5453 81.1356 36.3661C80.6376 36.1194 80.9012 35.6278 80.1948 35.6163C80.2066 35.5084 80.3091 35.2068 80.1743 35.1227C79.9925 35.3593 80.1332 35.6239 79.9645 35.8517C79.8801 35.9659 79.6969 36.057 79.5631 36.094C79.2499 36.1804 79.2054 36.3457 79.2564 35.8723C79.0243 36.292 78.3126 36.1194 77.8893 36.0772C77.201 36.0085 76.4695 35.8777 75.8097 35.6562C75.1994 35.4511 74.8735 35.0989 74.3702 34.7784C74.18 34.6572 74.0891 34.7036 73.8164 34.6283C73.547 34.554 73.2846 34.41 73.4114 34.0786ZM74.8636 26.6457C74.9676 26.5828 75.0421 27.5206 74.9163 27.6959C74.6856 27.3297 74.2769 26.7926 74.8636 26.6457ZM75.1955 26.2716C75.5297 25.9679 75.2975 26.7521 75.2362 26.8837C75.1125 26.804 74.9887 26.7244 74.8649 26.6447C75.0228 26.5474 75.0622 26.3927 75.1955 26.2716ZM87.8017 25.0077C90.8886 25.6581 93.9475 26.8739 96.4233 28.8746C98.6786 30.6969 100.27 33.2826 101.163 36.0329C102.089 38.8877 101.778 42.0549 99.574 44.2398C98.4129 45.3906 96.8799 46.085 95.4188 46.7626C94.7188 47.0872 93.9978 47.3575 93.295 47.6747C92.7903 47.9025 92.174 48.2668 91.598 48.2037C91.8919 47.8932 92.3182 47.8868 92.6739 47.6971C93.1036 47.4675 93.4545 47.0271 93.8249 46.7125C94.1926 46.4002 95.0083 45.4167 95.5734 45.6548C95.4949 45.1307 96.0896 44.8875 96.3575 44.542C96.6408 44.1765 96.6612 43.749 97.1834 43.6294C96.6226 43.1887 96.7943 42.3578 96.9163 41.758C97.0723 40.9909 97.1445 40.2867 97.2061 39.5061C97.317 38.0989 97.4064 36.3061 96.6319 35.0691C96.3806 34.6674 96.0606 34.2982 95.8365 33.8808C95.5661 33.378 95.6258 32.9355 95.6258 32.3842C95.1318 32.7176 95.0276 32.0379 94.8189 31.7067C94.6622 31.4581 94.4565 31.3193 94.4059 31.0065C94.3692 30.7791 94.6152 30.7406 94.4803 30.5021C94.315 30.6274 94.2491 30.8217 94.1653 31.002C94.0127 30.9408 94.1926 30.7274 94.1052 30.6581C94.1027 30.6562 93.8082 30.5278 93.8228 30.5463C93.6334 30.3052 93.5724 29.9051 93.4796 29.6182C93.1326 29.7947 93.1975 29.7739 92.8104 29.479C92.7421 29.4271 92.4015 29.1887 92.3693 29.1108C92.2196 28.7464 92.4821 28.9622 92.4087 28.7361C92.1979 28.0864 91.0148 28.2093 90.9211 27.2359C90.3442 27.6036 90.1241 27.0826 89.7832 26.712C89.4336 26.3324 88.8474 26.1863 88.8788 25.5842C88.6972 25.6466 88.5156 25.7088 88.3342 25.7708C88.4285 25.2152 87.6064 25.2506 87.3086 24.9687C87.4738 24.9708 87.6382 24.9838 87.8017 25.0077ZM88.2718 59.4229C88.5579 59.166 88.4711 59.5079 88.6552 59.4688C88.8127 59.4353 88.8437 59.3159 88.9947 59.2792C89.6167 59.1283 90.5466 59.3178 91.2006 59.2853C91.9582 59.2477 93.2568 59.4056 93.6179 60.2956C93.8354 60.8314 93.5035 60.6491 93.1377 60.6093C92.8543 60.5785 92.6022 60.6361 92.3216 60.6332C92.1829 60.6547 92.0448 60.6526 91.907 60.6267C91.8398 60.5823 91.8001 60.5197 91.7879 60.4391C91.3976 60.3798 90.983 60.6117 90.5507 60.6232C89.9737 60.6387 89.4609 60.5276 89.0226 60.1365C88.8483 60.3973 88.7296 60.5267 88.4161 60.5558C88.408 60.5565 88.1017 60.4329 88.0545 60.4205C87.9917 60.4041 87.8331 60.5362 87.7122 60.4985C87.9267 60.1554 87.9579 59.7046 88.2718 59.4229ZM127.676 62.5199C127.778 62.1643 127.863 61.8039 127.956 61.4459C129.38 63.0737 130.626 65.2527 131.187 67.3402C131.551 68.6966 132.118 71.1547 130.382 71.8543C128.967 72.4243 128.178 70.3813 127.82 69.3751C127.03 67.1538 127.03 64.78 127.676 62.5199ZM63.9603 37.0144C63.9785 37.0107 63.0383 37.5597 63.3481 37.1152C63.4724 36.9364 63.9444 36.8108 64.1538 36.8108L63.9603 37.0144ZM63.0558 37.2471C62.947 37.3389 62.8371 37.4297 62.7263 37.5192C62.6199 37.3504 62.5132 37.1814 62.4068 37.0126C62.6168 36.9238 63.5077 36.8571 63.0558 37.2471ZM62.3931 54.3163C62.1964 54.1825 62.0405 54.2536 61.9813 54.4782C61.9813 54.2548 62.0972 53.7356 62.2754 53.6752C62.3905 53.6359 61.8927 53.0447 62.0326 52.89C62.3884 53.0946 62.1754 53.2905 62.2796 53.5547C62.3267 53.6738 62.4679 53.7865 62.4989 53.8781C62.5514 54.0336 62.7638 54.5679 62.3931 54.3163ZM61.4294 52.9859C61.2279 53.0378 61.5806 53.3716 61.5803 53.5192C61.58 53.6309 61.4466 53.7165 61.3915 53.8693C61.2721 54.2001 61.4775 54.4236 61.1394 54.6761C61.1394 53.9511 60.6548 52.03 61.586 51.6768C61.1317 51.3176 61.5048 50.903 61.8609 51.3329C62.2032 51.7462 61.9851 52.8432 61.4294 52.9859ZM60.9442 50.125C60.7612 49.4733 60.2102 49.2454 59.5805 49.2841C59.6045 48.9504 59.8563 48.4694 60.0382 49.0707C60.113 48.8929 60.1648 48.6611 60.3354 48.5433C60.6226 49.4473 62.0544 49.9468 61.163 50.9263C61.09 50.6593 61.0193 50.3917 60.9442 50.125ZM59.2803 49.3326C55.9647 49.574 51.3098 50.2647 48.6565 47.713C46.9265 46.0492 47.0189 43.4583 48.417 41.6098C49.2148 40.5549 50.304 39.8122 51.3978 39.1047C51.8199 38.8314 52.1774 38.6512 52.6408 38.4943C52.7158 38.4861 52.7864 38.5029 52.8524 38.5447C52.8785 38.4323 52.9415 38.3492 53.0418 38.2948C53.2208 38.1987 53.4758 38.1643 53.5789 37.9648C53.4688 38.3397 53.4122 38.7257 53.3719 39.1135C53.2826 39.009 53.1934 38.9046 53.1042 38.8002C53.0296 39.5067 52.2965 39.0791 51.8588 39.1672C52.1471 39.5679 52.3533 39.7134 52.3782 40.2429C52.1634 39.8448 51.7144 39.5831 51.2969 39.4549C51.5236 40.1282 51.6839 40.5278 51.4556 41.2661C51.1799 41.1081 51.1613 40.7284 50.8268 40.6375C50.7386 41.0777 50.723 41.5663 50.61 41.9935C49.7535 41.6013 49.837 42.6576 50.181 43.1802C50.3638 43.4583 50.4536 43.7802 50.6167 44.0471C51.017 44.7019 50.7129 43.7228 51.1578 43.7691C51.0579 44.4597 51.0231 44.5285 51.5264 45.0342C52.0177 45.5273 52.2725 46.2115 52.7979 46.6748C52.9501 46.4796 52.7108 46.2753 52.6898 46.0885C53.1787 46.1708 53.4077 46.663 53.8777 46.227C54.0827 46.6281 54.3046 47.0699 54.7954 47.1522C54.4709 46.5328 55.4186 46.9529 55.6616 47.0408C55.8459 47.1075 56.1762 47.1605 56.2473 47.1861C56.6477 47.3313 56.3731 47.0708 56.6162 47.5468C56.973 47.4386 57.1076 47.1414 57.5345 47.3925C57.8815 47.5968 57.8822 47.9466 57.9616 48.3049C58.0443 48.0705 58.1278 47.8362 58.2192 47.605C58.3124 47.6444 58.7031 48.0761 58.6604 48.0781C59.575 48.0331 59.5427 48.6032 59.2803 49.3326ZM54.625 37.6458C54.8087 37.5163 55.0328 37.6887 55.239 37.6423C55.5246 37.5783 55.6867 37.3328 56.0056 37.3065C55.9169 37.5912 55.7504 37.5645 55.6094 37.7881C55.5614 37.8643 55.5865 38.047 55.5437 38.091C55.1863 38.4585 55.0629 38.1586 54.6981 37.8804C54.7298 38.2159 54.7941 38.3218 54.4792 38.4118C54.1942 38.4935 53.7238 38.193 53.5801 37.9625C53.7013 37.7191 54.4052 37.8006 54.625 37.6458ZM56.9001 37.1213C57.2096 37.151 56.8367 38.0681 56.3931 37.1786C56.5602 37.142 56.7292 37.1229 56.9001 37.1213ZM58.492 36.9441C58.9803 36.8441 60.6089 36.3781 60.7901 37.1411C60.8226 37.1222 60.9438 36.6914 61.0001 36.7439C61.2256 36.9546 61.2508 37.2337 61.2336 37.5262C60.961 36.9561 61.0579 37.4569 60.8732 37.4178C60.825 37.4075 60.7512 37.498 60.6291 37.4607C60.4689 37.4116 60.3542 37.0696 60.2531 36.9538C60.0848 37.1949 59.8762 37.5056 59.5392 37.4847C59.3006 37.4698 58.9161 36.8532 59.2251 37.5283C59.0437 37.4682 58.8337 37.3319 58.6316 37.3592C58.4053 37.39 58.2878 37.6141 58.0757 37.6503C57.6055 37.7303 57.5346 37.2762 57.2294 37.0294C57.6504 37.0049 58.0763 37.0291 58.492 36.9441ZM61.446 36.9367C61.4804 36.7803 61.9077 36.7171 62.0165 36.7668C62.282 36.8879 62.1837 37.0478 62.135 37.3137C61.938 37.2201 61.7409 37.1266 61.5439 37.0329C61.8379 37.5085 61.3051 37.5774 61.446 36.9367ZM144.15 64.7896C144.115 63.6501 144.082 62.4908 143.794 61.3814C143.593 60.605 143.098 59.2128 142.162 59.0781C140.751 58.8747 139.97 61.6748 139.575 62.6358C139.496 61.5043 139.565 60.2998 139.139 59.2258C138.798 58.3651 137.937 57.5499 137.195 58.5165C136.536 59.3768 136.409 60.6466 136.235 61.6816C136.01 63.0227 135.875 64.3742 135.71 65.7234C135.066 64.4729 134.953 63.0414 134.444 61.7418C133.963 60.5153 133.207 59.3441 132.478 58.2533C131.883 57.3622 131.159 56.5245 130.227 55.9798C129.416 55.5058 127.997 54.993 127.224 55.7802C126.578 56.4372 126.679 57.3163 126.713 58.1454C126.728 58.5145 126.786 58.7676 126.462 58.9537C126.303 59.0451 126.055 58.9978 125.88 59.0466C125.599 59.1255 125.383 59.2592 125.145 59.4368C123.477 60.682 122.707 62.9261 122.469 64.9267C122.168 67.4617 123.152 69.6348 123.999 71.9543C124.134 72.324 124.563 73.1082 124.504 73.5208C124.439 73.9729 123.873 73.9847 123.492 73.9941C122.34 74.0226 121.136 73.9365 119.99 73.8286C117.261 73.5724 114.534 72.2533 112.091 71.0757C111.645 70.8608 111.014 70.7378 110.65 70.3994C110.308 70.0813 110.218 69.5715 109.923 69.2066C109.198 68.3113 108.737 67.5473 107.669 67.0063C106.583 66.4556 105.474 65.9466 104.414 65.3435C103.103 64.5971 101.891 63.6518 100.635 62.8162C98.2999 61.2636 95.9808 59.5617 93.5053 58.2414C92.355 57.6278 91.0695 57.5286 89.8752 57.0262C88.7121 56.537 87.2846 56.5364 86.0709 56.8453C85.4797 56.9959 85.0774 57.3526 84.5336 57.5856C83.8965 57.8585 83.3767 57.5572 82.816 57.2314C81.9592 56.7337 81.1101 55.9227 82.3301 55.3858C82.7438 55.2035 83.2624 55.1345 83.6239 54.8481C84.0093 54.5429 84.3187 53.9798 84.632 53.5974C85.3286 52.7474 85.7447 51.7691 86.7643 51.2405C87.8918 50.656 89.2283 50.4969 90.4305 50.1148C91.7331 49.7011 93.0085 49.2091 94.2868 48.7259C96.5899 47.8556 98.9843 46.9159 100.639 44.9998C102.067 43.3469 102.689 41.2132 102.631 39.0462C102.513 34.6161 100.15 30.12 96.7585 27.3502C92.6001 23.9537 87.3098 22.8211 82.057 22.8805C79.5918 22.9084 76.6498 23.2324 74.5928 24.7362C72.8161 26.0351 72.5206 28.3069 72.7849 30.3576C72.8921 31.1899 73.2587 32.2883 72.6741 33.0216C72.3469 33.432 71.7596 33.5335 71.3188 33.7893C70.7651 34.1107 70.2766 34.4188 69.6493 34.5887C66.9849 35.3113 64.1782 35.0597 61.4538 35.0197C56.9155 34.953 52.2636 36.1867 48.8781 39.3974C46.1441 41.99 45.3242 46.8789 48.6586 49.4064C51.3527 51.4482 55.5783 51.2237 58.7549 50.8675C59.7399 50.7569 60.4173 50.5963 60.4196 51.8063C60.422 53.1281 60.2041 54.5095 60.5399 55.8071C61.0689 57.8508 63.0248 57.8994 64.7539 57.4593C65.6663 57.2272 66.5484 56.878 67.4147 56.5123C68.6856 55.976 69.8505 55.1874 71.1056 54.652C71.9564 54.2892 72.5935 55.4626 73.3482 54.6491C73.4876 54.4988 73.5135 54.2748 73.7237 54.1978C74.0534 54.0773 74.6062 54.4998 74.8954 54.6335C75.3283 54.8335 75.7647 54.9807 75.9376 55.4626C76.0994 55.9133 76.0285 56.6301 75.8735 57.0747C75.5368 58.0414 74.6299 57.8503 73.802 57.7856C72.358 57.6728 70.9238 57.4336 69.4804 57.3331C68.1854 57.2431 66.9726 57.6315 65.8557 58.2728C63.5096 59.6194 61.5901 61.7615 59.5559 63.523C58.5089 64.4295 57.4969 65.4088 56.3584 66.1982C55.8633 66.5416 55.3272 66.8571 54.897 67.2837C54.47 67.7068 54.423 68.0915 54.2771 68.6547C54.017 69.6573 52.7256 70.1474 51.9184 70.6764C50.7769 71.4244 49.5667 71.9521 48.2869 72.4111C45.5768 73.3831 42.8453 74.0617 40.012 74.5633C38.6247 74.8091 37.2491 74.9705 35.8484 75.1031C34.6409 75.2174 33.357 75.5908 32.1511 75.2925C32.4984 74.7268 33.1139 74.3872 33.5933 73.95C34.2112 73.3864 34.7367 72.7184 35.2045 72.0265C36.1148 70.679 36.7534 69.2331 36.9 67.5987C37.0322 66.1277 36.8806 64.3681 35.9966 63.1255C35.6913 62.6962 35.0871 62.5795 34.8139 62.1927C34.542 61.8084 34.6457 61.1466 34.4969 60.6985C34.1182 59.5586 32.9942 58.1461 32.005 57.484C30.9318 56.7656 29.3619 56.5017 28.1223 56.876C25.8256 57.5696 24.4148 60.0339 23.3639 62.0254C22.7898 60.8126 23.7512 59.0132 22.6297 58.02C21.6838 57.1821 20.933 58.8052 20.6167 59.4995C19.1316 62.7591 18.7943 66.2162 18.1721 69.7038C17.9185 69.4528 18.0485 68.8088 18.0723 68.5095C18.1167 67.9521 18.1125 67.4055 18.1137 66.846C18.1167 65.4323 18.3784 64.0122 18.2584 62.5998C18.1892 61.7833 17.9299 60.0618 16.7484 60.333C15.7464 60.5631 15.1188 61.9777 14.804 62.8426C14.3499 64.0901 14.2451 65.325 14.2733 66.6428C14.3046 68.0988 14.0283 69.531 13.9614 70.9851C13.8313 73.8094 13.9598 76.6091 14.7669 79.3349C16.0886 83.7984 19.1275 87.507 23.1833 89.7465C25.4179 90.9805 27.8969 91.7612 30.4456 91.9291C31.8268 92.0201 33.1602 91.855 34.5297 91.7117C35.881 91.5701 37.2394 91.5047 38.5885 91.3387C41.5927 90.9687 44.5201 90.0138 47.2509 88.7289C48.6882 88.0524 50.04 87.2219 51.4538 86.5007C52.0212 86.2116 52.4044 85.8496 52.8886 85.4472C53.3686 85.0485 53.5014 85.0173 54.0474 85.0173C53.8872 84.5872 54.3545 84.4546 54.5625 84.1824C54.5509 84.3146 54.5391 84.4464 54.5275 84.5783C54.686 84.2331 54.8336 84.2364 54.9702 84.5883C55.1051 84.1943 55.205 83.789 55.3681 83.4049C55.9913 83.7216 55.9388 84.4743 56.7722 83.9247C57.4585 83.4725 58.0896 82.9387 58.7892 82.4955C60.3829 81.4854 61.757 80.1713 63.3553 79.1729C63.3553 80.1454 63.4237 81.1261 63.2942 82.0936C63.171 83.0136 62.829 83.8734 62.5569 84.7542C62.0551 86.379 62.0204 88.1156 61.4644 89.724C61.2343 90.3902 60.6353 90.9473 60.4634 91.5957C60.2883 92.2574 60.6928 92.7875 60.0148 93.2218C59.5366 93.5281 58.9391 93.6573 58.4096 93.8425C57.6021 94.1253 56.8353 94.524 56.0492 94.8622C52.3619 96.4486 48.7652 98.0642 45.3489 100.197C42.1068 102.221 38.8152 104.312 35.8369 106.715C33.2521 108.802 30.6393 111.499 30.01 114.902C29.3995 118.204 31.0263 121.747 34.2927 122.834C35.991 123.399 37.9111 123.329 39.6798 123.354C41.5829 123.38 43.5997 122.92 45.4709 122.586C47.4469 122.235 49.3892 121.684 51.371 121.37C53.2725 121.068 55.0164 120.394 56.8868 119.979C58.8788 119.536 60.9221 119.296 62.9251 118.899C63.827 118.719 64.7104 118.455 65.6147 118.289C66.6047 118.108 67.6055 118.04 68.5858 117.799C70.4873 117.333 72.3079 116.58 74.2177 116.146C75.0763 115.951 75.9218 115.69 76.7808 115.507C77.5715 115.339 78.1876 114.893 78.9802 115.26C79.6205 115.556 80.1313 116.063 80.7373 116.417C81.5232 116.876 82.3518 117.287 83.1713 117.682C84.8177 118.475 86.5252 119.023 88.2468 119.618C90.055 120.244 91.8308 120.958 93.7042 121.371C95.6247 121.794 97.584 121.912 99.5178 122.247C103.478 122.933 107.405 123.241 111.425 123.266C113.457 123.279 115.489 123.037 117.516 123.065C119.311 123.091 120.871 123.497 122.512 122.539C125.135 121.008 128.176 118.703 128.112 115.354C128.053 112.321 126.241 109.423 124.541 107.03C122.477 104.125 119.534 102.079 116.65 100.075C113.575 97.9398 110.122 96.464 106.891 94.5998C105.239 93.6464 103.715 92.6206 101.921 91.9431C101.064 91.6198 100.228 91.2449 99.382 90.8967C98.7008 90.6166 97.7174 90.4618 97.1344 89.997C96.7706 89.7069 96.7357 89.2677 96.6397 88.8366C96.4269 87.8823 96.0928 86.9775 95.7687 86.0572C95.1432 84.2802 94.7274 82.4705 94.4586 80.6068C94.2023 78.8303 93.6334 76.9827 93.928 75.177C95.8659 77.0592 97.8572 78.8683 99.84 80.7005C100.583 81.3871 101.312 82.0881 102.059 82.7705C102.62 83.2829 103.321 84.0439 104.103 84.1959C105.101 84.3902 104.737 83.2815 105.422 83.1097C105.841 83.0048 107.104 84.0735 107.436 84.2846C109.535 85.6227 111.859 86.4706 114.168 87.3815C116.59 88.3365 119.08 89.1849 121.685 89.4252C124.092 89.6477 126.552 89.3623 128.875 88.704C133.5 87.393 136.903 84.2826 139.401 80.2507C142.246 75.6562 144.317 70.2742 144.15 64.7896Z" fill="#1C1C1C"/>
<path fill-rule="evenodd" clip-rule="evenodd" d="M73.465 54.7737C73.4642 54.7751 73.4572 54.7901 73.4572 54.7901C73.4659 54.7841 73.4684 54.7787 73.465 54.7737Z" fill="#1C1C1C"/>
<path fill-rule="evenodd" clip-rule="evenodd" d="M73.6878 54.8325C73.6705 54.6863 73.6331 54.5433 73.5758 54.4031C73.423 54.6465 73.2861 54.7508 73.487 55.0085C73.5538 54.9498 73.6207 54.8912 73.6878 54.8325Z" fill="#1C1C1C"/>
<path fill-rule="evenodd" clip-rule="evenodd" d="M84.3528 89.6635C84.5237 89.4807 84.2247 89.4118 84.111 89.4094C84.1223 89.6054 84.0255 90.0753 84.2927 90.1662C84.2286 89.9888 84.2486 89.8212 84.3528 89.6635Z" fill="#1C1C1C"/>
<path fill-rule="evenodd" clip-rule="evenodd" d="M79.8352 51.3788C79.5409 51.9495 80.1911 52.1265 80.5675 51.8509C80.8507 51.6436 81.0182 51.1151 81.0647 50.7761C81.2152 49.6793 80.4507 48.6351 80.0695 47.6618C79.971 47.4102 79.8361 46.5473 79.5188 46.5237C79.1545 46.4964 79.1275 47.2911 79.1228 47.4961C79.1088 48.1144 79.2718 48.7442 79.4628 49.3278C79.6687 49.957 80.179 50.7123 79.8352 51.3788Z" fill="#1C1C1C"/>
<path fill-rule="evenodd" clip-rule="evenodd" d="M81.2352 49.0901C82.3664 50.1015 83.2715 48.4169 83.1924 47.4205C83.1729 47.1737 83.0067 46.2634 82.5403 46.5946C82.3061 46.761 82.5058 47.3019 82.3941 47.5394C81.853 48.6905 81.3319 46.9049 80.9676 46.7647C80.5243 46.5939 80.4797 47.1787 80.4804 47.4913C80.4814 48.1119 80.7756 48.6791 81.2352 49.0901Z" fill="#1C1C1C"/>
<path fill-rule="evenodd" clip-rule="evenodd" d="M77.1286 49.2472C77.395 48.8259 77.7227 48.2608 77.7589 47.7561C77.8151 46.9715 77.3598 47.037 76.9849 47.5844C76.7203 47.9711 76.5217 48.627 75.9373 48.4639C75.2158 48.263 75.4363 47.2889 75.0324 46.826C74.0125 48.2014 75.9426 51.1218 77.1286 49.2472Z" fill="#1C1C1C"/>
<path fill-rule="evenodd" clip-rule="evenodd" d="M78.6571 53.4564C79.079 53.5479 80.1788 53.5143 79.7977 52.8657C79.3171 52.0489 77.719 53.2527 78.6571 53.4564Z" fill="#1C1C1C"/>
<path fill-rule="evenodd" clip-rule="evenodd" d="M93.435 29.095C93.5122 28.8644 93.4062 28.8225 93.2224 28.6409C93.0483 28.8023 93.2712 28.9721 93.435 29.095Z" fill="#1C1C1C"/>
<path fill-rule="evenodd" clip-rule="evenodd" d="M101.304 70.913C101.581 70.9573 101.671 70.8098 101.572 70.4702C101.133 70.4417 101.044 70.5893 101.304 70.913Z" fill="#1C1C1C"/>
<path fill-rule="evenodd" clip-rule="evenodd" d="M86.1067 35.2407C86.4137 35.3816 86.2961 35.6707 86.2908 35.915C86.449 35.7426 86.7683 35.4271 86.6382 35.1793C86.438 34.7973 85.9144 35.1525 86.1067 35.2407Z" fill="#1C1C1C"/>
<path fill-rule="evenodd" clip-rule="evenodd" d="M75.6497 30.4311C75.603 30.3395 75.5563 30.2479 75.5095 30.1564C75.3192 30.3098 75.0252 30.7154 75.3278 30.9131C75.4518 30.7619 75.5591 30.6013 75.6497 30.4311Z" fill="#1C1C1C"/>
<path fill-rule="evenodd" clip-rule="evenodd" d="M79.3334 33.1263C79.7149 33.4266 79.532 32.5047 79.5205 32.4295C79.4638 32.5376 79.1408 32.9745 79.3334 33.1263Z" fill="#1C1C1C"/>
<path fill-rule="evenodd" clip-rule="evenodd" d="M79.1216 32.6582C79.0925 32.5821 79.0631 32.5058 79.034 32.4295C78.8793 32.5733 78.69 32.8667 78.9453 33.0349C79.0154 32.9171 79.0741 32.7915 79.1216 32.6582Z" fill="#1C1C1C"/>
<path fill-rule="evenodd" clip-rule="evenodd" d="M81.5474 35.8277C81.5786 35.8565 81.6097 35.8854 81.6407 35.9144C81.7666 35.6596 81.6235 35.4683 81.386 35.4604C81.4029 35.6034 81.4567 35.7258 81.5474 35.8277Z" fill="#1C1C1C"/>
<path fill-rule="evenodd" clip-rule="evenodd" d="M71.3129 64.5308C71.4642 64.4274 71.6015 64.3094 71.7251 64.177C71.2773 63.9021 71.5456 64.4978 71.0065 64.132C70.8905 64.2932 71.0801 64.654 71.3129 64.5308Z" fill="#1C1C1C"/>
<path fill-rule="evenodd" clip-rule="evenodd" d="M90.1554 89.5603C90.3258 89.2979 90.3565 89.3055 90.1239 89.1063C89.9299 89.4306 89.95 89.3473 90.1554 89.5603Z" fill="#1C1C1C"/>
<path fill-rule="evenodd" clip-rule="evenodd" d="M54.5193 47.7466C54.612 47.8436 54.7047 47.9408 54.7974 48.0376C54.8407 47.9107 55.0767 47.5517 54.9163 47.4323C54.7841 47.537 54.6516 47.6417 54.5193 47.7466Z" fill="#1C1C1C"/>
<path fill-rule="evenodd" clip-rule="evenodd" d="M57.8202 48.7084C57.6721 48.6836 57.3181 48.5752 57.2362 48.7134C57.4528 48.8915 57.9414 48.7288 57.8202 48.7084Z" fill="#1C1C1C"/>
</svg>
