<svg width="158" height="158" viewBox="0 0 158 158" fill="none" xmlns="http://www.w3.org/2000/svg">
<circle cx="78.9251" cy="79.0949" r="78.2104" fill="white"/>
<path fill-rule="evenodd" clip-rule="evenodd" d="M43.0018 87.821C43.7656 93.5168 44.5293 99.2125 45.2931 104.908L45.9098 109.508C45.9877 110.088 45.9142 111.233 46.2108 111.753C46.3155 111.936 46.5909 112.023 46.7934 112.131C47.4902 112.503 48.1873 112.875 48.8841 113.247C54.7793 116.394 60.6744 119.541 66.5693 122.689C72.2269 125.709 77.8845 128.729 83.542 131.749C84.1274 132.062 85.0744 132.878 85.7064 132.663C86.3072 132.458 86.9212 131.955 87.4666 131.637C88.5137 131.027 89.5606 130.417 90.6076 129.807C96.9431 126.115 103.278 122.423 109.614 118.731C112.228 117.208 114.842 115.685 117.456 114.161C118.171 113.745 118.886 113.328 119.601 112.911C119.975 112.693 120.024 112.701 120.171 112.331C120.722 110.948 120.976 109.363 121.366 107.928C121.795 106.346 122.224 104.765 122.654 103.183C122.845 102.478 122.755 102.386 122.443 101.705C121.825 100.357 121.208 99.0086 120.59 97.6604C119.219 94.6678 117.848 91.6753 116.477 88.6828C115.922 87.4726 114.587 86.6211 113.625 85.731L98.6973 71.9111C98.3181 71.56 97.939 71.2091 97.5598 70.858C97.4974 72.9678 97.0781 75.2359 97.6931 77.274C98.7023 80.6188 99.7114 83.9635 100.72 87.3083C101.208 88.925 101.696 90.5417 102.184 92.1583C102.274 92.4586 102.826 93.6497 102.679 93.9139C102.597 94.0604 101.9 94.2086 101.749 94.2655C101.101 94.5108 100.452 94.7562 99.8036 95.0015C97.9969 95.685 96.1902 96.3685 94.3835 97.0518C92.7586 97.6666 91.1336 98.2813 89.5086 98.896C88.9575 99.1045 88.3104 99.4905 87.7284 99.4583C87.2078 99.4295 86.6159 99.1733 86.1121 99.0443C85.2265 98.8175 84.3407 98.5906 83.455 98.3637C81.7153 97.9182 79.9754 97.4727 78.2357 97.027C76.2783 96.5256 74.6253 95.0532 72.9514 93.9634C70.0742 92.0901 67.1969 90.2168 64.3198 88.3437C63.6611 87.9148 63.6587 87.6701 63.3962 86.8871C62.8064 85.1274 62.2164 83.3677 61.6265 81.6081C61.3116 80.6685 60.9242 79.725 60.6863 78.7631C60.294 77.1756 60.0613 75.5322 59.7505 73.9272C59.6568 73.4429 59.563 72.9585 59.4693 72.4743C58.2644 72.9604 57.0594 73.4468 55.8543 73.9331C55.6797 74.0035 54.8287 74.2136 54.753 74.3863C54.7051 74.4954 54.9582 74.9907 54.9944 75.0971C55.9936 78.0396 56.9927 80.9819 57.9919 83.9242C58.3062 84.8498 58.6204 85.7752 58.9347 86.7008C58.1838 85.5273 57.4327 84.3537 56.6816 83.1802C56.0916 85.1538 55.5014 87.1276 54.9112 89.1012C53.5166 87.501 52.1217 85.9007 50.7269 84.3004C50.244 85.9007 49.7612 87.501 49.2784 89.1012C47.7764 87.1276 46.2743 85.1538 44.7721 83.1802C44.5937 84.2101 44.415 85.2401 44.2364 86.27C44.1825 86.5809 44.1933 87.4728 43.9852 87.7189C43.8138 87.9215 43.3203 87.821 43.0018 87.821Z" fill="#F0DD33"/>
<path fill-rule="evenodd" clip-rule="evenodd" d="M138.106 100.132C138.021 102.813 138.08 106.294 136.604 108.651C136.366 109.032 135.559 110.217 135.469 109.174C135.381 108.151 135.634 107.137 135.383 106.102C135.249 105.548 134.797 104.337 134.026 104.838C133.633 105.093 133.529 105.723 133.375 106.12C133.147 106.708 132.893 107.287 132.653 107.871C131.816 109.908 130.949 112.339 129.089 113.688C129.332 111.931 129.996 110.055 129.55 108.279C129.398 107.674 128.937 106.569 128.144 106.923C127.371 107.269 126.87 108.811 126.506 109.497C125.4 111.579 124.269 113.621 123.024 115.625C122.398 116.632 121.722 117.554 120.902 118.416C120.39 118.955 119.751 119.866 118.944 119.947C118.944 118.41 119.452 116.925 119.917 115.478C120.416 113.922 120.871 112.352 121.362 110.793C121.787 109.441 122.136 108.099 122.419 106.712C122.536 106.139 122.629 105.545 123.121 105.174C123.563 104.842 124.261 104.683 124.754 104.438C126.048 103.796 127.378 103.102 128.58 102.303C129.074 101.975 129.499 101.551 130.016 101.257C130.604 100.922 131.154 100.639 131.699 100.231C134.05 98.4679 136.169 96.2992 137.597 93.7176C137.828 94.7548 138.135 95.7682 138.169 96.8374C138.204 97.9336 138.14 99.0366 138.106 100.132ZM118.759 112.456C118.383 111.825 117.811 112.083 117.306 112.388C116.523 112.86 115.738 113.329 114.951 113.795C113.349 114.744 111.777 115.743 110.212 116.75C107.026 118.801 103.729 120.479 100.37 122.214C97.1242 123.892 94.0064 125.888 90.965 127.905C90.234 128.39 89.5082 128.886 88.8063 129.412C88.1833 129.879 87.6851 130.535 87.0292 130.95C86.3462 131.383 85.8768 131.032 85.2235 130.713C84.4066 130.314 83.5552 129.979 82.7201 129.619C79.3502 128.167 75.9707 126.659 72.6926 125.01C69.4342 123.371 66.3469 121.483 63.2249 119.607C61.738 118.714 60.2765 117.764 58.8099 116.838C57.2491 115.853 55.6331 115.115 53.9959 114.277C53.2715 113.907 52.6299 113.403 51.8858 113.066C51.1037 112.712 50.2774 112.458 49.577 111.947C49.263 111.718 48.9981 111.444 48.6392 111.282C48.3446 111.149 48.0101 111.126 47.7192 110.985C47.1272 110.698 46.9578 110.114 46.8432 109.508C46.1059 105.613 45.714 101.611 45.2867 97.6727C45.0466 95.4582 44.7787 93.2524 44.4468 91.0496C44.2971 90.0565 44.5981 89.2871 44.7561 88.321C44.9406 87.1926 45.0135 86.0406 45.1371 84.9045C45.7203 85.9789 46.2247 87.1065 46.9668 88.087C47.5138 88.8095 48.4482 89.8342 49.4555 89.81C51.0211 89.7724 50.9495 87.1023 51.0126 86.0425C51.7257 86.6754 51.942 87.7065 52.5339 88.4416C53.0744 89.1128 53.8099 89.9456 54.6398 90.2461C56.3873 90.879 56.2191 87.6536 56.123 86.7389C56.0747 86.2801 55.8142 85.5542 56.4323 85.7634C57.0016 85.9561 57.5555 86.7548 58.034 87.1211C58.8611 87.7545 59.7683 88.2808 60.6167 88.8854C61.6694 89.6356 62.8053 90.1778 63.8786 90.8765C64.5499 91.3135 65.2822 91.4116 66.014 91.7329C67.0861 92.2039 68.0332 92.9058 69.0537 93.4704C71.0746 94.5878 73.3165 95.5899 75.527 96.2637C76.2422 96.4816 77.1953 97.0961 77.7378 96.4647C78.0719 96.0761 78.2914 95.4826 78.575 95.047C78.9337 94.4955 79.3147 93.9586 79.7103 93.4326C81.1165 91.5633 82.6771 89.7982 84.4103 88.2216C86.4267 86.3875 88.6315 84.737 90.9899 83.3623C92.0032 82.7716 96.2342 80.1243 97.1643 81.9875C96.4 81.9401 95.7376 82.2181 95.084 82.5662C94.9245 82.6511 94.102 83.2352 94.2945 82.7204C94.0555 82.7649 93.8459 83.0747 93.665 83.2125C93.3523 83.4506 92.878 83.7256 92.5159 83.9227C92.158 84.1175 91.7158 84.1652 91.3895 84.4014C91.2704 84.4876 91.1982 84.6275 91.0845 84.7208L90.7588 84.7234C90.7101 84.9028 90.6613 85.082 90.6125 85.2614C90.4284 84.6745 90.1658 85.4377 89.8582 85.6856C89.6733 85.8346 89.3805 85.9881 89.1628 86.0842C89.0001 86.1561 88.975 85.989 88.8169 86.1161C88.6766 86.2289 88.5871 86.4774 88.4362 86.6189C88.2509 86.792 88.0139 86.9266 87.8074 87.0745C87.4118 87.3577 86.9933 87.5802 86.5926 87.8487C86.0535 88.2101 85.7707 88.8315 85.2473 89.2093C84.9993 89.3882 84.6142 89.4092 84.48 89.5237C84.1434 89.8115 84.2543 90.2474 83.6267 90.2666C83.6838 90.3575 83.7181 90.4561 83.7298 90.5625C83.5803 90.5369 83.4474 90.4753 83.331 90.3775C83.3571 91 82.7415 91.2223 82.3725 91.6055C82.1597 91.8264 81.8947 92.137 81.7447 92.4028C81.7197 92.4473 81.6721 92.8021 81.6618 92.8069C81.6048 92.8341 81.258 92.5312 81.2908 92.5564C81.1941 93.1316 80.6344 93.6754 80.3893 94.2078C80.2602 94.4883 80.129 94.9393 79.8746 95.1366C79.8054 95.1902 79.5925 95.1342 79.4165 95.3206C79.2875 95.4573 79.1386 95.71 79.0861 95.8913C79.0512 96.0124 79.0932 96.3258 79.043 96.3984C78.951 96.5312 78.8077 96.3978 78.6635 96.496C78.397 96.6775 78.3902 96.9611 78.0003 96.9984C78.2691 97.6478 79.892 97.848 80.4818 98.0326C82.1499 98.5546 83.9 99.076 85.4593 99.8755C85.8626 100.082 86.2442 100.253 86.3156 100.729C86.4153 101.392 86.0755 102.273 86.0107 102.943C85.8351 104.751 85.7992 106.613 85.8359 108.428C85.8706 110.148 85.9266 111.885 86.0073 113.602C86.0819 115.195 86.405 116.756 86.5792 118.338C86.627 118.772 86.5952 120.73 87.3458 120.631C87.9725 120.549 87.5767 119.212 87.565 118.829C87.5388 117.98 87.7184 117.114 87.7108 116.258C87.7073 115.847 87.8882 115.492 87.9055 115.099C87.9228 114.71 87.7283 114.402 87.7866 113.999C87.8426 113.612 88.993 111.386 87.8882 111.647C87.9529 111.329 88.0095 111.008 88.095 110.695C88.2131 110.8 88.3084 110.924 88.3801 111.064C88.4785 110.381 88.4456 109.698 88.5066 109.014C88.534 108.704 88.6603 108.365 88.6172 108.053C88.6254 107.923 88.6088 107.796 88.5676 107.672C88.4997 107.6 88.4156 107.562 88.3156 107.559C88.263 107.388 88.2495 107.341 88.3428 107.173C88.3829 107.059 88.4624 106.988 88.5813 106.96C88.8079 106.933 88.8338 106.804 88.6589 106.571C88.7501 106.113 88.7619 105.824 88.6961 105.366C88.6407 104.982 88.8443 104.238 88.6368 103.896C88.3946 103.496 88.2742 103.884 88.2292 103.33C88.2195 103.212 88.2118 102.968 88.2593 102.851C88.3113 102.724 88.4675 102.776 88.4875 102.73C88.6232 102.422 88.6322 101.816 88.1521 101.869C88.1709 101.648 88.1898 101.428 88.2084 101.208C88.5552 101.605 88.4341 101.269 88.6307 101.049C88.8956 100.751 89.1547 100.7 89.5334 100.583C90.5427 100.27 91.5151 99.7985 92.5013 99.4164C94.5896 98.6071 96.7167 97.8846 98.7439 96.9283C103.008 94.9165 107.187 92.7333 111.477 90.7747C111.17 90.2091 111.361 90.1816 111.585 89.6506C111.884 89.8571 111.821 89.7131 112.034 89.7004C112.014 89.5233 112.07 89.4698 112.2 89.5401C112.303 89.5716 112.409 89.5828 112.518 89.5735C112.783 89.6188 113 89.7641 113.242 89.8193C113.321 89.8774 113.408 89.9209 113.503 89.9502C113.588 89.9309 113.661 89.8889 113.721 89.8243C114.112 89.8963 114.244 90.189 114.261 90.6127C114.264 90.6865 114.037 90.762 114.102 90.8611C114.215 91.0343 114.521 90.993 114.696 91.015C114.657 91.1949 114.619 91.3746 114.581 91.5543C115.348 91.2024 115.148 92.3039 115.38 92.6657C115.445 92.7667 115.589 92.6861 115.665 92.803C115.762 92.9557 115.733 93.1719 115.817 93.3239C116.005 93.6678 116.194 93.6261 116.382 94.0199C117.366 96.0761 118.674 97.9918 119.617 100.092C120.067 101.092 120.472 102.109 120.941 103.1C121.373 104.012 121.619 104.787 121.312 105.783C120.598 108.093 119.835 110.446 118.9 112.677C118.853 112.603 118.806 112.53 118.759 112.456ZM68.9825 129.701C68.9155 129.814 68.8486 129.927 68.7816 130.041C68.6329 129.19 69.0291 129.585 68.9825 129.701ZM65.8348 128.108C65.6203 128.044 65.713 127.696 65.7199 127.547C65.8556 127.715 65.9887 127.887 66.1017 128.071C66.0127 128.084 65.9237 128.096 65.8348 128.108ZM57.2081 124.839C57.4334 124.713 57.5954 124.623 57.8509 124.48C57.5913 124.983 57.5913 124.983 57.2081 124.839ZM43.6363 80.5207C43.2921 81.3608 44.3417 86.5483 43.3645 86.7176C43.2243 86.2624 43.2068 85.0087 42.6266 84.8591C41.9067 84.6733 41.9777 85.9639 41.8794 86.363C40.4015 85.3406 39.745 83.3662 39.039 81.8014C38.139 79.807 37.4309 77.7325 36.7546 75.6544C36.1764 73.8776 35.6982 72.0694 35.1139 70.2955C34.7468 69.1814 34.351 68.0645 34.1041 66.9162C34.0505 66.6667 33.8395 66.0341 34.0188 65.7969C34.2794 65.4521 35.2173 65.847 35.5196 65.9376C37.4803 66.5243 39.5142 66.7768 41.5287 67.1176C43.7668 67.4961 46 67.8874 48.2517 68.1809C48.8143 68.2542 49.3773 68.3236 49.9406 68.3911C50.3059 68.435 50.8589 68.3911 51.2059 68.5541C51.9082 68.8836 52.0577 70.1446 52.3186 70.7988C53.2918 73.2395 54.4372 75.6032 55.4619 78.0218C56.385 80.2006 57.0848 82.5186 58.4117 84.5025C57.4221 84.0663 56.1679 81.7599 55.0621 83.0893C54.5867 83.6609 54.7066 84.414 54.7446 85.0981C54.7996 86.0871 54.8168 87.0835 54.8168 88.074C53.7347 87.7945 53.0076 86.573 52.4395 85.7077C51.6634 84.5259 51.1747 83.4122 50.8311 82.0574C50.6822 81.4708 50.2876 81.4562 49.9369 81.1051C49.7116 80.8795 49.5983 80.5754 49.2751 80.9036C48.8689 81.3162 49.1391 82.4586 49.2093 82.9458C49.3759 84.1048 49.9222 85.8887 49.3911 86.9778C48.6743 88.4477 46.7535 84.7493 46.5285 84.2151C46.4141 83.9432 44.3705 78.7287 43.6363 80.5207ZM42.2944 55.3306C42.4154 55.349 42.5363 55.3674 42.6573 55.3858C42.5598 55.4714 42.3569 55.7716 42.1911 55.6922C42.2255 55.5717 42.26 55.4512 42.2944 55.3306ZM48.7046 53.9628C48.6668 54.0042 48.6286 54.0455 48.5906 54.087C48.4171 53.8713 48.4786 53.5568 48.4786 53.3073C48.708 53.4451 48.764 53.7207 48.7046 53.9628ZM49.2226 56.3562V57.0613C48.7421 56.8542 48.7326 56.7473 49.2226 56.3562ZM49.8062 57.2527C49.4695 57.1608 49.4293 57.0867 49.4766 56.5722C49.6161 56.8604 49.708 57.0504 49.8062 57.2527ZM51.7442 62.4744C51.6031 62.8354 50.7783 61.9751 50.8085 61.7176C50.8373 61.472 50.964 61.3987 51.1388 61.5566C51.1966 61.609 51.1108 61.798 51.1476 61.8636C51.2807 62.1011 51.549 62.2953 51.7442 62.4744ZM51.7534 64.6495C51.5468 65.1626 51.1784 64.3546 51.7183 64.3325C51.7537 64.4357 51.7655 64.5413 51.7534 64.6495ZM51.3525 63.8406C51.2725 63.7345 51.1948 63.6269 51.1193 63.5175C51.3974 63.5733 51.6182 63.9763 51.9116 63.7074C51.8768 64.1174 51.5839 64.1288 51.3525 63.8406ZM33.3685 57.1763C32.9212 56.691 35.8376 56.3503 36.1894 56.2669C38.7425 55.6615 41.153 54.7855 43.5402 53.7106C44.679 53.1979 45.812 52.6789 46.9241 52.1105C47.4044 51.8651 48.0626 51.6571 48.4637 51.2887C48.75 51.0258 48.7385 50.8269 49.1106 50.6702C49.4266 50.5375 49.4423 50.6628 49.587 50.4228C49.6739 50.2788 49.7722 49.751 49.7214 49.5948C49.5828 49.1687 49.3779 49.5142 49.0904 49.2205C48.8832 49.0088 48.9334 48.4068 48.9899 48.1574C49.0633 48.2762 49.1055 48.4052 49.1167 48.5441C49.4288 48.3911 49.303 47.8657 49.6443 47.7796C50.004 47.689 49.9668 47.9676 50.0606 48.2525C50.3325 47.8556 50.1146 47.5172 49.9675 47.1296C50.7153 46.9903 51.5189 46.8554 52.2602 47.1028C52.7963 47.2816 53.2551 47.7212 53.8211 47.8062C54.3754 47.8892 54.4819 47.6279 54.8906 47.3627C55.2223 47.1475 55.5071 47.401 55.6779 47.2384C55.5726 47.7873 54.6677 47.7122 54.779 48.3981C54.8292 48.7068 55.2097 48.9841 55.3829 49.2243C55.6003 49.5258 55.7736 49.8592 55.9217 50.1989C56.4977 51.5204 56.7439 53.054 56.9856 54.4672C57.5821 57.9555 57.6576 61.5126 58.2186 65.0121C58.4859 66.679 58.7539 68.3468 58.8928 70.03C58.9275 70.4509 59.186 71.4054 58.9745 71.8103C58.7957 72.1521 58.3979 72.1531 58.0486 72.2358C57.3653 72.3973 56.7236 72.6167 56.0681 72.8598C55.4806 73.0776 55.3098 73.2112 54.9326 72.6615C54.5677 72.1296 54.3873 71.4955 54.1263 70.9124C53.7938 70.1694 53.3921 69.4525 53.0065 68.7357C53.764 68.7357 54.2 68.3291 54.1799 67.5636C54.158 66.7158 53.4568 66.5147 53.1677 65.8179C52.8866 66.181 52.8629 66.1912 52.6625 65.8465C52.4334 65.4524 52.2787 64.7311 52.1385 64.284C52.2388 64.3904 52.3391 64.4968 52.4393 64.6031C52.6921 64.2571 52.2961 63.7117 52.1636 63.3859C51.9592 62.8828 51.9232 62.3389 51.7293 61.8372C51.6235 61.5634 51.3786 61.3478 51.3185 61.0622C51.2785 60.8709 51.4391 60.689 51.4009 60.4949C51.3346 60.1569 50.9502 59.7942 50.8306 59.4505C50.6466 58.9218 50.4469 58.4562 50.2187 57.9411C49.9098 57.2439 49.9816 56.5122 49.9251 55.7702C49.8666 55.0007 49.6187 54.2646 49.5312 53.4986C49.4706 52.9693 49.6601 52.303 49.2574 51.8791C49.2103 52.5837 49.4134 52.5728 48.7476 52.6995C47.9895 52.8437 47.4398 53.4053 46.7231 53.5728C46.5754 53.6074 46.4677 52.9657 46.5253 53.841C46.1816 53.5887 45.4478 53.902 45.7216 54.0518C45.5141 54.2725 45.1055 54.1198 45.0373 54.4504C44.3322 53.7688 43.2016 56.0888 42.362 54.8786C42.2234 55.6988 41.6262 56.1837 40.8244 56.2922C40.4213 56.3466 40.1728 56.4802 39.815 56.6004C39.7424 56.6246 39.7157 56.7284 39.6298 56.7564C39.4984 56.799 39.3056 56.6705 39.211 56.6954C39.0184 56.7463 38.8042 56.9984 38.5352 57.0485C38.2269 57.1059 37.8905 57.0795 37.5818 57.044C37.1959 56.9995 37.0261 56.9541 36.6482 57.0805C36.3083 57.1943 35.9443 57.5129 35.6289 57.1659C35.1333 58.0184 33.9519 57.81 33.3685 57.1763ZM56.277 46.8892C55.9021 46.8446 56.1624 46.5239 56.3361 46.4275C56.808 46.166 56.682 46.9375 56.277 46.8892ZM35.5128 49.9483C37.7138 46.791 41.4785 44.6216 44.7909 42.7963C46.6002 41.7993 48.4469 40.8329 50.3466 40.0169C51.2912 39.6114 52.2467 39.2216 53.2112 38.8654C53.7262 38.6751 54.2474 38.5021 54.7691 38.3299C54.9132 38.2824 55.1756 38.1364 55.3265 38.1507C55.3005 38.1481 55.7017 38.2566 55.6228 38.2907C55.8813 38.1788 56.0043 37.8871 56.3081 37.7705C56.6496 37.6392 57.0846 37.585 57.4504 37.5731C57.7741 37.5626 58.0543 37.6956 58.3626 37.706C58.5653 37.7127 58.7375 37.617 58.9359 37.6029C59.0374 37.5959 59.0284 37.7469 59.0896 37.7557C59.1161 37.7596 59.3865 37.6586 59.3891 37.6604C59.4876 37.7232 59.5748 37.9687 59.6638 38.0646C59.9191 38.3395 60.2937 38.5311 60.6341 38.6757C61.0484 38.8518 62.0589 39.0288 61.5906 39.6801C61.9232 39.6325 62.0781 39.9315 61.6615 40.0072C61.4359 40.0483 61.3395 39.8428 61.172 39.7026C60.7849 39.3794 59.8454 38.9191 59.2879 38.9399C58.9742 38.9516 58.7318 39.1883 58.4426 39.2742C58.1579 39.3587 58.0169 39.2277 57.7672 39.2485C57.4752 39.2726 57.2872 39.5183 57.009 39.562C56.7484 39.6029 56.6033 39.4263 56.3704 39.4386C56.0936 39.4532 55.8254 39.6922 55.5612 39.7726C55.1408 39.9003 54.8321 39.9873 54.4217 40.199C53.6264 40.6095 52.7382 40.7654 51.9185 41.1187C51.2632 41.4012 50.5201 41.5499 49.9137 41.8622C49.2394 42.2093 48.562 42.5552 47.9017 42.9323C47.4246 43.2049 46.4548 43.2986 45.9289 43.2294C45.9213 44.1924 45.4446 43.5172 44.9642 43.9391C45.0778 44.0388 45.2069 44.1121 45.351 44.159C44.8303 44.3657 44.3491 44.623 43.8447 44.8607C43.3235 45.1065 42.7673 45.1606 42.4248 45.6255C42.1093 46.0539 42.2162 45.8329 41.7455 46.0015C41.5295 46.079 41.3417 46.3152 41.186 46.4738C40.9186 46.7465 40.8593 47.1593 40.7066 46.5989C40.662 46.6672 40.4866 47.1024 40.4525 47.1134C40.2611 46.9115 40.2336 47.1509 40.1266 47.2365C40.1829 47.4226 40.1024 47.5445 39.8852 47.6023C39.7753 47.6836 39.6639 47.7633 39.5514 47.8412C39.1433 48.1227 38.6237 48.3642 38.3363 48.7836C38.1244 48.6593 38.0458 48.4447 38.1749 48.2256C37.7698 48.5969 37.2865 48.9782 37.1769 49.5497C37.1265 49.5014 37.0678 49.4665 37.0012 49.445C36.8367 49.5554 37.0509 49.8845 37.1552 49.9586C37.61 49.7828 37.0416 49.8465 37.3472 49.8749C37.4343 49.8829 37.5237 49.9477 37.6198 49.9488C37.9016 49.9525 38.1664 49.939 38.4458 49.8963C39.0618 49.8019 39.6673 49.626 40.2637 49.4497C40.9133 49.2576 41.563 49.0659 42.1982 48.8304C42.7212 48.6364 43.2356 48.4202 43.7498 48.2048C43.9551 48.1187 44.1603 48.0315 44.366 47.946C44.7566 47.7838 44.9626 47.5172 44.9081 47.9739C45.2191 47.9225 45.4887 47.4853 45.7276 47.3069C46.0636 47.0561 46.4415 46.869 46.8396 46.741C47.0009 46.6892 47.1193 46.6232 47.2861 46.6228C47.3678 46.6226 47.4168 46.8518 47.4683 46.8393C47.8255 46.7532 47.6627 46.5563 47.8233 46.2728C48.1746 45.653 49.1209 45.3102 49.7021 44.9581C50.0709 44.7346 50.3328 44.4339 50.6733 44.1863C50.8327 44.0706 50.9484 44.0194 51.1153 43.9704C51.2431 43.9328 51.3998 44.2247 51.4827 43.9314C51.1854 43.8106 50.9403 43.6616 50.6543 43.5734C50.452 43.5108 50.6947 43.2969 50.3742 43.4243C50.2454 43.4755 50.2011 43.7232 50.1538 43.8269C49.7957 43.5089 48.7889 43.8384 48.364 43.9716C48.3348 43.9807 48.2036 43.9119 48.1418 43.916C47.8965 43.9324 47.7258 44.2606 47.5643 44.402C47.1351 44.778 46.6695 44.9351 46.141 45.1497C46.2817 44.3856 47.3154 44.0725 47.9187 43.7799C48.8007 43.3519 49.6218 42.8058 50.5874 42.5756C51.2305 42.4222 52.0827 42.2988 52.3605 43.0423C52.5267 43.488 52.5476 44.5952 51.9851 44.8008C51.9258 44.5928 52.116 44.415 52.1733 44.2345C51.6134 44.447 51.5212 45.1158 51.096 45.4648C50.857 45.6608 50.7715 45.7237 50.656 45.9132C50.5412 46.1014 50.4862 46.2769 50.2172 46.4771C49.7777 45.5488 49.8521 46.8204 49.6292 46.9799C49.7188 46.9158 49.2659 47.1032 49.32 47.0833C49.2991 47.091 49.1018 46.7732 48.9738 46.7799C48.741 46.7921 48.7857 47.047 48.6735 47.1753C48.2932 47.6097 47.8019 47.8945 47.1898 47.8262C47.1755 48.1352 47.2714 48.5044 46.847 48.5325L46.7914 47.8475C46.5604 48.0798 46.2564 48.3005 46.0684 48.5695C45.8545 48.8756 45.8774 49.0642 45.5225 49.2682C45.1517 49.4815 44.3628 49.9018 43.9215 49.9381C44.0306 49.7841 44.0113 49.6451 43.8639 49.5212C43.642 49.7488 43.3143 49.7712 43.078 49.9766C43.8982 50.3173 42.448 50.2997 42.264 50.3383C42.1409 50.3642 42.0334 50.4758 41.9087 50.5009C41.743 50.5343 41.7216 50.3612 41.5791 50.4161C41.3705 50.4964 41.4551 50.7232 41.2369 50.8371C41.0801 50.9191 40.8143 50.9179 40.6374 50.9957C40.2159 51.1813 39.318 51.5925 39.0332 51.0938C38.8888 51.9493 37.4145 51.4286 36.8687 51.371C36.1213 51.2921 34.8195 50.9432 35.5128 49.9483ZM38.6521 41.1951C38.7578 41.1053 38.8637 41.1119 38.9696 41.2149C38.8222 40.4407 39.9624 40.0648 40.4599 39.7356C41.1197 39.299 41.8964 38.452 42.7599 38.5191C42.6126 38.6276 42.4657 38.7361 42.3186 38.8446C42.5286 38.8716 42.7385 38.8987 42.9482 38.9257C42.8299 39.0985 42.7114 39.2712 42.5928 39.4439C42.399 38.3819 41.388 39.7226 41.0954 39.918C40.8008 40.1147 40.5069 40.2613 40.245 40.5012C39.9856 40.7388 39.7514 41.1667 39.3225 40.9529C39.2834 41.5595 38.7931 41.3949 38.454 41.7308C38.4398 41.5201 38.5611 41.3711 38.6521 41.1951ZM43.1316 38.1675C44.1753 37.7788 45.084 37.0601 46.0675 36.5467C47.0068 36.0563 47.9652 35.6159 48.9202 35.1584C49.4047 34.9262 50.2921 34.3257 50.8459 34.6317C51.5931 35.0449 50.5644 35.1782 50.2972 35.3213C50.1984 34.685 49.8522 35.2614 50.059 35.6154C49.4888 35.3706 48.2453 36.3285 47.7013 36.5926C47.5782 36.6525 47.6334 36.6871 47.4934 36.7575C47.4589 36.7748 47.102 36.8556 46.9998 36.8897C46.4877 37.0601 46.1502 36.9247 45.9295 37.5394C45.8833 37.3947 45.8372 37.2499 45.791 37.1051C45.4704 37.8209 44.4959 38.1342 43.8727 38.5575C43.7121 38.6666 43.2535 39.0899 43.0497 39.0024C42.7661 38.8804 42.8799 38.2611 43.1316 38.1675ZM61.9593 40.3256C62.3999 40.3546 61.975 40.559 62.0961 40.694C62.0824 40.6788 62.3615 40.9155 62.3249 40.8505C62.3742 40.9379 62.4925 40.9347 62.553 41.1123C62.7614 41.7232 61.8513 42.3543 61.5444 42.7009C60.9476 43.3751 60.6027 44.2289 59.9809 44.8815C59.7 45.1763 59.4206 45.3798 59.0313 45.4898C58.7589 45.5667 58.4706 45.4843 58.2202 45.7448C58.0185 45.9546 58.0643 46.0739 57.8414 46.1854C57.4487 46.3821 57.2757 46.2096 56.8936 46.6346C56.5648 45.7458 57.5095 45.7472 58.0025 45.2505C58.6829 44.5648 59.4285 43.873 60.0667 43.1394C60.6335 42.4876 60.8606 41.9162 61.1296 41.1243C61.2145 40.8747 61.3068 40.3394 61.5407 40.1827C61.9049 39.9388 61.6863 40.3075 61.9593 40.3256ZM64.1261 63.4146C65.2818 62.1292 66.7155 60.9751 68.2695 60.2009C68.8249 59.924 69.6156 59.5608 70.1913 59.9869C70.7558 60.4046 70.6343 61.2379 70.4068 61.8047C70.1887 61.7196 70.3945 60.9229 70.2814 60.7261C70.0345 60.2966 69.5018 60.5246 69.1394 60.6686C68.7148 60.8373 68.336 61.0236 67.9998 61.3297C67.8633 61.4537 67.6021 61.565 67.5147 61.6503C67.3834 61.596 67.306 61.6355 67.2828 61.7687C67.3098 61.8503 67.3066 61.9306 67.273 62.0097C67.2538 62.0348 67.0831 61.9317 67.0588 61.9524C66.948 62.0466 66.8444 62.1575 66.7354 62.2451C66.5167 62.421 66.3307 62.5042 66.1293 62.7493C65.7405 63.2232 65.2262 63.5008 64.8356 63.9523C64.7474 64.0544 64.6416 64.316 64.6218 64.3389C64.4244 64.5681 64.1316 64.7494 63.9089 64.992C63.5238 65.4111 63.1126 65.6924 62.6682 66.0518C62.4769 66.2064 62.2536 66.373 62.1263 66.5881C62.0684 66.6862 62.0357 67.2239 62.0336 67.2261C61.5978 67.7011 61.6826 66.7464 61.7155 66.6267C62.0694 65.3386 63.2659 64.3715 64.1261 63.4146ZM61.7473 72.1245C61.8016 72.3267 61.8461 72.494 61.9012 72.6993C61.5556 72.4175 61.5556 72.4175 61.7473 72.1245ZM61.3741 72.787C61.2471 72.9142 61.1195 73.0406 60.9909 73.1662C60.7081 72.8691 61.4259 72.7361 61.3741 72.787ZM61.1947 67.6721C61.0595 68.2159 60.5646 68.8751 60.2244 69.3043C60.2619 69.2569 59.934 69.3521 59.8967 69.3737C59.7755 69.4435 60.0657 69.8957 59.6458 69.6936C59.4968 69.7775 59.7902 70.119 59.5877 70.2718C59.0025 68.946 60.6003 67.7973 61.219 66.8131C61.5215 67.0893 61.2706 67.3673 61.1947 67.6721ZM57.3938 74.8405C57.8204 74.9496 58.0424 74.881 58.3304 74.4642C58.5036 74.214 58.5669 73.7707 58.9629 74.1451L59.0328 73.6636C59.5982 73.8942 59.5507 74.7276 59.7977 75.1895C59.9179 74.667 60.2026 73.2074 61.0744 73.4415C62.0531 73.7044 60.4243 75.378 60.273 75.788C59.9403 75.2746 60.0712 75.7521 59.8174 75.8245C59.5996 75.8867 59.2594 75.7273 58.9948 75.7417C58.1898 75.7853 57.4826 76.1453 56.7473 76.4502C56.5611 75.9511 56.3751 75.4519 56.1888 74.9528C56.6218 74.9859 57.5169 73.8401 57.644 74.6729C57.323 74.6174 57.2325 74.6315 57.0761 74.9221C57.176 74.8717 57.2819 74.8445 57.3938 74.8405ZM59.2008 81.3554C59.1995 81.3514 60.0335 81.4026 60.1078 81.3756C60.6785 81.1683 60.4675 80.5247 60.5842 80.0697C60.8195 80.2848 60.6948 80.6774 60.7674 80.9556C60.8525 81.2827 61.0991 81.5615 61.1219 81.9113C61.1739 82.7017 60.5216 82.5263 60.0272 82.782C59.6048 83.0006 59.5579 83.2756 59.2011 82.6865C59.1046 82.5271 58.8969 82.1118 58.9182 81.908C58.9391 81.706 59.2608 81.5381 59.2008 81.3554ZM59.8729 84.7755L59.6423 84.5187C60.3295 84.7278 59.9242 84.4134 60.0823 83.9834C60.6097 84.3326 61.0398 84.6915 61.4571 83.9923L62.1782 86.8841C61.6939 86.9974 61.0691 86.2534 60.737 85.9978C60.5451 85.8501 59.4805 85.2812 60.1198 85.1154C60.0374 85.0021 59.9551 84.8888 59.8729 84.7755ZM64.5793 75.6952C64.1791 76.0736 63.7759 76.2855 63.3401 76.583C62.9579 76.8442 63.0895 77.1439 62.7582 77.4352C62.5382 77.6288 62.0224 77.826 61.7505 77.9737C61.2663 78.2368 60.8326 78.2868 60.3344 77.9924C60.47 79.0775 59.7226 79.1625 58.7922 79.3774C58.3485 79.48 58.0858 79.6367 57.766 79.2326C57.547 78.9561 57.4612 78.4553 57.7337 78.2023C58.1665 77.8004 59.3194 77.9391 59.8746 77.6863C60.296 77.4945 60.7252 76.4142 61.245 76.8074C60.9768 76.3825 61.2891 76.2681 61.5223 75.9651C61.7777 75.6331 61.9347 75.2449 62.1989 74.9155C62.701 74.2895 63.4719 73.6598 64.1851 73.2823C64.8125 72.9502 65.142 73.1853 65.236 73.8827C65.2833 74.2333 65.2815 74.7556 65.0841 75.0667C65.0211 75.166 64.8134 75.1671 64.7504 75.2602C64.6408 75.423 64.7414 75.5419 64.5793 75.6952ZM71.9427 67.2788C72.4434 67.6641 72.3947 68.4739 72.4735 69.0253C72.5847 69.8026 72.5041 70.5547 72.4922 71.3464C72.4796 72.1758 72.0704 72.7161 71.8777 73.4935C71.6637 74.3583 71.3873 74.8163 70.9071 75.542C71.4279 75.6235 70.6528 77.17 70.525 77.3702C70.3863 77.5875 69.2676 78.589 69.7472 78.589C69.4826 78.9359 69.1946 79.292 68.931 79.6293C68.8271 79.7621 68.6451 79.8143 68.5634 79.9081C68.3968 80.0987 68.3867 80.2686 68.2674 80.4911C68.0863 80.8286 68.0268 80.7385 67.7888 80.9833C67.6245 81.1525 67.5166 81.3757 67.3552 81.5378C66.8351 82.06 66.7687 81.6322 66.4779 81.2301C66.4334 81.3378 66.3542 81.4053 66.2404 81.4327C66.1493 80.9776 66.7763 80.5178 67.0399 80.2413C67.4717 79.7881 67.8663 79.2888 68.2481 78.7932C69.0657 77.7312 69.8003 76.603 70.38 75.3945C70.9967 74.1083 71.4894 72.7164 71.7453 71.3133C71.9403 70.2438 72.1257 68.4092 70.6886 68.1372C69.6433 67.9394 68.4909 68.5709 67.6293 69.0821C67.1041 69.3936 66.5761 69.7032 66.0759 70.0535C65.5329 70.4334 65.0636 70.9711 64.4743 71.276C64.7966 71.1092 63.733 71.6111 63.8958 71.4699C63.8196 71.5359 63.8854 71.7373 63.835 71.8282C63.7693 71.9465 63.5411 72.0633 63.4388 72.1398C63.1684 72.3418 62.7364 72.5484 62.6135 72.8819C60.8985 71.6653 64.309 69.5056 65.1832 68.9556C66.9173 67.8647 69.9347 65.7331 71.9427 67.2788ZM76.5687 55.4474C76.5523 54.5714 77.2698 53.3755 77.7544 52.6611C77.9914 52.3115 78.3701 52.3254 78.509 51.913C78.5892 51.6755 78.4841 51.4265 78.5079 51.1881C78.5401 50.8656 78.6807 50.607 78.843 50.3298C80.3096 47.8243 82.0915 45.6066 83.9894 43.4206C84.9253 42.343 85.8125 41.2239 86.8218 40.2115C87.2434 39.7887 88.3766 38.2688 89.0249 38.4208C89.3681 38.5013 89.5679 39.0222 89.7229 39.288C89.9791 39.7276 90.2609 40.1394 90.5723 40.5436C91.3942 41.6108 92.3423 42.5476 93.4619 43.3041C94.161 43.7768 94.8674 44.2363 95.5511 44.7315C96.1139 45.1391 96.9647 45.6051 97.3666 46.1774C97.7686 46.7498 97.1783 47.2346 96.8556 47.7098C96.3541 48.449 95.8929 49.2149 95.3893 49.9533C95.1893 49.8102 95.2409 49.5196 95.1038 49.3364C94.9821 49.1739 94.8101 49.1078 94.6421 49.0075C94.32 48.8156 94.004 48.581 93.7132 48.9025C93.2041 49.4652 93.904 50.7952 94.6585 50.6492C94.7473 51.2045 93.2408 52.1191 92.8632 52.4248C91.7045 53.3622 90.5092 54.1772 88.9785 54.2621C88.3591 54.2963 87.7145 54.2496 87.126 54.0435C86.844 53.9447 86.5323 53.8092 86.3161 53.5939C86.0573 53.3363 85.9913 52.9529 85.7403 52.6978C85.5225 52.4765 85.2235 52.4424 85.0059 52.2202C84.788 51.998 84.6804 51.6469 84.592 51.359C84.4191 50.7965 84.3865 50.2032 84.2204 49.6395C84.1204 49.3004 84.0384 48.847 83.7125 49.1728C83.2391 49.6462 83.4769 51.1346 83.598 51.7018C83.7714 52.5109 84.1777 53.1631 84.6034 53.8593C85.065 54.6144 85.2354 55.3149 85.3181 56.1886C85.473 57.8243 85.945 59.3939 86.6795 60.8655C86.9887 61.4851 87.359 62.0678 87.6928 62.6732C87.8487 62.9556 88.1981 63.9193 88.6222 63.9142C89.2998 63.9059 88.3346 61.9412 88.2007 61.6114C87.4585 59.7846 86.7495 57.8646 86.5905 55.8867C87.6545 56.1592 88.8142 56.4178 89.916 56.2451C89.2048 57.8265 89.9477 59.4011 89.8568 61.0289C89.8114 61.8452 89.7785 62.5983 89.7954 63.4122C89.8104 64.1259 89.4863 64.8393 89.2061 65.4847C88.6496 66.7664 87.949 68.3475 86.9154 69.3292C86.0514 70.15 84.8955 70.2142 83.7665 70.0252C81.1983 69.595 79.5108 67.632 78.4331 65.4025C77.7405 63.9702 77.2112 62.4413 76.8826 60.8858C76.5021 59.0856 76.6025 57.2733 76.5687 55.4474ZM79.904 43.3154C77.5073 41.5911 80.99 39.633 82.7628 39.8996C83.1786 39.962 83.9437 40.133 83.9048 40.6726C83.8729 41.1136 83.1331 41.6052 82.849 41.8774C82.039 42.6542 81.2147 44.2582 79.904 43.3154ZM97.3391 81.629C97.2568 81.5558 96.5861 81.7356 96.8518 81.341C97.0726 81.0131 97.6848 81.424 97.9072 81.5084C97.7239 81.6343 97.5644 81.8294 97.3391 81.629ZM87.3595 102.484C87.1535 102.509 86.9381 101.957 87.6807 102.369C87.5737 102.407 87.4665 102.446 87.3595 102.484ZM87.3382 111.487C87.3638 111.735 87.4399 111.898 87.2631 112.078C87.1136 111.895 87.0943 111.636 87.3382 111.487ZM87.6397 115.207C87.6178 115.342 87.5959 115.477 87.5743 115.611C87.4028 115.525 87.2315 115.439 87.06 115.352C87.2531 115.304 87.4465 115.256 87.6397 115.207ZM87.8495 112.07C88.1051 112.165 87.9862 111.862 88.1717 111.819C88.2382 112.135 88.1563 112.406 87.9736 112.667C87.9562 112.605 87.8626 112.075 87.8495 112.07ZM94.381 89.6223C94.0225 89.5769 93.9682 89.9536 93.7009 90.0997C93.5284 90.1941 93.0031 90.1232 92.9051 90.3039C93.0345 90.341 93.164 90.3783 93.2934 90.4154C92.9971 90.5742 92.7008 90.7331 92.4046 90.8918C93.1172 90.8918 93.8598 90.5534 94.5676 90.6527C94.8667 90.6948 95.0861 90.7953 95.2738 91.0373C95.3877 91.1842 95.4878 91.4206 95.5062 91.6004C95.5259 91.795 95.3734 91.9295 95.4004 92.0223C95.7194 92.0309 95.6817 92.5512 95.6101 92.7632C95.4548 93.223 94.8379 93.9429 94.2851 93.6514C94.5164 93.9777 94.4575 94.1639 94.1155 94.3532C94.1466 94.2454 94.1694 94.0567 93.9946 94.0754C93.9497 94.2563 93.9669 94.543 93.8184 94.6794C93.6522 94.8319 93.5038 94.6536 93.3448 94.7528C93.1563 94.8706 93.213 95.0555 93.0647 95.1832C92.8687 95.3518 92.8407 95.232 92.6064 95.2648C92.2515 95.3147 92.4779 95.0955 92.1937 95.3813C92.0954 95.4799 92.112 95.7364 91.9526 95.8807C91.6465 96.1577 90.8298 96.4464 90.5366 96.0912C89.8315 97.2022 87.7182 97.4688 86.7346 96.5917C85.1657 95.1929 88.091 92.3481 89.0567 91.4465C90.0261 90.5417 91.1027 89.7601 92.1921 89.0057C92.8111 88.5772 93.4463 88.1881 94.0949 87.8063C94.495 87.5706 94.9974 87.1403 95.4891 87.1816C95.9301 87.2187 96.3068 87.5589 96.7711 87.6263C97.1068 87.6749 97.7591 87.7553 97.3355 88.2081C97.1374 88.4197 96.3595 88.7618 96.0945 88.8134C95.9389 88.8436 95.7749 88.7857 95.6207 88.8171C95.3597 88.8703 95.1804 89.0894 94.8964 89.0616C94.9863 89.4807 94.8222 89.678 94.381 89.6223ZM99.0239 74.0627C99.0241 74.3906 98.4222 74.3088 98.2965 74.1975C98.0895 74.0142 98.0823 73.4663 98.0055 73.2171C98.3554 73.3047 99.0236 73.625 99.0239 74.0627ZM94.1752 63.2451C95.4395 62.2118 96.7689 61.2644 98.1742 60.43C98.6774 60.1313 99.388 59.5286 100.013 59.6038C100.275 59.6355 100.817 59.9349 100.62 60.265C100.583 60.3268 100.291 60.3516 100.201 60.3964C100.099 60.4472 100.019 60.587 99.9239 60.6562C99.2673 61.1351 98.4784 61.4294 97.8196 61.9199C97.2782 62.3227 96.7734 62.7733 96.1906 63.119C95.6315 63.4504 95.0473 63.6602 94.5165 64.0273C94.527 64.02 93.8261 64.2706 93.9636 64.3162C93.3483 64.1115 93.9982 63.3899 94.1752 63.2451ZM102.605 62.8602C103.356 62.5626 104.091 62.2014 104.877 62.0014C105.269 61.9015 105.672 61.8264 106.078 61.8714C106.148 61.7512 106.239 61.7247 106.354 61.7917C106.444 61.9287 106.562 62.0338 106.709 62.1073C106.933 62.2785 107.758 62.5024 107.593 62.8806C107.484 63.1307 106.657 63.1515 106.43 63.2077C105.746 63.3771 105.108 63.7583 104.403 63.8519C104.337 63.8607 104.121 63.781 104.119 63.7815C103.844 63.8412 103.615 64.1249 103.378 64.261C102.87 64.5537 102.139 64.6028 101.774 65.108C102.957 65.9051 103.983 65.1146 105.022 64.5127C105.645 64.1523 106.314 63.8923 106.994 63.6612C107.35 63.5405 107.709 63.4151 108.069 63.3091C108.218 63.255 108.372 63.2161 108.529 63.1923C108.676 63.1633 108.78 63.2163 108.844 63.3514C109.28 63.337 109.317 63.0651 109.579 63.5722C109.949 64.2872 109.383 64.2509 108.851 64.3387C108.114 64.4604 107.364 64.7343 106.637 64.916C106.47 64.9579 105 65.2967 104.999 65.3087C104.932 65.7699 109.15 65.3428 109.512 65.2736C110.151 65.1514 110.836 64.8043 111.497 64.888C112.005 64.9521 113.162 65.6931 112.352 66.1853C112.193 65.4261 111.645 66.0531 111.359 66.3093C110.978 66.6504 110.433 66.6175 109.911 66.7512C109.196 66.9336 107.368 67.6182 106.861 66.7454C107.021 67.5103 104.107 67.1216 103.706 67.0964C103.315 67.0715 102.811 67.1541 102.433 67.0434C102.187 66.9712 102.05 66.812 101.818 66.7761C101.762 66.837 101.694 66.8784 101.614 66.9003C101.497 66.8413 101.391 66.7661 101.296 66.675C100.516 66.3183 99.308 66.1211 99.7417 64.9848C100.151 63.9131 101.613 63.2536 102.605 62.8602ZM109.921 63.5226C109.94 63.4559 109.96 63.3891 109.979 63.3222C109.982 63.5269 110.472 63.6143 110.416 63.8795C110.29 64.4666 109.724 63.5844 109.675 63.4882C109.757 63.4997 109.839 63.5111 109.921 63.5226ZM112.918 64.4981C112.975 64.7387 113.627 65.2507 113.466 65.3688C113.208 65.0209 112.497 65.1789 112.918 64.4981ZM101.907 86.4445C102.146 85.9732 102.868 86.7757 102.792 85.9711C103.185 86.0065 102.94 86.3036 103.41 86.1731C103.587 86.1241 103.706 85.9297 103.921 85.8848C103.978 85.8728 104.226 85.8924 104.312 85.8898C104.595 85.8812 105.704 85.8498 104.94 85.4806C105.368 85.1996 105.421 85.3422 105.806 85.5997C105.707 85.0674 106.275 85.3696 106.539 85.436C106.351 85.1324 106.818 84.8095 106.97 84.6043C106.916 84.9203 106.944 85.2742 107.404 85.0721C107.519 85.0218 107.493 84.7984 107.584 84.7619C107.751 84.6952 107.844 84.8167 107.903 84.8098C107.962 84.8032 108.086 84.836 108.209 84.7898C108.37 84.7298 108.292 84.5156 108.496 84.4838C108.628 84.4632 108.725 84.6568 108.887 84.6584C108.97 84.6592 109.108 84.5753 109.171 84.5798C109.183 84.5806 109.262 84.3911 109.359 84.3865C109.501 84.3796 109.558 84.7578 109.61 84.8312C109.859 85.1817 110.189 85.4102 110.57 85.5971C109.881 86.2257 108.49 86.1591 107.623 86.371C107.153 86.4859 106.753 86.6515 106.323 86.865C106.219 86.9321 106.13 87.0143 106.055 87.1118C105.994 87.0716 105.933 87.0315 105.873 86.9913C105.637 87.0057 105.414 86.8898 105.149 86.9343C104.331 87.0716 103.69 87.6815 102.858 87.8174C102.484 87.8785 102.177 87.9638 101.933 87.6415C101.719 87.3589 101.755 86.745 101.907 86.4445ZM100.784 82.6881C100.97 82.8441 100.747 83.3521 101.106 83.2969C101.361 83.2577 101.31 82.8645 101.51 82.7811C101.773 82.6718 101.932 82.9312 102.179 82.9072C102.64 82.8621 102.613 82.462 102.224 82.2863C102.629 82.18 102.759 82.6559 103.117 82.6516C103.588 82.646 103.475 82.0938 103.876 82.0022C104.05 81.9625 103.992 82.2159 104.104 82.2474C104.329 82.3103 104.486 82.2023 104.686 82.1072C104.864 82.0222 104.991 81.858 105.186 81.8024C105.274 81.7769 105.5 81.8235 105.565 81.7763C105.696 81.6812 105.813 81.3109 105.942 81.2619C105.916 81.2719 106.339 81.4828 106.4 81.5026C106.363 81.659 106.277 81.6775 106.142 81.5585C106.142 81.9113 107.128 82.0213 106.926 81.5852C107.459 81.8048 107.062 81.9177 107.008 82.2242C106.987 82.3474 106.915 82.344 106.936 82.4743C106.946 82.5343 107.226 82.4826 107.222 82.5644C107.199 83.0911 105.511 83.253 105.191 83.2994C104.529 83.3956 103.902 83.5574 103.264 83.7566C102.789 83.905 101.97 84.3298 101.464 84.3034C100.737 84.2655 100.642 83.322 100.784 82.6881ZM99.1594 77.314C98.9821 76.7282 99.551 75.518 100.292 75.6693C100.474 75.7064 100.519 75.8565 100.66 75.9231C100.858 76.0162 101.179 75.9672 101.35 76.0634C101.733 76.2793 101.54 76.8293 101.924 77.0281C101.317 77.1743 99.4413 78.2452 99.1594 77.314ZM99.8616 79.5903C100.123 79.4506 100.547 79.4326 100.725 79.164C100.814 79.2251 100.982 79.5962 101.141 79.5394C101.215 79.513 101.292 79.3118 101.287 79.312C101.428 79.308 101.457 79.1171 101.673 79.1385C101.872 79.1584 102.095 79.3962 102.272 79.4848C102.242 78.8953 102.394 78.8389 102.874 78.5234C102.98 78.4542 103.068 78.1947 103.165 78.0897C103.072 78.7084 103.306 78.7117 103.803 78.8047C104.426 78.9212 104.814 79.2537 105.064 79.8521C104.533 79.7492 103.848 79.873 103.639 80.4403C103.216 79.6708 101.676 80.7327 101.178 80.9502C100.808 81.1117 100.378 81.3287 100.068 80.9524C99.85 80.6874 99.9751 80.3687 99.9798 80.1333C99.981 80.0593 100.058 80.055 100.051 79.9449C100.042 79.8044 99.8578 79.7482 99.8616 79.5903ZM105.528 91.6918C105.388 91.7446 104.667 91.7742 104.662 91.5366C104.658 91.3266 105.935 91.5382 105.528 91.6918ZM104.356 90.923C103.81 91.2577 103.2 90.0786 102.999 89.739C103.572 89.8118 103.851 89.3355 104.188 88.9736C104.509 89.6727 104.997 89.3032 105.509 89.0697C106.114 88.7943 106.776 88.7922 107.395 88.5712C107.589 88.5023 107.767 88.3997 107.956 88.3208C108.107 88.2643 108.259 88.2064 108.41 88.147C108.517 88.051 108.555 87.9327 108.524 87.7925C108.473 87.6748 108.508 87.6004 108.627 87.5696C108.77 87.6119 108.916 87.6365 109.064 87.6431C109.303 87.596 109.646 87.3722 109.358 87.1308C109.666 86.8521 109.976 87.1292 110.273 87.2513C110.202 87.0511 110.132 86.8509 110.061 86.6507C110.209 86.713 110.646 87.3211 110.691 87.3177C110.974 87.2966 110.944 86.9191 111.107 86.7668C111.201 86.8818 111.228 87.7397 111.597 87.4507C111.754 87.3272 111.415 86.9063 111.331 86.8105C111.753 86.9052 112.121 87.4061 112.235 87.7949C112.035 87.8238 111.85 87.7837 111.68 87.6746C111.571 88.2161 112.579 87.9967 112.742 88.2797C113.062 88.8335 110.983 89.2182 110.712 89.2696C110.17 89.3724 109.53 89.4106 109.033 89.6495C108.557 89.8782 108.445 89.9437 107.889 89.9865C107.254 90.0355 106.634 90.2435 106.02 90.4055C105.487 90.546 104.829 90.6334 104.356 90.923ZM115.96 71.0969C116.461 70.9175 118.15 69.9866 118.58 70.4006C118.534 70.3568 118.89 71.0868 118.886 71.0409C118.917 71.4207 118.907 71.5735 118.437 71.7554C118.1 71.8857 117.807 71.6088 117.504 71.7188C117.172 71.8396 117.404 72.0534 117.233 72.2027C117.045 72.3664 116.684 72.4372 116.45 72.5088C115.878 72.6844 115.302 72.8311 114.733 73.0203C113.576 73.4052 112.35 73.7633 111.16 74.0355C110.271 74.2389 108.762 74.7444 107.943 74.1474C107.863 74.4868 107.668 74.4404 107.396 74.4898C107.183 74.5286 106.799 74.6334 106.609 74.6388C106.294 74.648 105.419 74.5659 105.539 74.1266C105.506 74.2476 106.22 73.8334 106.097 73.8076C106.4 73.8712 106.302 73.7193 106.55 73.6348C106.875 73.5245 107.214 73.5305 107.545 73.4137C108.381 73.1192 109.082 72.737 109.963 72.5525C111.978 72.1312 114.017 71.7922 115.96 71.0969ZM35.2178 116.48C35.0546 116.484 34.9276 116.023 35.4241 116.352C35.3554 116.395 35.2867 116.437 35.2178 116.48ZM31.2958 115.883C31.0738 115.94 30.9853 115.816 31.0305 115.514C31.34 115.392 31.4284 115.515 31.2958 115.883ZM28.2679 115.266C28.2111 114.996 28.4122 114.935 28.5946 114.814C28.5762 115.171 28.5762 115.171 28.2679 115.266ZM20.6494 113.045C20.3425 112.978 19.9335 112.68 19.8632 113.181C19.8119 113.065 19.5499 112.519 19.6624 112.393C19.7211 112.327 19.9435 112.633 19.9199 112.602C20.1885 112.062 20.6515 112.714 20.9103 112.907C20.8234 112.953 20.7363 112.999 20.6494 113.045ZM100.445 53.3393C100.551 53.1166 100.676 53.0458 100.82 53.1273C100.594 53.6483 99.8298 53.9308 100.445 53.3393ZM105.754 48.4482C105.944 48.8011 105.659 48.9502 105.456 49.2436C105.575 48.9272 105.657 48.7079 105.754 48.4482ZM128.829 82.8934C129.512 82.8933 130.966 82.535 131.378 83.3109C131.651 82.7836 131.96 83.7725 132.197 83.9311C132.223 83.949 132.393 83.8195 132.473 83.8672C132.592 83.9391 132.695 84.1348 132.763 84.2511C132.97 84.6019 133.058 85.0189 133.173 85.4049C131.98 85.4049 130.758 85.1289 129.566 85.0285C128.784 84.9626 128.017 84.9607 127.234 85.0026C127.079 85.0109 126.77 84.9599 126.637 84.989C126.501 85.0186 126.256 85.2924 126.107 85.2484C126.339 85.6807 129.305 86.7271 129.531 86.2484C129.263 86.0871 128.667 85.9633 128.668 85.5734C128.668 85.1367 129.227 85.1375 129.522 85.1503C130.169 85.1785 131.253 85.3926 131.518 86.0615C131.632 86.3483 131.667 87.0703 131.542 87.3472C131.461 87.5259 131.325 87.7409 131.108 87.7772C131.02 87.7921 130.892 87.6748 130.878 87.6776C130.434 87.7713 129.613 88.1257 129.129 87.626C128.78 88.0752 127.098 87.5845 126.583 87.415C125.683 87.1187 124.443 86.7117 123.896 85.8764C123.23 84.8583 124.585 83.9978 125.363 83.584C126.427 83.0184 127.642 82.8939 128.829 82.8934ZM133.373 85.2475C133.582 85.3062 133.792 85.3651 134.001 85.4238C133.945 85.7887 133.119 85.5 133.373 85.2475ZM139.699 98.5101C139.764 97.0483 139.339 95.7609 139.093 94.347C139.032 93.9965 139.094 93.3838 138.827 93.0956C138.571 92.82 138 93.044 137.977 92.5569C137.726 92.8503 137.751 92.9115 137.44 92.5742C137.497 92.7189 137.505 92.8659 137.465 93.0157C137.272 92.9059 136.574 92.5414 136.633 93.0399C136.059 92.9136 136.225 92.5566 135.898 92.2841C135.851 92.2453 135.664 92.3828 135.591 92.3242C135.46 92.2181 135.395 92.1218 135.284 91.9851C135.142 92.1548 134.95 92.2774 134.778 92.4115C134.677 92.1943 134.482 92.0349 134.248 91.9821C134.467 92.4385 135.009 93.0296 134.265 93.2894C133.821 93.4443 133.094 93.2543 132.624 93.2905C130.881 93.4249 128.972 93.0471 127.287 92.6342C125.556 92.2101 123.805 91.6115 122.248 90.7364C121.916 90.5498 121.707 90.329 121.421 90.0976C121.143 89.8726 120.941 89.8371 120.607 89.6932C120.006 89.4343 119.457 89.019 118.999 88.5562C118.016 87.561 117.103 86.2595 117.377 84.8024C117.649 83.3502 118.653 82.2152 119.728 81.2589C120.996 80.1294 122.429 79.1864 123.949 78.4261C124.629 78.0863 126.368 76.8096 127.039 77.5566C127.468 78.0338 127.227 78.6427 126.641 78.7488C126.496 78.7751 126.345 78.6786 126.198 78.7447C125.988 78.8401 126.062 78.9527 125.975 79.0323C125.824 79.1704 125.663 79.3858 125.437 79.5055C124.649 79.9233 123.887 80.2544 123.134 80.7633C122.787 80.9977 122.452 81.0985 122.146 81.3032C121.842 81.5066 121.773 81.8433 121.363 81.6356C121.509 82.2277 120.633 82.8617 120.29 83.2245C119.759 83.7862 119.121 84.5032 119.369 85.3342C119.855 86.961 122.049 88.1966 123.453 88.9118C125.205 89.8041 127.137 90.5145 129.087 90.8084C130.057 90.9546 131.059 91.0448 132.037 91.1375C132.797 91.2096 133.965 90.9454 134.512 91.6267C134.529 90.8323 137.024 90.9024 137.555 90.8008C136.49 87.1817 134.4 83.964 132.165 80.9577C131.068 79.4819 129.99 77.9642 128.74 76.6113C127.371 75.1303 125.807 73.8067 124.321 72.4439C121.407 69.7709 118.11 67.3854 114.756 65.2839C111.409 63.1873 107.944 61.1239 104.277 59.6291C100.09 57.9219 95.6813 56.799 91.2679 55.8427C91.8665 55.0841 92.8404 54.7141 93.6069 54.1592C93.8754 53.9649 94.2381 53.4986 94.5867 53.4349C94.9643 53.3657 95.2615 53.7696 95.5303 53.9724C96.3017 54.5543 96.8352 54.3072 97.7187 54.2721C98.2474 54.2512 99.4994 54.5439 99.7223 53.8329C100.019 54.2252 99.5888 54.5399 99.3688 54.8276C99.529 55.0497 99.658 54.8193 99.8162 54.7845C99.865 54.7444 99.9136 54.7041 99.9624 54.6639C100.041 54.5509 100.112 54.5503 100.175 54.6616C100.269 54.8028 100.364 54.7716 100.46 54.5679C100.486 54.5515 100.512 54.5351 100.538 54.5187C100.652 54.4582 100.763 54.3626 100.869 54.2872C101.672 53.7167 102.387 53.2307 103.274 52.8104C104.018 52.4577 103.618 51.7829 104.108 51.3063C104.219 51.1985 104.406 51.2526 104.525 51.1612C104.641 51.0714 104.659 50.9696 104.744 50.8734C104.947 50.6422 104.705 50.3738 105.225 50.6569L105.037 49.607C106.057 50.5908 106.053 47.7596 106.192 47.3407C106.174 47.396 106.284 46.9673 106.284 46.971C106.314 46.1214 106.43 45.5056 105.43 45.4563C105.809 45.2193 105.924 45.6821 106.099 45.203C106.187 44.9629 105.914 44.5504 106.349 44.7051C106.441 44.195 106.35 43.7821 106.236 43.2863C106.119 42.7789 106.188 42.4403 106.193 41.9328C106.199 41.3572 105.928 40.7787 105.841 40.2119C105.774 39.7679 105.844 39.0678 105.266 39.2309C105.185 39.1046 105.47 38.7162 105.459 38.5242C105.441 38.2259 105.115 37.9228 105.023 37.6363C104.887 37.7756 104.696 37.822 104.511 37.7591C104.685 37.3699 104.522 37.2392 104.356 36.9036C104.261 36.7114 104.318 36.4992 104.115 36.3615C103.998 36.2824 103.799 36.4156 103.708 36.3229C103.512 36.1245 103.584 35.8612 103.449 35.5997C103.28 35.2718 102.894 35.0214 102.628 34.7753C101.131 33.3918 99.505 32.3345 97.5139 31.7939C95.5052 31.2485 93.1634 31.0532 91.1615 31.6822C90.3613 31.9336 89.6509 31.9079 88.9307 32.3774C88.6972 32.5297 88.6721 32.4889 88.5535 32.7429C88.5261 32.8021 88.7748 32.9597 88.6225 33.0566C88.4571 33.1617 88.2744 32.9479 88.1901 32.7704C87.1482 33.5203 86.1719 34.52 85.5785 35.6663C84.9889 36.8053 84.9348 38.1435 84.7096 39.3813C83.6711 38.2016 82.2664 37.636 80.7393 38.2032C79.4082 38.6973 78.3767 39.7836 78.1163 41.1909C77.9575 42.0488 78.131 42.9176 78.5229 43.6917C78.6923 44.0261 78.8975 44.3964 79.2091 44.6216C79.4555 44.7996 79.8775 44.7746 79.9935 45.0956C80.1713 45.5874 79.1442 46.6495 78.8776 47.08C78.3952 47.859 77.947 48.6634 77.6058 49.5143C76.3825 47.7961 75.2116 45.9194 73.8206 44.3352C72.5078 42.8398 70.9428 41.4988 69.408 40.2349C66.2224 37.6117 62.9099 35.1473 59.3465 33.0575C56.0284 31.1116 52.0204 30.0312 48.1534 30.4132C44.375 30.7865 41.4823 33.1627 39.0481 35.9031C34.3677 41.1723 31.5011 48.6826 31.2211 55.6969C31.1369 57.804 31.2983 59.8835 31.8217 61.9273C32.071 62.9004 32.0348 63.8575 32.1796 64.8432C32.3431 65.955 32.6259 67.0629 32.8993 68.1521C33.9409 72.3011 35.268 76.447 36.7572 80.4586C37.5315 82.5447 38.4683 84.5841 39.7357 86.4237C40.321 87.2734 41.0793 87.9382 41.7093 88.745C42.3203 89.5276 42.4818 90.4881 42.6161 91.4482C42.9383 93.7506 43.1521 96.0627 43.3458 98.3784C43.4281 99.3599 43.5242 100.333 43.6548 101.307C43.7688 102.157 43.4821 102.115 42.7632 102.404C42.909 101.64 39.4743 102.16 39.15 102.212C38.7971 102.269 38.4234 102.269 38.1454 102.315C37.8347 102.365 37.5305 102.438 37.1726 102.427C36.6465 102.412 35.6614 102.279 35.4605 102.946C35.3223 102.172 34.4091 103.019 35.0847 102.875C34.3912 102.952 33.6836 102.824 32.9817 102.889C32.1774 102.963 31.3661 103.034 30.5674 103.154C30.0113 103.238 29.4807 103.451 28.9237 103.513C28.2109 103.592 27.467 103.585 26.7473 103.648C24.0927 103.88 21.3411 104.456 18.7606 105.115C18.1761 105.265 17.5045 105.371 16.946 105.611C16.7965 105.675 16.662 105.818 16.5188 105.873C16.2786 105.965 16.3115 105.902 16.0982 105.944C14.8205 106.198 13.5025 106.613 12.2249 106.938C11.5163 107.119 10.3637 107.282 9.78566 107.773C9.52655 107.994 9.30011 108.384 9.71533 108.635C10.047 108.834 10.5204 108.515 10.7889 108.343C10.5497 108.963 10.0987 109.271 10.3423 109.977C10.5346 110.534 10.9688 111.22 11.6369 110.861C11.7263 111.068 11.7626 111.48 12.026 111.556C12.2628 111.624 12.4342 111.326 12.6661 111.396C12.7491 111.421 12.7176 111.577 12.7919 111.618C12.92 111.688 13.0499 111.718 13.1967 111.767C13.3228 111.81 13.526 111.897 13.6576 111.906C13.7411 111.912 13.938 111.77 13.9373 111.77C14.1291 111.799 14.2323 112.164 14.3704 112.27C14.5497 112.407 14.6977 112.438 14.9223 112.487C15.389 112.59 15.9906 112.767 16.2986 112.292C16.2281 112.631 16.6921 112.598 16.8968 112.641C16.8741 112.462 16.7748 112.299 16.6216 112.2C17.0793 112.231 16.8937 112.683 17.232 112.802C17.4731 112.887 17.4458 112.671 17.6302 112.647C17.8732 112.616 18.0576 112.791 18.4371 112.629C18.5194 112.993 18.5495 113.359 18.9983 113.414C19.2618 113.445 19.8761 112.972 19.8413 113.366C20.4299 113.195 20.6533 113.311 20.9608 113.826C21.0128 113.51 21.2643 113.601 21.4951 113.582C21.8609 113.551 21.8703 113.58 22.1538 113.374C22.1798 113.356 22.4028 112.847 22.5019 113.163C22.5465 113.305 22.2519 113.638 22.1427 113.722C22.2782 113.79 22.7223 114.029 22.893 113.985C23.0408 113.947 23.0413 113.696 23.2188 113.683C23.1753 113.827 23.132 113.972 23.0884 114.116C23.4338 114.166 23.7223 113.936 23.9951 113.768C24.2552 114.422 24.9986 114.054 25.4029 114.546C25.6167 114.806 25.6267 115.004 26.0342 115.072C26.4512 115.141 26.8154 114.959 27.1698 115.301C27.0575 115.089 26.7776 114.913 27.0557 114.685C27.245 114.952 27.3426 115.274 27.5609 115.522C27.591 115.396 27.6211 115.27 27.6512 115.143C28.2201 115.748 28.9362 115.754 29.665 116.089V115.646C30.1867 116.438 30.2146 115.937 30.8379 115.614C30.7956 115.847 30.7531 116.079 30.7107 116.312C31.1593 116.278 31.5784 116.807 31.9466 116.358C32.169 116.729 32.4386 116.546 32.8031 116.664C33.0104 116.731 33.1647 116.934 33.3664 117.008C33.6688 117.118 33.7591 117.113 34.0438 117.208C34.2969 117.294 34.4408 117.459 34.7577 117.512C34.9635 117.547 35.1502 117.544 35.3472 117.535C35.4233 117.531 35.3982 117.361 35.5674 117.401C35.8289 117.462 36.0236 117.788 36.2119 117.956C36.4952 117.248 37.2883 118.196 37.6716 118.322C37.7083 118.141 37.7017 117.922 37.8339 117.773C37.989 118.111 38.0482 118.395 38.3703 118.613C38.5562 118.738 38.8291 118.828 39.0438 118.874C39.1795 118.903 39.426 118.868 39.5113 118.91C39.6568 118.981 39.7104 119.17 39.8573 119.188C39.9438 119.198 40.0719 118.972 40.1366 118.99C40.4327 119.07 40.5972 119.428 40.8962 119.621C41.786 120.197 42.9058 120.253 43.8972 120.379C44.146 120.411 44.1821 120.343 44.3842 120.488C44.492 120.566 44.4431 120.802 44.5757 120.868C45.0754 121.117 45.0758 120.585 45.1805 120.255C45.3458 120.472 45.3743 120.758 45.6004 120.931C45.7239 120.927 45.8475 120.93 45.9707 120.939C46.0403 121.018 46.086 121.109 46.1072 121.212C46.4066 121.413 46.7456 121.344 47.0548 121.494C47.1562 121.544 47.3358 121.843 47.4607 121.929C47.6842 122.083 48.0299 122.165 48.2853 122.232C48.8209 122.372 49.5889 122.186 49.9076 122.742C50.3307 122.291 50.167 122.83 50.4543 122.943C50.6239 123.009 50.879 122.744 51.0672 122.77C51.4059 122.818 51.5279 123.182 51.6364 123.448C51.8427 123.402 51.7011 122.821 51.6953 122.694C51.9517 122.664 52.0086 123.335 52.0529 123.483C52.4577 123.289 51.7933 122.686 52.2285 122.493C52.1886 123.006 52.6004 123.43 51.8649 123.503C51.9665 123.813 54.3387 124.156 54.5035 123.883C54.54 124.388 54.8812 123.916 55.0071 123.744C55.0212 124.038 54.9203 124.456 55.2528 124.593C55.4788 124.686 55.9883 124.446 56.077 124.226C56.1782 124.562 56.3479 124.551 56.5587 124.765C56.7035 124.912 56.799 125.166 56.9509 125.289C57.2304 125.515 57.7504 125.48 58.0762 125.43C58.7135 125.331 58.6382 125.209 58.8652 125.868C58.9166 125.618 59.0775 125.095 59.3582 125.484C59.5368 125.731 59.1565 126.275 59.0466 126.492C59.2922 126.358 59.536 126.199 59.8154 126.141C59.831 126.227 59.8454 126.408 59.8042 126.488C59.8125 126.472 60.1106 126.67 60.2211 126.725C60.1946 126.712 60.3085 126.217 60.3053 126.234C60.6985 126.475 60.4257 126.936 60.774 127.174C60.8639 127.236 61.0751 127.164 61.1839 127.201C61.3733 127.267 61.5371 127.443 61.7055 127.546C61.5711 127.367 61.5904 127.066 61.5996 126.859C61.6852 126.906 61.7464 127.082 61.8328 127.096C61.8655 127.102 62.2042 127.146 62.202 127.145C62.5546 127.39 62.482 127.421 62.1793 127.716C62.2874 127.885 62.7395 127.592 62.8618 127.543C62.8874 127.609 62.894 127.849 62.9421 127.892C62.9713 127.963 63.0005 128.034 63.0298 128.105C63.1201 128.038 63.217 128.016 63.3203 128.038C63.3857 128.061 63.8957 128.267 63.9303 128.196C63.8188 128.16 63.7175 128.105 63.6271 128.031C63.9214 127.768 64.115 127.628 64.3862 128.008C64.4203 128.056 64.303 128.228 64.3378 128.29C64.4673 128.523 64.7335 128.708 64.9143 128.897C64.9891 128.636 64.815 127.981 65.2305 128.005C65.5625 128.024 65.815 128.824 65.7001 129.072C65.8321 128.929 66.62 128.786 66.7687 128.831C67.1893 128.958 67.0713 129.344 67.5887 128.778C67.9415 129.02 67.6306 129.112 67.6941 129.407C67.7873 129.426 67.8755 129.403 67.959 129.338C67.8966 130.592 68.8273 129.634 69.4316 129.826C69.6689 129.901 69.7295 130.169 69.9841 130.247C70.1188 130.288 70.2687 130.19 70.3997 130.214C70.5046 130.199 70.6089 130.181 70.7125 130.159C70.8439 130.094 70.9055 130.167 70.8975 130.379C71.1086 130.487 71.0288 130.53 71.2757 130.551C71.4347 130.565 71.581 130.4 71.7617 130.428C72.0734 130.477 72.0322 130.715 72.2315 130.839C72.4108 130.951 72.6129 130.948 72.8337 130.926C72.9462 130.915 73.2621 130.771 73.3001 130.77C73.536 130.767 73.4081 130.717 73.6913 130.919C73.9118 131.076 74.0044 131.178 74.2751 131.25C74.5855 131.333 75.1362 131.514 75.3451 131.291C75.6273 131.711 75.8482 131.402 76.2206 131.43C76.4112 131.445 76.4414 131.518 76.6111 131.548C76.886 131.596 77.2289 131.554 77.5213 131.648C77.9821 131.795 78.0341 131.869 78.505 131.889C78.59 131.856 78.6749 131.823 78.7598 131.79C78.7852 131.931 78.852 132.046 78.9603 132.135C79.2237 132.19 79.3968 132.057 79.614 131.913C79.7759 132.414 80.3012 132.458 80.7506 132.524C81.4756 132.63 82.1689 132.688 82.868 132.925C83.4585 133.125 84.0501 133.35 84.6181 133.606C85.1179 133.832 85.5896 134.169 86.1552 134.011C87.4366 133.652 88.6784 132.344 89.7504 131.593C91.0202 130.703 92.3896 129.971 93.7164 129.171C98.9983 125.987 104.579 123.294 109.787 119.992C112.63 118.189 115.268 116.047 118.322 114.589C117.887 116.375 117.147 118.188 117.281 120.058C117.334 120.812 117.558 121.702 118.145 122.228C118.872 122.878 119.681 122.464 120.376 121.999C121.865 121.004 122.858 119.551 123.973 118.187C125.291 116.573 126.314 114.84 127.282 113C127.514 113.324 127.337 113.867 127.34 114.225C127.345 114.683 127.469 115.125 127.683 115.534C128.234 116.589 129.284 116.845 130.232 116.122C132.056 114.73 133.115 112.252 134.093 110.257C134.651 111.288 135.442 112.587 136.781 111.85C137.886 111.242 138.536 109.884 138.873 108.733C139.86 105.374 139.548 101.953 139.699 98.5101Z" fill="#1C1C1C"/>
<path fill-rule="evenodd" clip-rule="evenodd" d="M138.023 78.3364C137.897 78.0321 137.842 78.0818 138.074 77.7867C138.254 77.9636 138.11 78.1097 138.023 78.3364ZM143.608 96.7578C143.254 95.756 143.472 94.6682 143.257 93.6406C143.158 93.1692 143.002 92.7118 142.946 92.2319C142.921 92.0189 142.731 91.0602 142.86 90.9092C142.461 90.6686 142.459 90.4905 142.367 90.0185C142.509 89.8683 142.492 89.7401 142.313 89.6337C142.197 89.4935 142.08 89.3531 141.963 89.2129C142.473 89.4608 142.172 88.8263 142.12 88.4606C142.079 88.1716 142.051 87.8701 141.954 87.5931C141.835 87.2526 141.569 87.0804 142.121 87.0804C141.94 86.8751 141.668 86.6632 141.578 86.4118C141.448 86.05 141.662 85.5718 141.397 85.2522C141.249 85.074 140.487 85.0042 140.62 84.6192C140.688 84.423 140.997 84.5694 141.093 84.4319C141.469 83.8917 140.359 83.6678 140.305 83.438C140.234 83.14 140.635 83.0734 140.66 82.7948C140.684 82.5221 140.257 82.0741 140.145 81.8302C139.991 81.8673 139.823 82.1088 139.647 81.9934C139.614 81.9716 139.664 81.0276 139.624 80.9023C139.585 80.7791 139.504 80.4523 139.476 80.3918C139.362 80.1516 139.036 80.0347 138.985 79.7509C138.954 79.5816 139.621 79.3252 138.856 79.3172C139.131 78.8356 138.627 78.5429 138.444 78.1313C138.208 77.6021 138.069 77.0304 137.827 76.4985C137.592 75.9814 137.329 75.4908 136.99 75.0336C136.683 74.6196 136.55 74.2214 136.304 73.7842C136.255 73.7458 136.206 73.7074 136.157 73.669C135.952 73.6985 135.887 73.6058 135.96 73.3909C135.804 73.1603 135.687 72.9142 135.549 72.6733C135.389 72.3934 135.172 72.1652 135.006 71.893C134.786 71.5322 134.721 71.1252 134.473 70.7632C134.167 70.3179 133.823 69.9252 133.54 69.4632C133.185 68.8843 132.792 68.5246 132.345 68.0763C132.132 67.8629 132.107 67.3296 131.846 67.0266C131.562 66.6964 131.282 66.607 131.086 66.1736C130.83 65.6098 130.454 65.3407 130.089 64.8534C129.787 64.4514 129.64 63.9894 129.308 63.6005C129.022 63.2665 128.698 62.9613 128.393 62.6446C128.008 62.2447 127.724 61.7587 127.323 61.3785C127.381 61.4334 126.974 61.113 126.995 61.1233C126.905 61.0776 126.614 61.041 126.657 61.0658C126.052 60.7123 125.294 59.4185 124.384 60.104C123.905 60.4646 124.135 61.1258 124.469 61.4849C124.613 61.6392 125.358 62.3996 125.52 62.0789C125.694 62.3241 126.229 63.5093 126.675 63.1697C126.63 63.5747 126.866 63.4403 127.021 63.7141C127.124 63.8948 127.074 63.9834 127.149 64.2654C127.354 65.0406 128.138 65.7977 128.556 66.4737C129.595 68.156 130.742 69.7517 131.782 71.436C132.774 73.0412 133.885 74.5644 134.836 76.1912C135.918 78.0412 137.266 79.7874 138.081 81.7817C138.108 81.8487 138.335 81.9548 138.391 82.0555C138.489 82.2304 138.468 82.5329 138.531 82.731C138.75 83.4178 139.104 84.0939 139.508 84.6628C139.863 85.162 139.888 85.8403 140.132 86.4259C140.476 87.2511 140.839 88.0678 141.174 88.8972C141.694 90.1882 142.046 91.4255 142.405 92.7733C142.638 93.6467 142.823 94.5197 142.898 95.4216C142.966 96.251 142.982 97.115 143.291 97.9003C143.502 97.577 143.75 97.1582 143.608 96.7578Z" fill="#1C1C1C"/>
<path fill-rule="evenodd" clip-rule="evenodd" d="M24.6527 114.531C24.279 114.456 23.9274 114.356 23.8482 113.929C23.794 114.13 23.7399 114.331 23.6857 114.532C24.1406 114.635 24.5958 114.737 25.0507 114.84C24.9445 114.654 24.867 114.574 24.6527 114.531Z" fill="#1C1C1C"/>
<path fill-rule="evenodd" clip-rule="evenodd" d="M25.6555 44.5116C25.6838 44.3913 25.7205 44.2733 25.7657 44.1583C25.7965 44.2705 25.9471 44.5131 25.8594 44.6188C25.7477 44.7531 25.6347 44.6771 25.6555 44.5116ZM27.4874 41.0457C27.6101 41.0995 27.8755 41.1099 28.0277 41.1553C27.6328 41.4932 27.5632 41.3938 27.0526 41.3546C27.0299 41.0128 27.1696 40.9067 27.4874 41.0457ZM24.0641 49.5077C24.1171 49.5092 24.1702 49.5104 24.2235 49.5117C24.2267 49.3629 24.2228 49.2142 24.2115 49.0657C24.75 49.1827 24.4452 48.247 24.2761 48.0531C24.8014 48.0705 25.0573 46.4168 25.2237 46.0981C25.3714 45.8152 25.5388 45.7058 25.6468 45.3607C25.7413 45.0588 25.8435 44.787 25.9798 44.5014C26.293 43.8446 26.7038 43.2482 26.628 42.4828C26.8934 43.0571 27.1268 42.4837 27.2951 42.2091C27.5663 41.7666 28.2279 41.2021 28.2982 40.6765C28.3604 40.2139 28.0147 40.1894 28.2187 39.7604C28.4251 39.326 28.5947 39.3696 28.9562 39.2307C29.1966 39.1382 29.2444 39.2505 29.414 38.9487C29.5239 38.7533 29.4852 38.6077 29.626 38.4475C29.6841 38.4977 29.7502 38.5185 29.8243 38.5099C29.9385 38.36 30.0135 38.1929 30.0491 38.0087C30.1423 37.76 30.1873 37.5316 30.3277 37.2948C30.4608 37.0704 30.697 36.4702 30.8222 36.362C30.9552 36.2471 31.7092 36.3055 31.7059 36.3097C32.0174 35.9201 31.4459 35.5321 32.2372 35.6142C32.0809 35.3248 32.6299 34.9657 32.7892 34.8047C33.1872 34.4029 33.2189 34.217 33.3029 33.7116C33.3456 33.4539 33.0672 33.4837 33.4404 33.425C33.5947 33.4008 33.7428 33.597 33.8541 33.5682C34.3458 33.4415 33.8314 33.4656 33.9671 33.2664C34.0099 33.2032 34.2286 32.9481 34.2266 32.9508C34.2159 32.9636 34.2758 32.7288 34.3254 32.6685C34.4194 32.6605 34.5119 32.6442 34.6028 32.6196C34.649 32.5267 34.6899 32.4317 34.7253 32.3344C35.0811 32.0393 35.6135 31.9073 35.8596 31.583C36.0188 31.3734 35.9711 31.1681 36.1768 30.9591C36.3727 30.76 36.6318 30.9042 36.6706 30.4545C36.72 29.8824 36.102 29.6278 35.8491 30.2052C35.1635 29.3655 32.2979 32.4462 31.9668 32.8487C30.5288 34.5959 29.1155 36.3863 27.936 38.3183C26.7867 40.2009 25.8435 42.1818 25.1062 44.2581C24.7507 45.2593 24.5342 46.2559 24.3171 47.2915C24.2442 47.6383 23.6994 49.1837 23.9262 49.5295C23.9721 49.5223 24.0181 49.5149 24.0641 49.5077Z" fill="#1C1C1C"/>
<path fill-rule="evenodd" clip-rule="evenodd" d="M137.253 92.3532C137.495 92.1928 137.495 92.1928 137.537 91.8896C137.213 91.9484 137.213 91.9484 137.253 92.3532Z" fill="#1C1C1C"/>
<path fill-rule="evenodd" clip-rule="evenodd" d="M17.8626 112.777C17.8656 112.777 17.8678 112.778 17.8695 112.779C17.8645 112.773 17.8463 112.754 17.8626 112.777Z" fill="#1C1C1C"/>
<path fill-rule="evenodd" clip-rule="evenodd" d="M17.7003 112.94C17.7751 113.101 17.8951 113.141 18.0607 113.06C18.1259 113.152 17.4946 112.481 17.7003 112.94Z" fill="#1C1C1C"/>
<path fill-rule="evenodd" clip-rule="evenodd" d="M28.632 39.5358C28.2532 40.2744 28.7277 39.7372 28.7034 39.9771C28.7193 39.8195 28.785 39.595 28.632 39.5358Z" fill="#1C1C1C"/>
<path fill-rule="evenodd" clip-rule="evenodd" d="M90.3022 50.9815C90.4666 52.3075 92.291 51.6803 92.7014 50.8782C93.0002 50.2943 93.7549 47.9868 92.9429 47.4994C92.341 47.138 92.2124 48.6954 92.064 49.0433C91.8154 49.626 91.6211 49.2131 91.0683 49.3626C90.4582 49.5276 90.2343 50.4316 90.3022 50.9815Z" fill="#1C1C1C"/>
<path fill-rule="evenodd" clip-rule="evenodd" d="M88.3089 48.5542C88.961 48.6983 89.6002 48.624 90.0634 48.1119C90.3199 47.8284 90.6613 47.2659 90.1994 46.9914C89.7808 46.7429 89.3062 47.3249 88.8654 47.2046C88.2659 47.0409 88.5746 46.4017 88.3689 45.9796C87.6131 46.4123 87.1915 48.3075 88.3089 48.5542Z" fill="#1C1C1C"/>
<path fill-rule="evenodd" clip-rule="evenodd" d="M88.9851 51.9026C88.3565 51.9013 88.3513 52.6701 88.6795 52.9996C88.9935 53.3148 89.7875 53.6339 90.2132 53.3888C91.053 52.9048 89.4938 51.9525 88.9851 51.9026Z" fill="#1C1C1C"/>
<path fill-rule="evenodd" clip-rule="evenodd" d="M52.409 82.474C52.5432 82.5388 52.9388 82.8723 53.1055 82.7217C52.8702 82.486 52.6347 82.2503 52.3995 82.0145C52.2694 82.1563 52.1803 82.3636 52.409 82.474Z" fill="#1C1C1C"/>
<path fill-rule="evenodd" clip-rule="evenodd" d="M49.4378 48.7462C49.3711 48.7957 49.3043 48.8451 49.2375 48.8945C49.4627 49.081 49.4571 49.1364 49.6841 48.9598C49.6167 48.8716 49.5347 48.8005 49.4378 48.7462Z" fill="#1C1C1C"/>
<path fill-rule="evenodd" clip-rule="evenodd" d="M92.0433 92.7404C91.9169 92.5148 91.6783 92.9309 91.5168 92.9986C91.2542 93.1085 91.0387 92.526 91.114 93.2242C90.5203 92.9539 90.16 93.574 89.7771 93.897C89.2362 94.3534 88.5746 94.6009 88.2137 95.249C89.9121 95.6441 91.7782 94.1882 93.0446 93.2319C93.2513 93.0757 94.2842 92.2879 93.5841 92.2117C93.2978 92.1806 92.2557 93.1197 92.0433 92.7404Z" fill="#1C1C1C"/>
<path fill-rule="evenodd" clip-rule="evenodd" d="M91.5389 91.3729C91.8713 91.1127 91.1546 91.0889 91.0413 91.0615C91.0511 91.2685 91.0605 91.4753 91.0703 91.6823C91.2308 91.5856 91.387 91.4823 91.5389 91.3729Z" fill="#1C1C1C"/>
<path fill-rule="evenodd" clip-rule="evenodd" d="M90.2895 92.2419C90.3888 92.1802 90.6658 91.9876 90.4774 91.8441C90.3072 91.9518 90.1855 92.1276 90.1588 92.3282C90.2024 92.2994 90.2459 92.2706 90.2895 92.2419Z" fill="#1C1C1C"/>
<path fill-rule="evenodd" clip-rule="evenodd" d="M62.7831 75.4381C62.5707 75.5209 62.4756 75.6518 62.4979 75.8311C62.8242 75.7648 62.762 75.4584 62.7831 75.4381Z" fill="#1C1C1C"/>
</svg>
